<svg width="309.523438" height="347.729004" viewBox="0 0 309.523 347.729" fill="none" xmlns="http://www.w3.org/2000/svg" xmlns:xlink="http://www.w3.org/1999/xlink">
	<desc>
			Created with Pixso.
	</desc>
	<defs/>
	<path id="Vector" d="M307.53 28.98C306.47 27.57 305.05 26.48 303.41 25.81C301.78 25.13 300 24.91 298.25 25.17C265.07 30.03 234.13 44.44 206.76 67.5C206.07 65.1 205.23 62.73 204.25 60.43C202.56 56.24 200.81 51.91 201.64 48.82C202.28 46.44 205.6 43.81 208.82 41.26C212.81 38.1 217.33 34.52 219.37 29.53C221.2 25.06 220.51 19.95 219.85 15C219.46 12.57 219.25 10.12 219.22 7.66C219.25 6.29 218.9 4.94 218.22 3.76C217.53 2.57 216.53 1.6 215.33 0.94C214.12 0.27 212.75 -0.05 211.37 0C209.98 0.06 208.64 0.49 207.49 1.26C183.07 17.45 165.13 41.64 154.75 72.11C144.36 41.65 126.44 17.44 102.02 1.26C100.87 0.49 99.53 0.06 98.15 0C96.76 -0.05 95.39 0.27 94.18 0.94C92.98 1.6 91.98 2.57 91.3 3.76C90.61 4.94 90.26 6.29 90.29 7.66C90.26 10.12 90.05 12.57 89.66 15C89 19.95 88.32 25.06 90.14 29.53C92.18 34.52 96.71 38.1 100.7 41.26C103.91 43.81 107.24 46.44 107.88 48.82C108.71 51.91 106.96 56.24 105.26 60.43C104.28 62.73 103.44 65.1 102.75 67.5C75.39 44.44 44.44 30.03 11.26 25.17C9.52 24.92 7.73 25.14 6.1 25.81C4.47 26.48 3.05 27.57 1.98 28.98C0.92 30.39 0.25 32.06 0.06 33.81C-0.14 35.57 0.14 37.34 0.86 38.95C2.03 41.7 3.06 44.51 3.95 47.36C6.06 53.76 8.25 60.37 12.91 64.55C18.18 69.27 25.47 70.88 32.52 72.44C38.67 73.8 44.47 75.09 47.12 78.14C50.44 81.96 50.9 88.78 51.34 95.38C51.79 101.98 52.25 108.81 55.6 113.9C59.58 119.97 66.57 123.66 72.73 126.92C78.19 129.81 83.35 132.53 84.97 135.97C87.44 141.21 85.86 148.29 84.33 155.15C83.53 158.42 82.94 161.74 82.57 165.08L72.93 165.08C71.74 165.08 70.59 165.56 69.75 166.4C68.91 167.24 68.43 168.39 68.43 169.58L68.43 188.05C68.42 223.73 74.24 259.18 85.66 292.98L91.72 310.96L83.97 310.96C82.78 310.96 81.63 311.43 80.79 312.28C79.95 313.12 79.47 314.27 79.47 315.46L79.47 343.22C79.47 344.42 79.95 345.56 80.79 346.41C81.63 347.25 82.78 347.72 83.97 347.72L225.54 347.72C226.73 347.72 227.88 347.25 228.72 346.41C229.57 345.56 230.04 344.42 230.04 343.22L230.04 315.46C230.04 314.27 229.57 313.12 228.72 312.28C227.88 311.44 226.73 310.96 225.54 310.96L217.79 310.96L223.86 292.98C235.27 259.18 241.09 223.73 241.08 188.05L241.08 169.58C241.08 168.39 240.61 167.24 239.76 166.4C238.92 165.56 237.77 165.08 236.58 165.08L226.94 165.08C226.58 161.74 225.99 158.42 225.18 155.15C223.65 148.3 222.08 141.21 224.54 135.97C226.16 132.53 231.32 129.81 236.78 126.92C242.94 123.66 249.93 119.97 253.92 113.9C257.26 108.81 257.72 101.98 258.17 95.38C258.62 88.78 259.08 81.96 262.39 78.14C265.04 75.09 270.85 73.8 276.99 72.44C284.04 70.88 291.34 69.27 296.6 64.55C301.26 60.37 303.45 53.75 305.56 47.36C306.45 44.51 307.48 41.7 308.65 38.95C309.38 37.34 309.65 35.57 309.46 33.81C309.26 32.06 308.6 30.39 307.53 28.98ZM210.28 10.24C210.41 12.24 210.67 14.24 210.93 16.19C211.44 19.97 211.96 23.88 211.04 26.12C209.89 28.93 206.51 31.61 203.23 34.2C198.87 37.66 194.36 41.23 192.94 46.48C191.33 52.48 193.76 58.5 195.91 63.81C197.31 67.28 198.76 70.86 198.46 73.18C198.34 73.96 198.13 74.73 197.84 75.45C186.16 86.5 175.57 98.63 166.21 111.69C162.02 117.5 158.21 123.23 154.76 128.78C154.42 128.23 154.05 127.66 153.7 127.1C154.13 118.34 155.11 109.61 156.63 100.97C163.85 60.46 181.9 29.95 210.28 10.24ZM111.05 73.18C110.75 70.86 112.2 67.28 113.61 63.81C115.75 58.5 118.18 52.49 116.57 46.48C115.16 41.23 110.64 37.66 106.28 34.2C103.01 31.61 99.62 28.93 98.47 26.12C97.55 23.88 98.08 19.97 98.58 16.19C98.84 14.24 99.11 12.24 99.23 10.24C124.52 27.8 141.6 53.95 150.13 88.11C149.25 91.8 148.46 95.56 147.77 99.39C146.81 104.78 146.11 109.98 145.59 114.93C144.84 113.85 144.08 112.77 143.3 111.69C133.94 98.63 123.35 86.5 111.68 75.45C111.38 74.73 111.17 73.96 111.05 73.18ZM93.11 132.13C90.21 125.98 83.46 122.41 76.94 118.97C71.48 116.08 65.83 113.1 63.12 108.96C61.07 105.84 60.71 100.46 60.32 94.77C59.8 87.07 59.21 78.35 53.92 72.24C49.32 66.94 41.77 65.27 34.46 63.66C28.54 62.35 22.43 60.99 18.92 57.85C16.04 55.27 14.32 50.06 12.49 44.53C11.51 41.38 10.37 38.29 9.07 35.25C9.01 35.12 8.98 34.97 9 34.82C9.02 34.67 9.08 34.52 9.17 34.4C9.26 34.28 9.38 34.19 9.52 34.13C9.66 34.08 9.81 34.06 9.96 34.08C36.89 38.02 62.19 48.45 85.18 65.07C103.66 78.44 120.71 95.82 135.85 116.75C146.78 131.95 156.27 148.13 164.2 165.08L91.62 165.08C91.98 162.4 92.48 159.74 93.12 157.11C94.89 149.16 96.89 140.16 93.11 132.13ZM221.04 338.72L88.47 338.72L88.47 319.96L221.04 319.96L221.04 338.72ZM232.08 188.05C232.09 222.75 226.43 257.23 215.33 290.11L208.29 310.96L101.22 310.96L94.19 290.11C83.08 257.23 77.42 222.75 77.43 188.05L77.43 174.08L232.08 174.08L232.08 188.05ZM300.45 35.25C299.14 38.29 298 41.38 297.02 44.53C295.2 50.06 293.47 55.27 290.6 57.85C287.09 60.99 280.97 62.35 275.05 63.66C267.74 65.27 260.19 66.94 255.59 72.24C250.3 78.35 249.71 87.07 249.19 94.77C248.8 100.46 248.44 105.84 246.39 108.96C243.68 113.1 238.03 116.08 232.57 118.97C226.05 122.41 219.3 125.98 216.4 132.13C212.62 140.16 214.63 149.16 216.4 157.11C217.03 159.74 217.53 162.4 217.89 165.08L174.15 165.08C170.7 157.42 166.02 147.94 159.99 137.51C164.01 130.82 168.54 123.82 173.66 116.75C188.8 95.82 205.85 78.43 224.34 65.07C247.32 48.45 272.63 38.02 299.55 34.08C299.7 34.06 299.85 34.07 299.99 34.13C300.13 34.19 300.26 34.28 300.35 34.4C300.44 34.52 300.49 34.67 300.51 34.81C300.53 34.96 300.51 35.12 300.45 35.25Z" fill="#FFFFFF" fill-opacity="1.000000" fill-rule="nonzero"/>
</svg>
