<svg width="126.000000" height="126.000000" viewBox="0 0 126 126" fill="none" xmlns="http://www.w3.org/2000/svg" xmlns:xlink="http://www.w3.org/1999/xlink">
	<desc>
			Created with Pixso.
	</desc>
	<defs>
		<clipPath id="clip301_1620">
			<rect id="Bamboo 257" rx="-0.500000" width="125.000000" height="125.000000" transform="translate(0.500000 0.500000)" fill="white" fill-opacity="0"/>
		</clipPath>
	</defs>
	<rect id="Bamboo 257" rx="-0.500000" width="125.000000" height="125.000000" transform="translate(0.500000 0.500000)" fill="#337A5B" fill-opacity="0"/>
	<g clip-path="url(#clip301_1620)">
		<path id="Vector" d="M99.1 44.37C99.03 44.24 98.94 44.13 98.82 44.04C98.71 43.95 98.57 43.88 98.43 43.84C95.24 42.95 91.49 43.5 88.15 45.35C86.14 46.44 84.41 47.97 83.08 49.83L83.06 49.71C82.04 45.14 82.04 43.41 83.06 38.83L83.82 35.4C83.85 35.24 83.85 35.07 83.82 34.91C83.78 34.75 83.7 34.6 83.6 34.47C83.5 34.34 83.37 34.23 83.22 34.16C83.07 34.09 82.9 34.05 82.74 34.05L68.96 34.05C68.79 34.05 68.63 34.09 68.48 34.16C68.33 34.23 68.2 34.34 68.09 34.47C67.99 34.6 67.91 34.75 67.88 34.91C67.84 35.07 67.84 35.24 67.87 35.4L68.63 38.83C69.65 43.41 69.65 45.14 68.63 49.71L67.87 53.15C67.87 53.16 67.87 53.18 67.87 53.2C67.86 53.22 67.86 53.24 67.86 53.26C67.85 53.28 67.85 53.3 67.85 53.32C67.85 53.34 67.85 53.36 67.85 53.38C67.85 53.41 67.85 53.43 67.85 53.45C67.85 53.47 67.85 53.49 67.86 53.51C67.86 53.53 67.86 53.55 67.87 53.57C67.87 53.59 67.87 53.61 67.87 53.62L68.63 57.06C69.65 61.63 69.65 63.36 68.63 67.94L68.07 70.5L58.18 70.5L57.62 67.94C56.6 63.36 56.6 61.63 57.62 57.06L58.38 53.62C58.38 53.61 58.38 53.59 58.39 53.57C58.39 53.55 58.39 53.53 58.4 53.51C58.4 53.49 58.4 53.47 58.4 53.45C58.4 53.43 58.4 53.41 58.4 53.38C58.4 53.36 58.4 53.34 58.4 53.32C58.4 53.3 58.4 53.28 58.4 53.26C58.39 53.24 58.39 53.22 58.39 53.2C58.38 53.18 58.38 53.16 58.38 53.15L57.62 49.71C56.6 45.14 56.6 43.41 57.62 38.83L58.38 35.4C58.38 35.38 58.38 35.36 58.39 35.35C58.39 35.32 58.39 35.3 58.4 35.28C58.4 35.26 58.4 35.24 58.4 35.22C58.4 35.2 58.4 35.18 58.4 35.16C58.4 35.14 58.4 35.12 58.4 35.1C58.4 35.08 58.4 35.06 58.4 35.04C58.39 35.02 58.39 35 58.39 34.97C58.38 34.96 58.38 34.94 58.38 34.92L57.62 31.49C56.6 26.91 56.6 25.18 57.62 20.61L58.38 17.17C58.41 17.01 58.41 16.85 58.37 16.68C58.34 16.52 58.26 16.37 58.16 16.24C58.06 16.11 57.92 16.01 57.78 15.94C57.63 15.87 57.46 15.83 57.3 15.83L43.51 15.83C43.35 15.83 43.19 15.87 43.04 15.94C42.89 16.01 42.75 16.11 42.65 16.24C42.55 16.37 42.47 16.52 42.44 16.68C42.4 16.85 42.4 17.01 42.43 17.17L43.19 20.61C44.21 25.18 44.21 26.91 43.19 31.49L43.15 31.68C41.8 29.65 39.98 27.98 37.84 26.82C34.5 24.97 30.75 24.43 27.56 25.32C27.42 25.36 27.28 25.43 27.17 25.52C27.05 25.61 26.96 25.72 26.89 25.85C26.82 25.98 26.77 26.12 26.76 26.26C26.74 26.41 26.75 26.56 26.79 26.7C27.73 29.88 30.19 32.76 33.53 34.61C35.71 35.84 38.16 36.5 40.66 36.53C41.33 36.53 41.99 36.47 42.65 36.36L43.19 38.83C44.21 43.41 44.21 45.14 43.19 49.71L42.43 53.15C42.43 53.16 42.43 53.18 42.42 53.2C42.42 53.22 42.42 53.24 42.41 53.26C42.41 53.28 42.41 53.3 42.41 53.32C42.41 53.34 42.41 53.36 42.41 53.38C42.41 53.41 42.41 53.43 42.41 53.45C42.41 53.47 42.41 53.49 42.41 53.51C42.42 53.53 42.42 53.55 42.42 53.57C42.43 53.59 42.43 53.61 42.43 53.62L43.19 57.06C44.21 61.63 44.21 63.36 43.19 67.94L42.51 71.02C36.76 75.08 33.6 80.46 33.6 86.21C33.6 92.22 37.02 97.79 43.24 101.9C43.68 102.19 44 102.62 44.13 103.13C44.27 103.64 44.21 104.18 43.97 104.64L41.94 108.54C41.85 108.71 41.81 108.9 41.82 109.09C41.82 109.28 41.88 109.47 41.98 109.63C42.08 109.79 42.22 109.93 42.38 110.02C42.55 110.11 42.73 110.16 42.93 110.16L83.51 110.16C83.7 110.16 83.88 110.11 84.05 110.02C84.22 109.93 84.35 109.79 84.45 109.63C84.55 109.47 84.61 109.28 84.61 109.09C84.62 108.9 84.58 108.71 84.49 108.54L82.46 104.64C82.22 104.18 82.16 103.64 82.3 103.13C82.43 102.62 82.75 102.19 83.19 101.9C89.41 97.79 92.83 92.22 92.83 86.21C92.83 80.39 89.59 74.95 83.71 70.87L83.06 67.94C82.04 63.36 82.04 61.63 83.06 57.06L83.53 54.92C84.12 55.01 84.72 55.05 85.33 55.06C87.83 55.02 90.28 54.36 92.46 53.13C95.8 51.28 98.26 48.4 99.2 45.22C99.24 45.08 99.25 44.93 99.23 44.79C99.22 44.64 99.17 44.5 99.1 44.37ZM70.8 38.35L70.34 36.27L81.36 36.27L80.9 38.35C79.82 43.22 79.82 45.32 80.9 50.19L81.36 52.28L70.33 52.28L70.8 50.19C71.88 45.32 71.88 43.22 70.8 38.35ZM70.8 56.58L70.34 54.49L81.36 54.49L80.9 56.58C79.82 61.45 79.82 63.55 80.9 68.42L81.36 70.5L70.33 70.5L70.8 68.42C71.88 63.55 71.88 61.45 70.8 56.58ZM45.36 56.58L44.89 54.49L55.92 54.49L55.45 56.58C54.38 61.45 54.38 63.55 55.45 68.42L55.92 70.5L44.89 70.5L45.36 68.42C46.44 63.55 46.44 61.45 45.36 56.58ZM45.36 38.35L44.89 36.27L55.92 36.27L55.45 38.35C54.38 43.22 54.38 45.32 55.45 50.19L55.92 52.28L44.89 52.28L45.36 50.19C46.44 45.32 46.44 43.22 45.36 38.35ZM45.36 20.13L44.89 18.04L55.92 18.04L55.45 20.13C54.38 25 54.38 27.1 55.45 31.97L55.92 34.05L44.89 34.05L45.36 31.97C46.44 27.1 46.44 25 45.36 20.13ZM34.6 32.67C32.18 31.33 30.32 29.38 29.34 27.21C31.7 26.88 34.34 27.42 36.77 28.76C39.19 30.1 41.05 32.05 42.03 34.23C39.67 34.55 37.03 34.01 34.6 32.67ZM90.62 86.21C90.62 91.45 87.55 96.36 81.97 100.05C81.07 100.64 80.43 101.54 80.15 102.57C79.88 103.61 80 104.71 80.5 105.66L81.68 107.95L44.75 107.95L45.94 105.66C46.43 104.71 46.55 103.61 46.28 102.57C46.01 101.54 45.36 100.64 44.46 100.05C38.88 96.36 35.81 91.45 35.81 86.21C35.81 81.15 38.7 76.36 43.95 72.72L82.48 72.72C87.73 76.36 90.62 81.15 90.62 86.21ZM91.39 51.2C88.96 52.53 86.32 53.08 83.96 52.75C84.94 50.57 86.8 48.62 89.22 47.28C91.65 45.94 94.29 45.4 96.65 45.73C95.67 47.91 93.81 49.86 91.39 51.2Z" fill="#285A43" fill-opacity="1.000000" fill-rule="nonzero"/>
		<path id="Vector" d="M99.74 43.55Q99.61 43.39 99.44 43.26Q99.27 43.12 99.09 43.03Q98.9 42.94 98.7 42.88Q97.2 42.46 95.68 42.39Q91.73 42.22 87.67 44.47Q86.07 45.34 84.75 46.5Q84.19 46.99 83.68 47.53Q83.45 45.9 83.45 44.27Q83.46 41.66 84.03 39.05L84.79 35.62Q84.85 35.38 84.84 35.15Q84.84 34.91 84.79 34.68Q84.73 34.45 84.63 34.24Q84.53 34.03 84.38 33.84Q84.23 33.65 84.05 33.51Q83.86 33.36 83.65 33.26Q83.43 33.16 83.2 33.1Q82.98 33.05 82.74 33.05L68.96 33.05Q68.72 33.05 68.49 33.1Q68.26 33.16 68.04 33.26Q67.83 33.36 67.64 33.51Q67.46 33.65 67.31 33.84Q67.16 34.03 67.06 34.24Q66.96 34.45 66.9 34.68Q66.85 34.91 66.85 35.15Q66.85 35.38 66.9 35.62L67.66 39.05Q68.24 41.66 68.24 44.27Q68.24 46.89 67.66 49.5L66.9 52.93Q66.89 52.98 66.88 53.04L66.88 53.04L66.88 53.04Q66.87 53.1 66.86 53.15Q66.86 53.2 66.85 53.26Q66.85 53.27 66.85 53.27L66.85 53.28Q66.85 53.34 66.85 53.38Q66.85 53.43 66.85 53.5Q66.85 53.5 66.85 53.5L66.85 53.51Q66.86 53.57 66.86 53.62Q66.87 53.67 66.88 53.73Q66.88 53.73 66.88 53.73Q66.89 53.79 66.9 53.84L67.66 57.27Q68.24 59.88 68.24 62.5Q68.24 65.11 67.66 67.72L67.26 69.5L58.99 69.5L58.59 67.72Q58.01 65.11 58.01 62.5Q58.01 59.88 58.59 57.27L59.35 53.84Q59.36 53.79 59.37 53.73L59.37 53.73L59.37 53.73Q59.38 53.67 59.39 53.62Q59.4 53.57 59.4 53.51Q59.4 53.5 59.4 53.5L59.4 53.49Q59.4 53.43 59.4 53.38Q59.4 53.34 59.4 53.27Q59.4 53.27 59.4 53.27L59.4 53.26Q59.4 53.2 59.39 53.15Q59.38 53.1 59.37 53.04L59.37 53.04L59.37 53.04Q59.36 52.98 59.36 52.94L58.59 49.5Q58.01 46.89 58.01 44.27Q58.01 41.66 58.59 39.05L59.35 35.62Q59.36 35.57 59.37 35.51L59.37 35.51L59.37 35.51Q59.38 35.44 59.39 35.4Q59.4 35.35 59.4 35.28Q59.4 35.28 59.4 35.28L59.4 35.27Q59.4 35.21 59.4 35.16Q59.4 35.11 59.4 35.05Q59.4 35.04 59.4 35.04L59.4 35.04Q59.4 34.97 59.39 34.92Q59.38 34.88 59.37 34.81L59.37 34.81L59.37 34.81Q59.36 34.75 59.36 34.71L58.59 31.27Q58.01 28.66 58.01 26.05Q58.01 23.43 58.59 20.82L59.35 17.39Q59.41 17.16 59.4 16.92Q59.4 16.69 59.35 16.46Q59.29 16.22 59.19 16.01Q59.09 15.8 58.94 15.62Q58.79 15.43 58.61 15.28Q58.42 15.14 58.21 15.04Q57.99 14.93 57.76 14.88Q57.54 14.83 57.3 14.83L43.51 14.83Q43.28 14.83 43.05 14.88Q42.82 14.93 42.6 15.04Q42.39 15.14 42.2 15.28Q42.02 15.43 41.87 15.62Q41.72 15.8 41.62 16.01Q41.52 16.22 41.46 16.46Q41.41 16.69 41.41 16.92Q41.41 17.16 41.46 17.39L42.22 20.82Q42.8 23.44 42.8 26.05Q42.8 27.67 42.57 29.3Q42.05 28.71 41.47 28.18Q40.06 26.89 38.32 25.94Q34.27 23.71 30.33 23.87Q28.8 23.93 27.29 24.36Q27.09 24.41 26.9 24.51Q26.72 24.6 26.55 24.73Q26.38 24.86 26.25 25.02Q26.11 25.18 26.01 25.36Q25.91 25.55 25.85 25.75Q25.78 25.95 25.76 26.16Q25.74 26.37 25.76 26.57Q25.78 26.78 25.84 26.98Q26.28 28.48 27.03 29.8Q28.99 33.24 33.05 35.48Q34.78 36.47 36.65 36.98Q38.58 37.51 40.65 37.53Q41.27 37.53 41.87 37.47L42.22 39.05Q42.8 41.66 42.8 44.27Q42.8 46.89 42.22 49.5L41.46 52.93Q41.45 52.98 41.44 53.04L41.44 53.04L41.44 53.04Q41.43 53.1 41.42 53.15Q41.42 53.2 41.41 53.26Q41.41 53.27 41.41 53.27L41.41 53.27Q41.41 53.34 41.41 53.38Q41.41 53.43 41.41 53.49Q41.41 53.5 41.41 53.5L41.41 53.51Q41.42 53.57 41.42 53.62Q41.43 53.67 41.44 53.73Q41.44 53.73 41.44 53.73L41.44 53.73Q41.45 53.79 41.46 53.84L42.22 57.27Q42.8 59.88 42.8 62.5Q42.8 65.11 42.22 67.72L41.62 70.43Q35.17 75.1 33.33 81.16Q32.6 83.57 32.6 86.21Q32.6 88.97 33.39 91.47Q35.42 97.93 42.69 102.73Q42.89 102.86 43.01 103.04Q43.12 103.2 43.17 103.39Q43.22 103.6 43.2 103.79Q43.18 103.99 43.08 104.18L41.06 108.08Q40.93 108.33 40.87 108.59Q40.81 108.85 40.82 109.13Q40.83 109.4 40.9 109.66Q40.98 109.91 41.12 110.15Q41.27 110.38 41.46 110.57Q41.65 110.76 41.89 110.89Q42.13 111.03 42.39 111.09Q42.65 111.16 42.93 111.16L83.51 111.16Q83.78 111.16 84.04 111.09Q84.3 111.03 84.54 110.89Q84.78 110.76 84.97 110.57Q85.17 110.38 85.31 110.15Q85.45 109.91 85.53 109.66Q85.6 109.4 85.61 109.13Q85.62 108.85 85.56 108.59Q85.5 108.33 85.38 108.08L83.35 104.18Q83.26 104 83.23 103.81Q83.21 103.6 83.26 103.39Q83.32 103.18 83.44 103.02Q83.56 102.86 83.74 102.74Q91.02 97.92 93.05 91.46Q93.83 88.96 93.83 86.21Q93.83 83.55 93.09 81.11Q91.21 74.97 84.6 70.28L84.03 67.72Q83.45 65.11 83.45 62.5Q83.45 59.88 84.03 57.27L84.31 56.02Q84.33 56.02 84.35 56.02Q84.84 56.06 85.32 56.06Q87.42 56.03 89.38 55.49Q91.23 54.98 92.95 54Q96.99 51.77 98.95 48.34Q99.71 47.01 100.16 45.51Q100.22 45.3 100.23 45.1Q100.25 44.89 100.23 44.68Q100.21 44.47 100.14 44.27Q100.08 44.07 99.98 43.89Q99.88 43.71 99.74 43.55ZM83.53 54.92C84.12 55.01 84.72 55.05 85.33 55.06C87.83 55.02 90.28 54.36 92.46 53.13C95.8 51.28 98.26 48.4 99.2 45.22C99.24 45.08 99.25 44.93 99.23 44.79C99.22 44.64 99.17 44.5 99.1 44.37C99.03 44.24 98.94 44.13 98.82 44.04C98.71 43.95 98.57 43.88 98.43 43.84C95.24 42.95 91.49 43.5 88.15 45.35C86.53 46.23 85.08 47.4 83.89 48.8C83.61 49.13 83.34 49.48 83.08 49.83L83.06 49.71C82.97 49.3 82.88 48.91 82.81 48.54C82.05 44.8 82.13 42.99 83.06 38.83L83.82 35.4C83.85 35.24 83.85 35.07 83.82 34.91C83.78 34.75 83.7 34.6 83.6 34.47C83.5 34.34 83.37 34.23 83.22 34.16C83.07 34.09 82.9 34.05 82.74 34.05L68.96 34.05C68.79 34.05 68.63 34.09 68.48 34.16C68.33 34.23 68.2 34.34 68.09 34.47C67.99 34.6 67.91 34.75 67.88 34.91C67.84 35.07 67.84 35.24 67.87 35.4L68.63 38.83C69.65 43.41 69.65 45.14 68.63 49.71L67.87 53.15C67.87 53.16 67.87 53.18 67.87 53.2C67.86 53.22 67.86 53.24 67.86 53.26C67.85 53.28 67.85 53.3 67.85 53.32C67.85 53.34 67.85 53.36 67.85 53.38C67.85 53.41 67.85 53.43 67.85 53.45C67.85 53.47 67.85 53.49 67.86 53.51C67.86 53.53 67.86 53.55 67.87 53.57C67.87 53.59 67.87 53.61 67.87 53.62L68.63 57.06C69.65 61.63 69.65 63.36 68.63 67.94L68.07 70.5L58.18 70.5L57.62 67.94C56.6 63.36 56.6 61.63 57.62 57.06L58.38 53.62C58.38 53.61 58.38 53.59 58.39 53.57C58.39 53.55 58.39 53.53 58.4 53.51C58.4 53.49 58.4 53.47 58.4 53.45C58.4 53.43 58.4 53.41 58.4 53.38C58.4 53.36 58.4 53.34 58.4 53.32C58.4 53.3 58.4 53.28 58.4 53.26C58.39 53.24 58.39 53.22 58.39 53.2C58.38 53.18 58.38 53.16 58.38 53.15L57.62 49.71C56.6 45.14 56.6 43.41 57.62 38.83L58.38 35.4C58.38 35.38 58.38 35.36 58.39 35.35C58.39 35.32 58.39 35.3 58.4 35.28C58.4 35.26 58.4 35.24 58.4 35.22C58.4 35.2 58.4 35.18 58.4 35.16C58.4 35.14 58.4 35.12 58.4 35.1C58.4 35.08 58.4 35.06 58.4 35.04C58.39 35.02 58.39 35 58.39 34.97C58.38 34.96 58.38 34.94 58.38 34.92L57.62 31.49C56.6 26.91 56.6 25.18 57.62 20.61L58.38 17.17C58.41 17.01 58.41 16.85 58.37 16.68C58.34 16.52 58.26 16.37 58.16 16.24C58.06 16.11 57.92 16.01 57.78 15.94C57.63 15.87 57.46 15.83 57.3 15.83L43.51 15.83C43.35 15.83 43.19 15.87 43.04 15.94C42.89 16.01 42.75 16.11 42.65 16.24C42.55 16.37 42.47 16.52 42.44 16.68C42.4 16.85 42.4 17.01 42.43 17.17L43.19 20.61C44.12 24.78 44.2 26.59 43.44 30.35C43.36 30.71 43.28 31.09 43.19 31.49L43.15 31.68C42.9 31.31 42.64 30.94 42.36 30.6C41.12 29.05 39.59 27.77 37.84 26.82C34.5 24.97 30.75 24.43 27.56 25.32C27.42 25.36 27.28 25.43 27.17 25.52C27.05 25.61 26.96 25.72 26.89 25.85C26.82 25.98 26.77 26.12 26.76 26.26C26.74 26.41 26.75 26.56 26.79 26.7C27.73 29.88 30.19 32.76 33.53 34.61C35.71 35.84 38.16 36.5 40.66 36.53C41.33 36.53 41.99 36.47 42.65 36.36L43.19 38.83C44.21 43.41 44.21 45.14 43.19 49.71L42.43 53.15C42.43 53.16 42.43 53.18 42.42 53.2C42.42 53.22 42.42 53.24 42.41 53.26C42.41 53.28 42.41 53.3 42.41 53.32C42.41 53.34 42.41 53.36 42.41 53.38C42.41 53.41 42.41 53.43 42.41 53.45C42.41 53.47 42.41 53.49 42.41 53.51C42.42 53.53 42.42 53.55 42.42 53.57C42.43 53.59 42.43 53.61 42.43 53.62L43.19 57.06C44.21 61.63 44.21 63.36 43.19 67.94L42.51 71.02C36.76 75.08 33.6 80.46 33.6 86.21C33.6 92.22 37.02 97.79 43.24 101.9C43.68 102.19 44 102.62 44.13 103.13C44.27 103.64 44.21 104.18 43.97 104.64L41.94 108.54C41.85 108.71 41.81 108.9 41.82 109.09C41.82 109.28 41.88 109.47 41.98 109.63C42.08 109.79 42.22 109.93 42.38 110.02C42.55 110.11 42.73 110.16 42.93 110.16L83.51 110.16C83.7 110.16 83.88 110.11 84.05 110.02C84.22 109.93 84.35 109.79 84.45 109.63C84.55 109.47 84.61 109.28 84.61 109.09C84.62 108.9 84.58 108.71 84.49 108.54L82.46 104.64C82.22 104.18 82.16 103.64 82.3 103.13C82.43 102.62 82.75 102.19 83.19 101.9C89.41 97.79 92.83 92.22 92.83 86.21C92.83 80.39 89.59 74.95 83.71 70.87L83.06 67.94C82.04 63.36 82.04 61.63 83.06 57.06L83.53 54.92ZM45.12 19.04L45.36 20.13C46.44 25 46.44 27.1 45.36 31.97L45.12 33.05L44.89 34.05L55.92 34.05L55.69 33.05L55.45 31.97C54.38 27.1 54.38 25 55.45 20.13L55.69 19.04L55.92 18.04L44.89 18.04L45.12 19.04ZM46.14 19.04L46.33 19.91Q47.01 22.98 47.01 26.04Q47.01 29.11 46.33 32.18L46.14 33.05L54.67 33.05L54.48 32.18Q53.8 29.12 53.8 26.05Q53.8 22.98 54.48 19.91L54.67 19.04L46.14 19.04ZM29.83 28.15C30.88 29.94 32.54 31.53 34.6 32.67C36.67 33.81 38.89 34.38 40.97 34.31C41.33 34.3 41.68 34.27 42.03 34.23C41.89 33.9 41.72 33.59 41.54 33.28C40.49 31.49 38.83 29.9 36.77 28.76C34.7 27.62 32.48 27.05 30.4 27.12C30.04 27.13 29.69 27.16 29.34 27.21C29.48 27.53 29.65 27.84 29.83 28.15ZM30.97 28.1Q32.4 30.31 35.09 31.8Q37.77 33.28 40.4 33.33Q38.97 31.12 36.28 29.64Q33.6 28.15 30.97 28.1ZM45.12 37.27L45.36 38.35C46.44 43.22 46.44 45.32 45.36 50.19L45.12 51.28L44.89 52.28L55.92 52.28L55.69 51.28L55.45 50.19C54.38 45.32 54.38 43.22 55.45 38.35L55.69 37.27L55.92 36.27L44.89 36.27L45.12 37.27ZM46.14 37.27L46.33 38.14Q47.01 41.2 47.01 44.27Q47.01 47.34 46.33 50.41L46.14 51.28L54.67 51.28L54.48 50.41Q53.8 47.34 53.8 44.27Q53.8 41.2 54.48 38.14L54.67 37.27L46.14 37.27ZM70.56 37.27L70.8 38.35C71.88 43.22 71.88 45.32 70.8 50.19L70.56 51.28L70.33 52.28L81.36 52.28L81.14 51.28L80.9 50.19C79.82 45.32 79.82 43.22 80.9 38.35L81.14 37.27L81.36 36.27L70.34 36.27L70.56 37.27ZM71.58 37.27L71.77 38.14Q72.45 41.2 72.45 44.27Q72.45 47.34 71.77 50.41L71.58 51.28L80.11 51.28L79.92 50.41Q79.24 47.34 79.24 44.27Q79.24 41.2 79.92 38.14L80.11 37.27L71.58 37.27ZM85.02 52.84C84.66 52.83 84.31 52.8 83.96 52.75C84.1 52.43 84.27 52.11 84.45 51.8C85.5 50.01 87.16 48.43 89.22 47.28C91.29 46.14 93.51 45.58 95.59 45.64C95.95 45.65 96.3 45.68 96.65 45.73C96.51 46.05 96.34 46.37 96.16 46.68C95.11 48.47 93.45 50.05 91.39 51.2C89.32 52.34 87.1 52.9 85.02 52.84ZM85.59 51.85Q88.22 51.81 90.9 50.32Q93.59 48.83 95.02 46.63Q92.39 46.67 89.71 48.16Q87.02 49.64 85.59 51.85ZM45.12 55.49L45.36 56.58C46.44 61.45 46.44 63.55 45.36 68.42L45.12 69.5L44.89 70.5L55.92 70.5L55.69 69.5L55.45 68.42C54.38 63.55 54.38 61.45 55.45 56.58L55.69 55.49L55.92 54.49L44.89 54.49L45.12 55.49ZM46.14 55.49L46.33 56.36Q47.01 59.43 47.01 62.49Q47.01 65.56 46.33 68.63L46.14 69.5L54.67 69.5L54.48 68.63Q53.8 65.57 53.8 62.5Q53.8 59.43 54.48 56.36L54.67 55.49L46.14 55.49ZM70.56 55.49L70.8 56.58C71.88 61.45 71.88 63.55 70.8 68.42L70.56 69.5L70.33 70.5L81.36 70.5L81.14 69.5L80.9 68.42C79.82 63.55 79.82 61.45 80.9 56.58L81.14 55.49L81.36 54.49L70.34 54.49L70.56 55.49ZM71.58 55.49L71.77 56.36Q72.45 59.43 72.45 62.49Q72.45 65.56 71.77 68.63L71.58 69.5L80.11 69.5L79.92 68.63Q79.24 65.57 79.24 62.5Q79.24 59.43 79.92 56.36L80.11 55.49L71.58 55.49ZM90.62 86.21C90.62 91.45 87.55 96.36 81.97 100.05C81.07 100.64 80.43 101.54 80.15 102.57C79.88 103.61 80 104.71 80.5 105.66L81.16 106.95L81.68 107.95L44.75 107.95L45.27 106.95L45.94 105.66C46.43 104.71 46.55 103.61 46.28 102.57C46.01 101.54 45.36 100.64 44.46 100.05C38.88 96.36 35.81 91.45 35.81 86.21C35.81 81.15 38.7 76.36 43.95 72.72L82.48 72.72C87.73 76.36 90.62 81.15 90.62 86.21ZM82.17 73.72Q87.9 77.79 89.22 82.99Q89.62 84.55 89.62 86.21Q89.62 87.94 89.19 89.56Q87.75 95.03 81.42 99.22Q81.42 99.22 81.42 99.22Q80.56 99.78 80.01 100.55Q79.45 101.33 79.19 102.32Q78.93 103.31 79.03 104.26Q79.14 105.21 79.61 106.12L80.04 106.95L46.4 106.95L46.82 106.12Q47.3 105.21 47.4 104.26Q47.51 103.31 47.25 102.32Q46.99 101.33 46.43 100.55Q45.87 99.78 45.01 99.22Q38.69 95.03 37.24 89.56Q36.81 87.94 36.81 86.21Q36.81 84.55 37.21 82.99Q38.53 77.79 44.27 73.72L82.17 73.72Z" fill="#285A43" fill-opacity="1.000000" fill-rule="evenodd"/>
		<path id="Vector" d="M76.46 101.5L49.98 101.5C49.68 101.5 49.4 101.62 49.19 101.82C48.99 102.03 48.87 102.31 48.87 102.61C48.87 102.9 48.99 103.18 49.19 103.39C49.4 103.6 49.68 103.71 49.98 103.71L76.46 103.71C76.75 103.71 77.03 103.6 77.24 103.39C77.45 103.18 77.56 102.9 77.56 102.61C77.56 102.31 77.45 102.03 77.24 101.82C77.03 101.62 76.75 101.5 76.46 101.5Z" fill="#285A43" fill-opacity="1.000000" fill-rule="nonzero"/>
		<path id="Vector" d="M76.46 100.5L49.98 100.5Q49.77 100.5 49.57 100.54Q49.36 100.58 49.17 100.66Q48.98 100.74 48.81 100.85Q48.63 100.97 48.49 101.12Q48.34 101.26 48.22 101.44Q48.11 101.61 48.03 101.8Q47.95 101.99 47.91 102.19Q47.87 102.4 47.87 102.61Q47.87 102.82 47.91 103.02Q47.95 103.22 48.03 103.41Q48.11 103.61 48.22 103.78Q48.34 103.95 48.49 104.1Q48.63 104.24 48.81 104.36Q48.98 104.47 49.17 104.55Q49.36 104.63 49.57 104.67Q49.77 104.71 49.98 104.71L76.46 104.71Q76.67 104.71 76.87 104.67Q77.07 104.63 77.26 104.55Q77.46 104.47 77.63 104.36Q77.8 104.24 77.95 104.1Q78.09 103.95 78.21 103.78Q78.32 103.61 78.4 103.41Q78.48 103.22 78.52 103.02Q78.56 102.82 78.56 102.61Q78.56 102.4 78.52 102.19Q78.48 101.99 78.4 101.8Q78.32 101.61 78.21 101.43Q78.09 101.26 77.95 101.12Q77.8 100.97 77.63 100.85Q77.46 100.74 77.26 100.66Q77.07 100.58 76.87 100.54Q76.67 100.5 76.46 100.5ZM49.98 101.5L76.46 101.5C76.75 101.5 77.03 101.62 77.24 101.82C77.45 102.03 77.56 102.31 77.56 102.61C77.56 102.9 77.45 103.18 77.24 103.39C77.03 103.6 76.75 103.71 76.46 103.71L49.98 103.71C49.68 103.71 49.4 103.6 49.19 103.39C48.99 103.18 48.87 102.9 48.87 102.61C48.87 102.31 48.99 102.03 49.19 101.82C49.4 101.62 49.68 101.5 49.98 101.5Z" fill="#285A43" fill-opacity="1.000000" fill-rule="evenodd"/>
	</g>
</svg>
