<svg width="32.000000" height="32.000000" viewBox="0 0 32 32" fill="none" xmlns="http://www.w3.org/2000/svg" xmlns:xlink="http://www.w3.org/1999/xlink">
	<desc>
			Created with Pixso.
	</desc>
	<defs>
		<clipPath id="clip301_1907">
			<rect id="uit:facebook-f" rx="0.000000" width="31.000000" height="31.000000" transform="translate(0.500000 0.500000)" fill="white" fill-opacity="0"/>
		</clipPath>
	</defs>
	<rect id="uit:facebook-f" rx="0.000000" width="31.000000" height="31.000000" transform="translate(0.500000 0.500000)" fill="#FFFFFF" fill-opacity="0"/>
	<g clip-path="url(#clip301_1907)">
		<path id="Vector" d="M23.98 2.12C22.64 1.98 21.28 1.91 19.93 1.91C15.45 1.91 12.66 4.77 12.66 9.37L12.66 12.49L8.89 12.49C8.72 12.49 8.55 12.56 8.42 12.68C8.3 12.81 8.23 12.98 8.23 13.16L8.23 18.29C8.23 18.47 8.3 18.64 8.42 18.76C8.55 18.89 8.72 18.96 8.89 18.96L12.66 18.96L12.66 29.25C12.66 29.43 12.73 29.6 12.86 29.72C12.98 29.85 13.15 29.92 13.33 29.92L18.63 29.92C18.81 29.92 18.98 29.85 19.1 29.72C19.23 29.6 19.3 29.43 19.3 29.25L19.3 18.96L23.05 18.96C23.22 18.96 23.37 18.9 23.49 18.79C23.62 18.68 23.69 18.54 23.72 18.38L24.38 13.24C24.39 13.15 24.38 13.05 24.35 12.96C24.33 12.87 24.28 12.79 24.22 12.72C24.16 12.65 24.08 12.59 23.99 12.55C23.91 12.51 23.81 12.49 23.72 12.49L19.3 12.49L19.3 9.88C19.3 8.58 19.56 8.04 21.18 8.04L23.9 8.04C24.07 8.04 24.24 7.97 24.37 7.85C24.49 7.72 24.56 7.55 24.56 7.38L24.56 2.78C24.56 2.62 24.5 2.47 24.4 2.34C24.29 2.22 24.14 2.14 23.98 2.12ZM23.23 6.71L21.18 6.71C18.3 6.71 17.97 8.52 17.97 9.88L17.97 13.16C17.97 13.33 18.04 13.5 18.16 13.63C18.29 13.75 18.45 13.82 18.63 13.82L22.96 13.82L22.47 17.62L18.63 17.62C18.46 17.62 18.29 17.69 18.16 17.82C18.04 17.94 17.97 18.11 17.97 18.29L17.97 28.58L14 28.58L14 18.29C14 18.11 13.92 17.94 13.8 17.82C13.67 17.69 13.51 17.62 13.33 17.62L9.56 17.62L9.56 13.82L13.33 13.82C13.51 13.82 13.67 13.75 13.8 13.63C13.92 13.5 14 13.33 14 13.16L14 9.37C14 5.54 16.21 3.25 19.93 3.25C21.28 3.25 22.49 3.32 23.23 3.39L23.23 6.71Z" fill="#FFFFFF" fill-opacity="1.000000" fill-rule="nonzero"/>
		<path id="Vector" d="M19.93 1.62L19.93 1.62Q18.21 1.62 16.8 2.15Q15.75 2.55 14.92 3.23Q14.65 3.45 14.4 3.71Q14.26 3.85 14.13 4.01Q13.33 4.93 12.89 6.16Q12.36 7.61 12.36 9.37L12.36 12.19L8.89 12.19Q8.8 12.19 8.71 12.21Q8.61 12.23 8.53 12.26Q8.44 12.3 8.36 12.35Q8.28 12.41 8.21 12.47Q8.14 12.54 8.09 12.62Q8.04 12.7 8 12.79Q7.97 12.88 7.95 12.97Q7.93 13.06 7.93 13.16L7.93 18.29Q7.93 18.39 7.95 18.48Q7.97 18.57 8 18.66Q8.04 18.75 8.09 18.83Q8.14 18.91 8.21 18.97Q8.28 19.04 8.36 19.09Q8.44 19.15 8.53 19.18Q8.61 19.22 8.71 19.24Q8.8 19.26 8.89 19.26L12.36 19.26L12.36 29.25Q12.36 29.35 12.38 29.44Q12.4 29.53 12.44 29.62Q12.47 29.71 12.52 29.79Q12.58 29.87 12.64 29.93Q12.71 30 12.79 30.05Q12.87 30.11 12.96 30.14Q13.05 30.18 13.14 30.2Q13.23 30.22 13.33 30.22L18.63 30.22Q18.73 30.22 18.82 30.2Q18.91 30.18 19 30.14Q19.09 30.11 19.17 30.05Q19.25 30 19.32 29.93Q19.38 29.87 19.44 29.79Q19.49 29.71 19.53 29.62Q19.56 29.53 19.58 29.44Q19.6 29.35 19.6 29.25L19.6 19.26L23.05 19.26Q23.24 19.26 23.39 19.2Q23.55 19.14 23.69 19.02Q23.83 18.9 23.91 18.75Q23.99 18.6 24.01 18.42L24.68 13.28Q24.69 13.18 24.68 13.08Q24.67 12.98 24.64 12.88Q24.61 12.78 24.56 12.69Q24.51 12.6 24.44 12.52Q24.37 12.44 24.29 12.38Q24.21 12.32 24.12 12.28Q24.02 12.23 23.92 12.21Q23.82 12.19 23.72 12.19L19.6 12.19L19.6 9.88Q19.6 9.39 19.66 9.11Q19.72 8.83 19.85 8.68Q20 8.52 20.28 8.44Q20.61 8.34 21.18 8.34L23.9 8.34Q23.99 8.34 24.08 8.33Q24.18 8.31 24.26 8.27Q24.35 8.23 24.43 8.18Q24.51 8.13 24.58 8.06Q24.65 7.99 24.7 7.91Q24.75 7.84 24.79 7.75Q24.82 7.66 24.84 7.57Q24.86 7.47 24.86 7.38L24.86 2.78Q24.86 2.6 24.8 2.44Q24.74 2.28 24.62 2.15Q24.5 2.01 24.35 1.93Q24.2 1.85 24.02 1.83L24.02 1.83L24.01 1.82Q23 1.72 21.98 1.66Q20.96 1.61 19.93 1.62ZM19.3 12.19L19.3 9.88C19.3 8.58 19.56 8.04 21.18 8.04L23.9 8.04C24.07 8.04 24.24 7.97 24.37 7.85C24.49 7.72 24.56 7.55 24.56 7.38L24.56 2.78C24.56 2.62 24.5 2.47 24.4 2.34C24.29 2.22 24.14 2.14 23.98 2.12C22.64 1.98 21.28 1.91 19.93 1.91C15.45 1.91 12.66 4.77 12.66 9.37L12.66 12.49L8.89 12.49C8.72 12.49 8.55 12.56 8.42 12.68C8.3 12.81 8.23 12.98 8.23 13.16L8.23 18.29C8.23 18.47 8.3 18.64 8.42 18.76C8.55 18.89 8.72 18.96 8.89 18.96L12.66 18.96L12.66 29.25C12.66 29.43 12.73 29.6 12.86 29.72C12.98 29.85 13.15 29.92 13.33 29.92L18.63 29.92C18.81 29.92 18.98 29.85 19.1 29.72C19.23 29.6 19.3 29.43 19.3 29.25L19.3 18.96L23.05 18.96C23.22 18.96 23.37 18.9 23.49 18.79C23.62 18.68 23.69 18.54 23.72 18.38L24.38 13.24C24.39 13.15 24.38 13.05 24.35 12.96C24.33 12.87 24.28 12.79 24.22 12.72C24.16 12.65 24.08 12.59 23.99 12.55C23.91 12.51 23.81 12.49 23.72 12.49L19.3 12.49L19.3 12.19ZM23.23 6.71L21.18 6.71C18.3 6.71 17.97 8.52 17.97 9.88L17.97 13.16C17.97 13.33 18.04 13.5 18.16 13.63C18.29 13.75 18.45 13.82 18.63 13.82L22.96 13.82L22.92 14.12L22.47 17.62L18.63 17.62C18.46 17.62 18.29 17.69 18.16 17.82C18.04 17.94 17.97 18.11 17.97 18.29L17.97 28.28L17.97 28.58L14 28.58L14 18.29C14 18.11 13.92 17.94 13.8 17.82C13.67 17.69 13.51 17.62 13.33 17.62L9.56 17.62L9.56 13.82L13.33 13.82C13.51 13.82 13.67 13.75 13.8 13.63C13.92 13.5 14 13.33 14 13.16L14 9.37C14 5.54 16.21 3.25 19.93 3.25C21.28 3.25 22.49 3.32 23.23 3.39L23.23 6.71L23.23 6.71ZM22.93 6.41L21.18 6.41L21.17 6.41Q19.38 6.41 18.5 7.31Q18.36 7.45 18.25 7.61Q17.91 8.09 17.77 8.75Q17.67 9.24 17.67 9.88L17.67 13.16Q17.67 13.25 17.68 13.35Q17.7 13.44 17.74 13.53Q17.78 13.62 17.83 13.69Q17.88 13.77 17.95 13.84Q18.02 13.91 18.09 13.96Q18.17 14.01 18.26 14.05Q18.35 14.09 18.44 14.11Q18.53 14.12 18.63 14.12L22.62 14.12L22.2 17.32L18.63 17.32Q18.54 17.32 18.44 17.34Q18.35 17.36 18.26 17.4Q18.17 17.43 18.1 17.49Q18.02 17.54 17.95 17.61Q17.88 17.68 17.83 17.75Q17.78 17.83 17.74 17.92Q17.7 18.01 17.68 18.1Q17.67 18.2 17.67 18.29L17.67 28.28L14.3 28.28L14.3 18.29Q14.3 18.19 14.28 18.1Q14.26 18.01 14.22 17.92Q14.18 17.83 14.13 17.75Q14.08 17.68 14.01 17.61Q13.94 17.54 13.87 17.49Q13.79 17.43 13.7 17.4Q13.61 17.36 13.52 17.34Q13.42 17.32 13.33 17.32L9.86 17.32L9.86 14.12L13.33 14.12Q13.42 14.12 13.52 14.11Q13.61 14.09 13.7 14.05Q13.79 14.01 13.87 13.96Q13.94 13.91 14.01 13.84Q14.08 13.77 14.13 13.69Q14.18 13.62 14.22 13.53Q14.26 13.44 14.28 13.35Q14.3 13.25 14.3 13.16L14.3 9.37Q14.3 7.99 14.68 6.9Q15.04 5.88 15.71 5.16Q15.75 5.12 15.79 5.08Q15.92 4.94 16.07 4.81Q16.71 4.26 17.54 3.95Q18.6 3.55 19.93 3.55Q21.49 3.55 22.93 3.66L22.93 6.41Z" fill="#FFFFFF" fill-opacity="1.000000" fill-rule="evenodd"/>
	</g>
</svg>
