<svg width="312.602997" height="405.729492" viewBox="0 0 312.603 405.729" fill="none" xmlns="http://www.w3.org/2000/svg" xmlns:xlink="http://www.w3.org/1999/xlink">
	<desc>
			Created with Pixso.
	</desc>
	<defs/>
	<path id="Vector" d="M312.46 100.3C312.41 99.32 312.03 98.39 311.39 97.64C310.75 96.9 309.88 96.39 308.92 96.2C300.82 94.63 292.57 93.93 284.32 94.1C284.21 94.12 284.09 94.11 283.98 94.08C283.87 94.05 283.77 94 283.68 93.93C283.59 93.85 283.51 93.77 283.46 93.67C283.4 93.57 283.36 93.45 283.35 93.34C283.32 93.24 283.3 93.13 283.31 93.02C283.32 92.91 283.35 92.8 283.4 92.71C283.45 92.61 283.52 92.52 283.6 92.46C283.69 92.39 283.79 92.33 283.89 92.3C290.93 89.19 298.3 86.91 305.87 85.5C306.47 85.4 307.03 85.17 307.54 84.83C308.04 84.5 308.48 84.06 308.8 83.55C309.13 83.04 309.35 82.46 309.45 81.86C309.54 81.26 309.52 80.65 309.37 80.06C306.46 68.7 301.69 57.89 295.25 48.09C295.17 47.97 295.08 47.85 294.99 47.73L293.61 46.03C293.1 45.39 292.42 44.91 291.64 44.64C290.87 44.37 290.04 44.32 289.24 44.49C278 47.1 267.17 51.2 257.02 56.67C256.65 56.9 256.21 56.98 255.78 56.9C255.35 56.81 254.97 56.57 254.72 56.21C254.43 55.9 254.27 55.49 254.27 55.07C254.28 54.65 254.44 54.24 254.74 53.94C261.19 45.99 268.69 38.95 277.03 33.03C277.53 32.68 277.95 32.24 278.27 31.72C278.59 31.21 278.8 30.63 278.88 30.03C278.97 29.43 278.93 28.81 278.77 28.23C278.61 27.64 278.33 27.1 277.95 26.63L276.13 24.38C270.94 17.74 264.49 12.18 257.15 8.04C249.81 3.9 241.72 1.24 233.35 0.23C229.03 -0.33 224.63 0.1 220.49 1.49C216.36 2.87 212.58 5.17 209.46 8.22C206.33 11.27 203.94 14.98 202.45 19.09C200.96 23.19 200.42 27.58 200.86 31.93L201.74 41.72C201.85 42.92 201.69 44.13 201.29 45.27C200.88 46.41 200.24 47.45 199.39 48.31C198.55 49.17 197.53 49.84 196.4 50.27C195.27 50.7 194.06 50.88 192.86 50.8L183.06 50.13C178.72 49.78 174.34 50.42 170.28 52C166.21 53.58 162.55 56.06 159.57 59.25C156.6 62.44 154.38 66.27 153.09 70.44C151.8 74.61 151.47 79.02 152.12 83.34C153.3 91.69 156.12 99.71 160.41 106.96C164.69 114.22 170.37 120.55 177.1 125.6L179.43 127.41C179.97 127.82 180.59 128.1 181.24 128.23C177.86 164.58 177.06 211.38 178.85 268.02L151.79 268.02C156.42 222.75 154.45 190.77 149.43 168.18C153.67 158.99 155.64 148.9 155.17 138.78C155.01 134.42 153.87 130.14 151.84 126.28C149.8 122.42 146.92 119.07 143.4 116.48C139.89 113.89 135.84 112.13 131.55 111.33C127.26 110.52 122.85 110.7 118.64 111.85L109.14 114.32C107.97 114.62 106.75 114.66 105.56 114.45C104.37 114.23 103.24 113.76 102.25 113.07C101.27 112.38 100.44 111.48 99.83 110.43C99.22 109.39 98.85 108.23 98.73 107.02L97.8 97.24C97.43 92.89 96.09 88.67 93.87 84.91C91.65 81.15 88.61 77.94 84.98 75.52C81.35 73.1 77.22 71.54 72.9 70.94C68.57 70.35 64.17 70.74 60.02 72.08C52 74.61 44.55 78.7 38.1 84.12C31.65 89.54 26.34 96.17 22.46 103.65L21.05 106.25C20.77 106.78 20.59 107.37 20.54 107.98C20.49 108.58 20.57 109.19 20.76 109.77C20.95 110.34 21.27 110.87 21.67 111.32C22.08 111.77 22.58 112.13 23.13 112.38C32.42 116.66 41.09 122.19 48.89 128.81C49.24 129.06 49.47 129.42 49.56 129.84C49.64 130.26 49.56 130.69 49.33 131.04C49.14 131.44 48.82 131.75 48.41 131.91C48.01 132.08 47.56 132.08 47.15 131.92C36.17 128.41 24.76 126.39 13.25 125.89C12.43 125.87 11.62 126.08 10.91 126.49C10.2 126.89 9.62 127.49 9.22 128.21L8.18 130.14C8.12 130.27 8.05 130.4 8 130.54C3.48 141.36 0.77 152.86 0 164.57C-0.04 165.17 0.05 165.78 0.26 166.35C0.46 166.92 0.78 167.45 1.2 167.89C1.62 168.33 2.12 168.68 2.68 168.92C3.24 169.16 3.84 169.28 4.45 169.27C12.14 169.26 19.81 170.14 27.3 171.9C27.4 171.91 27.51 171.94 27.61 172C27.7 172.05 27.79 172.12 27.85 172.2C27.92 172.29 27.97 172.39 28 172.5C28.03 172.6 28.03 172.71 28.02 172.82C28.03 172.93 28.01 173.05 27.98 173.16C27.94 173.27 27.88 173.37 27.81 173.46C27.73 173.54 27.64 173.61 27.53 173.66C27.43 173.71 27.32 173.74 27.2 173.75C19.06 175.1 11.09 177.32 3.42 180.35C2.51 180.71 1.74 181.37 1.25 182.22C0.76 183.07 0.56 184.06 0.69 185.03C1.15 188.45 1.76 191.75 2.49 194.84L10.7 229.38C11.36 232.14 12.92 234.59 15.14 236.35C17.36 238.11 20.11 239.07 22.95 239.07C23.44 239.07 23.92 239.05 24.41 238.99L59.63 234.9C62.78 234.53 66.08 233.97 69.45 233.24C70.41 233.03 71.27 232.5 71.9 231.75C72.52 231 72.88 230.05 72.92 229.07C73.14 220.81 72.49 212.56 70.98 204.43C70.94 204.32 70.93 204.21 70.94 204.09C70.95 203.98 70.99 203.87 71.04 203.77C71.1 203.67 71.17 203.58 71.26 203.51C71.35 203.43 71.46 203.38 71.57 203.35C71.66 203.3 71.77 203.27 71.88 203.26C71.99 203.25 72.1 203.26 72.2 203.29C72.3 203.33 72.4 203.38 72.48 203.46C72.56 203.53 72.63 203.62 72.68 203.72C76.89 210.16 80.34 217.07 82.96 224.31C83.16 224.89 83.48 225.41 83.89 225.86C84.31 226.3 84.81 226.65 85.37 226.9C85.92 227.14 86.53 227.26 87.13 227.26C87.74 227.26 88.34 227.13 88.89 226.88C99.62 222.16 109.49 215.68 118.1 207.73C118.21 207.63 118.31 207.52 118.41 207.41L119.86 205.77C120.41 205.16 120.77 204.41 120.91 203.6C121.05 202.79 120.97 201.96 120.66 201.2C116.26 190.53 110.46 180.5 103.41 171.36C103.12 171.03 102.97 170.61 102.99 170.17C103 169.74 103.18 169.32 103.49 169.01C103.75 168.68 104.12 168.45 104.54 168.39C104.96 168.32 105.38 168.42 105.73 168.66C114.62 173.74 122.77 180 129.97 187.28C130.39 187.71 130.9 188.05 131.46 188.28C132.02 188.51 132.62 188.63 133.23 188.61C133.84 188.6 134.43 188.46 134.98 188.21C135.53 187.95 136.03 187.59 136.43 187.13L138.35 184.98C139.91 183.26 141.39 181.45 142.76 179.57C146.18 200.61 147.03 229.19 142.96 268.02L87.78 268.02C87.12 268.02 86.47 268.17 85.87 268.46C85.28 268.75 84.75 269.16 84.34 269.68C83.93 270.2 83.63 270.8 83.49 271.45C83.34 272.09 83.34 272.76 83.48 273.41L108.82 385.78C110.08 391.45 113.23 396.53 117.76 400.16C122.3 403.78 127.94 405.75 133.74 405.72L194.5 405.72C200.3 405.75 205.94 403.78 210.48 400.16C215.01 396.53 218.17 391.45 219.42 385.78L244.76 273.41C244.9 272.76 244.9 272.09 244.75 271.45C244.61 270.8 244.31 270.2 243.9 269.68C243.49 269.16 242.96 268.75 242.37 268.46C241.77 268.17 241.12 268.02 240.46 268.02L187.68 268.02C185.48 198.72 187.41 151.47 191 119.27C195.58 113.59 200.67 108.34 206.21 103.59C206.5 103.29 206.9 103.11 207.33 103.1C207.75 103.09 208.16 103.24 208.47 103.52C208.83 103.77 209.09 104.14 209.18 104.57C209.28 105 209.21 105.44 208.98 105.82C203.74 116.1 199.88 127.03 197.52 138.33C197.36 139.13 197.42 139.96 197.71 140.73C198 141.5 198.5 142.17 199.14 142.67L200.88 144.02C200.99 144.11 201.11 144.19 201.24 144.27C211.16 150.5 222.06 155.04 233.47 157.71C234.06 157.85 234.67 157.86 235.27 157.75C235.86 157.64 236.43 157.41 236.94 157.07C237.44 156.73 237.87 156.29 238.19 155.78C238.52 155.27 238.73 154.69 238.83 154.09C240.06 146.49 242.18 139.06 245.14 131.95C245.17 131.84 245.22 131.74 245.29 131.66C245.35 131.57 245.44 131.5 245.53 131.45C245.63 131.39 245.74 131.36 245.84 131.35C245.95 131.34 246.06 131.35 246.17 131.38C246.28 131.39 246.39 131.42 246.49 131.48C246.6 131.53 246.69 131.61 246.76 131.7C246.83 131.78 246.89 131.89 246.92 132C246.95 132.11 246.96 132.22 246.95 132.34C246.96 140.6 247.84 148.84 249.57 156.91C249.79 157.87 250.31 158.73 251.07 159.36C251.82 159.98 252.77 160.34 253.75 160.37C254.83 160.4 255.91 160.41 256.97 160.41C259.28 160.41 261.54 160.34 263.71 160.19L299.08 157.71C302.15 157.5 305.04 156.16 307.2 153.95C309.36 151.74 310.63 148.82 310.78 145.74L312.49 110.28C312.65 107.1 312.63 103.75 312.46 100.3ZM132.92 177.8C125.99 171.36 118.36 165.74 110.16 161.03C108.06 159.75 105.57 159.26 103.13 159.65C100.7 160.04 98.49 161.28 96.89 163.16C95.23 165 94.28 167.36 94.19 169.83C94.09 172.31 94.87 174.73 96.38 176.69C102.36 184.47 107.4 192.93 111.4 201.89C104.82 207.85 97.47 212.87 89.54 216.83C86.94 210.58 83.77 204.59 80.08 198.92C78.86 197.02 77.01 195.61 74.86 194.92C72.71 194.24 70.39 194.32 68.29 195.15C66.19 195.99 64.45 197.52 63.35 199.5C62.26 201.48 61.89 203.77 62.3 206C63.47 212.36 64.09 218.82 64.15 225.29C62.26 225.64 60.41 225.92 58.61 226.12L23.39 230.22C22.47 230.32 21.55 230.09 20.79 229.56C20.03 229.03 19.49 228.24 19.28 227.33L11.07 192.8C10.66 191.04 10.28 189.2 9.96 187.3C16.06 185.14 22.33 183.52 28.7 182.45C30.93 182.07 32.96 180.94 34.44 179.23C35.92 177.53 36.77 175.36 36.83 173.1C36.9 170.84 36.18 168.63 34.8 166.84C33.42 165.05 31.46 163.8 29.26 163.29C22.68 161.76 15.97 160.83 9.22 160.52C10.22 151.71 12.43 143.07 15.76 134.85C25.54 135.54 35.21 137.39 44.55 140.36C46.91 141.11 49.45 141.01 51.74 140.08C54.03 139.14 55.92 137.44 57.08 135.25C58.29 133.11 58.7 130.6 58.24 128.17C57.77 125.75 56.46 123.58 54.54 122.03C47.32 115.93 39.42 110.68 31.02 106.36C37.86 94.02 49.17 84.77 62.62 80.52C65.52 79.56 68.6 79.27 71.62 79.68C74.65 80.09 77.54 81.18 80.09 82.87C82.63 84.56 84.76 86.81 86.3 89.44C87.85 92.08 88.78 95.03 89.02 98.08L89.95 107.87C90.3 111.43 91.75 114.79 94.1 117.49C93.7 117.77 93.35 118.11 93.07 118.51L42.08 191.41C41.75 191.89 41.51 192.42 41.38 192.99C41.25 193.56 41.23 194.15 41.33 194.72C41.43 195.3 41.64 195.84 41.95 196.34C42.26 196.83 42.67 197.25 43.15 197.59C43.62 197.92 44.16 198.16 44.73 198.28C45.3 198.41 45.89 198.42 46.46 198.32C47.03 198.21 47.58 198 48.07 197.68C48.56 197.37 48.98 196.96 49.31 196.48L100.3 123.57C100.57 123.17 100.77 122.73 100.9 122.26C104.24 123.55 107.89 123.76 111.35 122.86L120.85 120.4C123.79 119.58 126.88 119.44 129.89 120C132.89 120.55 135.73 121.78 138.18 123.6C140.64 125.41 142.65 127.76 144.07 130.47C145.49 133.18 146.27 136.17 146.36 139.23C146.97 153.33 142.16 167.13 132.92 177.8ZM210.81 383.83C209.99 387.55 207.93 390.87 204.96 393.25C201.99 395.62 198.3 396.91 194.5 396.89L133.74 396.89C129.94 396.91 126.25 395.62 123.28 393.25C120.31 390.87 118.25 387.55 117.43 383.83L93.3 276.85L234.94 276.85L210.81 383.83ZM303.68 109.85L301.97 145.31C301.93 146.24 301.55 147.11 300.9 147.77C300.25 148.44 299.39 148.84 298.46 148.9L263.09 151.38C261.29 151.5 259.42 151.57 257.49 151.58C256.36 145.21 255.79 138.75 255.77 132.27C255.77 130 254.98 127.8 253.53 126.06C252.08 124.31 250.07 123.13 247.84 122.71C247.21 122.59 246.58 122.53 245.94 122.53C244.01 122.53 242.12 123.11 240.53 124.19C238.93 125.27 237.7 126.81 236.98 128.6C234.4 134.85 232.39 141.33 230.98 147.95C222.46 145.52 214.31 141.94 206.75 137.3C209.03 127.75 212.42 118.51 216.88 109.76C218 107.55 218.31 105.03 217.77 102.61C217.22 100.2 215.85 98.05 213.89 96.55C211.97 95 209.56 94.19 207.1 94.25C204.64 94.32 202.28 95.26 200.44 96.91C193.25 103.05 186.79 109.98 181.16 117.59C170.12 108.81 162.85 96.13 160.85 82.16C160.38 79.14 160.6 76.05 161.49 73.12C162.39 70.2 163.93 67.52 166.02 65.28C168.1 63.05 170.66 61.31 173.51 60.22C176.36 59.12 179.42 58.68 182.46 58.94L192.26 59.61C195.82 59.85 199.37 58.97 202.41 57.09C202.62 57.53 202.91 57.93 203.25 58.27L266.78 120.52C267.62 121.34 268.74 121.79 269.91 121.78C271.08 121.77 272.2 121.29 273.02 120.45C273.84 119.62 274.29 118.49 274.28 117.32C274.26 116.15 273.79 115.03 272.95 114.21L209.42 51.96C209.07 51.62 208.67 51.35 208.22 51.14C210.04 48.06 210.84 44.49 210.52 40.92L209.64 31.14C209.32 28.1 209.69 25.02 210.72 22.15C211.76 19.27 213.43 16.67 215.62 14.54C217.81 12.4 220.45 10.8 223.35 9.84C226.25 8.88 229.33 8.6 232.36 9.01C246.36 10.71 259.17 17.71 268.17 28.57C260.7 34.37 253.92 40.99 247.94 48.31C246.34 50.19 245.45 52.57 245.44 55.04C245.42 57.5 246.29 59.89 247.87 61.78C249.42 63.71 251.59 65.04 254.01 65.53C256.43 66.03 258.95 65.66 261.13 64.49C269.77 59.84 278.93 56.24 288.41 53.76C293.2 61.22 296.96 69.31 299.57 77.79C292.99 79.34 286.56 81.49 280.38 84.21C278.31 85.11 276.61 86.7 275.59 88.71C274.56 90.73 274.26 93.03 274.74 95.24C275.22 97.45 276.45 99.42 278.22 100.83C279.99 102.23 282.19 102.97 284.45 102.93C290.91 102.81 297.38 103.25 303.76 104.24C303.8 106.17 303.77 108.04 303.68 109.85Z" fill="#FFFFFF" fill-opacity="1.000000" fill-rule="nonzero"/>
</svg>
