<svg width="90.726868" height="98.107422" viewBox="0 0 90.7269 98.1074" fill="none" xmlns="http://www.w3.org/2000/svg" xmlns:xlink="http://www.w3.org/1999/xlink">
	<desc>
			Created with Pixso.
	</desc>
	<defs/>
	<path id="Vector" d="M85.65 62.88L83.98 62.88C80.9 62.88 77.9 63.81 75.36 65.53C72.81 67.25 70.84 69.7 69.69 72.55C68.55 69.7 66.57 67.25 64.03 65.53C61.48 63.81 58.48 62.88 55.41 62.88L53.73 62.88C53.44 62.88 53.16 63 52.95 63.2C52.74 63.41 52.62 63.69 52.62 63.99L52.62 65.66C52.63 69.74 54.25 73.66 57.14 76.54C60.02 79.43 63.94 81.05 68.02 81.06L68.58 81.06L68.58 88.41C63.18 88.61 57.92 90.25 53.36 93.17C51.61 94.29 49.58 94.89 47.5 94.89C45.43 94.89 43.39 94.29 41.64 93.17C37.09 90.25 31.83 88.61 26.42 88.41L26.42 81.06L26.99 81.06C31.07 81.05 34.98 79.43 37.87 76.54C40.76 73.66 42.38 69.74 42.38 65.66L42.38 63.99C42.38 63.69 42.27 63.41 42.06 63.2C41.85 63 41.57 62.88 41.28 62.88L39.6 62.88C36.53 62.88 33.53 63.81 30.98 65.53C28.43 67.25 26.46 69.7 25.32 72.55C24.17 69.7 22.2 67.25 19.65 65.53C17.11 63.81 14.1 62.88 11.03 62.88L9.36 62.88C9.06 62.88 8.78 63 8.57 63.2C8.37 63.41 8.25 63.69 8.25 63.99L8.25 65.66C8.25 69.74 9.88 73.66 12.76 76.54C15.65 79.43 19.56 81.05 23.64 81.06L24.21 81.06L24.21 88.41C18.8 88.61 13.54 90.25 8.99 93.17C8.74 93.33 8.57 93.58 8.51 93.87C8.44 94.16 8.5 94.46 8.66 94.7C8.81 94.95 9.06 95.12 9.35 95.19C9.64 95.25 9.94 95.19 10.19 95.04C14.7 92.14 19.95 90.61 25.32 90.61C30.68 90.61 35.93 92.14 40.45 95.04C42.55 96.39 45 97.1 47.5 97.1C50.01 97.1 52.45 96.39 54.56 95.04C59.08 92.14 64.33 90.61 69.69 90.61C75.06 90.61 80.31 92.14 84.82 95.04C84.95 95.12 85.08 95.17 85.23 95.2C85.37 95.23 85.52 95.22 85.66 95.19C85.8 95.16 85.94 95.1 86.06 95.02C86.18 94.94 86.28 94.83 86.36 94.71C86.44 94.59 86.5 94.45 86.52 94.3C86.55 94.16 86.54 94.01 86.51 93.87C86.48 93.73 86.42 93.59 86.34 93.47C86.25 93.35 86.14 93.25 86.02 93.17C81.47 90.25 76.21 88.61 70.8 88.41L70.8 81.06L71.37 81.06C75.45 81.05 79.36 79.43 82.25 76.54C85.13 73.66 86.76 69.74 86.76 65.66L86.76 63.99C86.76 63.69 86.64 63.41 86.44 63.2C86.23 63 85.95 62.88 85.65 62.88ZM39.6 65.09L40.17 65.09L40.17 65.66C40.17 69.16 38.78 72.51 36.31 74.98C33.83 77.45 30.48 78.84 26.99 78.84L26.42 78.84L26.42 78.27C26.43 74.78 27.82 71.43 30.29 68.96C32.76 66.49 36.11 65.1 39.6 65.09ZM10.46 65.66L10.46 65.09L11.03 65.09C14.52 65.1 17.87 66.49 20.34 68.96C22.82 71.43 24.21 74.78 24.21 78.27L24.21 78.84L23.64 78.84C20.15 78.84 16.8 77.45 14.33 74.98C11.86 72.51 10.47 69.16 10.46 65.66ZM54.84 65.66L54.84 65.09L55.41 65.09C58.9 65.1 62.25 66.49 64.72 68.96C67.19 71.43 68.58 74.78 68.58 78.27L68.58 78.84L68.02 78.84C64.52 78.84 61.17 77.45 58.7 74.98C56.23 72.51 54.84 69.16 54.84 65.66ZM84.55 65.66C84.54 69.16 83.15 72.51 80.68 74.98C78.21 77.45 74.86 78.84 71.37 78.84L70.8 78.84L70.8 78.27C70.8 74.78 72.19 71.43 74.66 68.96C77.13 66.49 80.48 65.1 83.98 65.09L84.55 65.09L84.55 65.66Z" fill="#285A43" fill-opacity="1.000000" fill-rule="nonzero"/>
	<path id="Vector" d="M85.65 61.88L83.98 61.88L83.98 61.88Q81.47 61.88 79.17 62.59Q76.87 63.29 74.8 64.7Q72.72 66.11 71.21 67.98Q70.36 69.03 69.69 70.23Q69.03 69.03 68.18 67.98Q66.67 66.11 64.59 64.7Q62.51 63.29 60.21 62.59Q57.92 61.88 55.41 61.88L53.73 61.88Q53.3 61.88 52.92 62.03Q52.55 62.19 52.24 62.5Q51.93 62.81 51.78 63.18Q51.62 63.55 51.62 63.99L51.62 65.66Q51.63 69.06 52.83 71.96Q54.03 74.85 56.43 77.25Q58.83 79.65 61.73 80.85Q64.44 81.97 67.58 82.05L67.58 87.46Q63.83 87.71 60.35 88.8Q56.42 90.03 52.82 92.33Q51.61 93.11 50.28 93.5Q48.95 93.89 47.5 93.89Q46.06 93.89 44.73 93.5Q43.4 93.11 42.18 92.33Q38.59 90.03 34.66 88.8Q31.18 87.71 27.42 87.46L27.42 82.05Q30.57 81.97 33.28 80.85Q36.18 79.65 38.58 77.25Q40.98 74.85 42.18 71.95Q43.38 69.06 43.38 65.66L43.38 63.99Q43.38 63.55 43.23 63.18Q43.08 62.81 42.77 62.5Q42.46 62.19 42.09 62.03Q41.71 61.88 41.28 61.88L39.6 61.88Q37.09 61.88 34.79 62.59Q32.5 63.3 30.42 64.7Q28.34 66.11 26.83 67.98Q25.98 69.03 25.32 70.23Q24.65 69.03 23.8 67.98Q22.29 66.11 20.21 64.7Q18.13 63.29 15.84 62.59Q13.54 61.88 11.03 61.88L9.36 61.88Q8.92 61.88 8.55 62.03Q8.17 62.19 7.87 62.5Q7.56 62.81 7.4 63.18Q7.25 63.55 7.25 63.99L7.25 65.66Q7.25 69.06 8.46 71.96Q9.66 74.85 12.06 77.25Q14.46 79.65 17.35 80.85Q20.06 81.97 23.21 82.05L23.21 87.46Q19.46 87.71 15.97 88.8Q12.04 90.03 8.45 92.33Q8.08 92.57 7.85 92.9Q7.62 93.23 7.53 93.66Q7.44 94.08 7.51 94.48Q7.58 94.88 7.81 95.24Q8.05 95.61 8.38 95.84Q8.71 96.07 9.14 96.16Q9.57 96.26 9.96 96.18Q10.36 96.11 10.73 95.88Q14.06 93.75 17.7 92.68Q21.35 91.61 25.32 91.61Q29.28 91.61 32.93 92.68Q36.57 93.74 39.91 95.88Q41.64 96.99 43.54 97.55Q45.44 98.1 47.5 98.1Q49.57 98.1 51.47 97.55Q53.36 96.99 55.1 95.88Q58.44 93.74 62.08 92.68Q65.73 91.61 69.69 91.61Q73.65 91.61 77.3 92.68Q80.95 93.74 84.28 95.88Q84.39 95.95 84.51 96.01Q84.76 96.13 85.04 96.18Q85.25 96.22 85.46 96.22Q85.66 96.22 85.87 96.17Q86.08 96.13 86.27 96.05Q86.46 95.96 86.63 95.84Q86.8 95.72 86.95 95.58Q87.09 95.43 87.2 95.25Q87.32 95.07 87.39 94.88Q87.47 94.69 87.51 94.48Q87.54 94.27 87.54 94.06Q87.53 93.86 87.49 93.65Q87.44 93.44 87.36 93.25Q87.27 93.07 87.15 92.89Q87.03 92.72 86.88 92.58Q86.73 92.44 86.55 92.33Q82.99 90.04 79.1 88.81Q75.58 87.71 71.8 87.46L71.8 82.05Q74.95 81.97 77.66 80.85Q80.56 79.65 82.95 77.25Q85.35 74.85 86.55 71.95Q87.76 69.06 87.76 65.66L87.76 63.99Q87.76 63.55 87.61 63.18Q87.45 62.81 87.14 62.5Q86.83 62.19 86.46 62.03Q86.09 61.88 85.65 61.88ZM71.37 81.06C75.45 81.05 79.36 79.43 82.25 76.54C85.13 73.66 86.76 69.74 86.76 65.66L86.76 63.99C86.76 63.69 86.64 63.41 86.44 63.2C86.23 63 85.95 62.88 85.65 62.88L83.98 62.88C80.9 62.88 77.9 63.81 75.36 65.53C73.18 67 71.43 69 70.25 71.32C70.05 71.72 69.86 72.13 69.69 72.55C69.52 72.13 69.34 71.72 69.13 71.32C67.96 69 66.2 67 64.03 65.53C61.48 63.81 58.48 62.88 55.41 62.88L53.73 62.88C53.44 62.88 53.16 63 52.95 63.2C52.74 63.41 52.62 63.69 52.62 63.99L52.62 65.66C52.63 69.74 54.25 73.66 57.14 76.54C60.02 79.43 63.94 81.05 68.02 81.06L68.58 81.06L68.58 88.41C63.18 88.61 57.92 90.25 53.36 93.17C51.61 94.29 49.58 94.89 47.5 94.89C45.43 94.89 43.39 94.29 41.64 93.17C37.09 90.25 31.83 88.61 26.42 88.41L26.42 81.06L26.99 81.06C31.07 81.05 34.98 79.43 37.87 76.54C40.76 73.66 42.38 69.74 42.38 65.66L42.38 63.99C42.38 63.69 42.27 63.41 42.06 63.2C41.85 63 41.57 62.88 41.28 62.88L39.6 62.88C36.53 62.88 33.53 63.81 30.98 65.53C28.81 67 27.05 69 25.87 71.32C25.67 71.72 25.48 72.13 25.32 72.55C25.15 72.13 24.96 71.72 24.76 71.32C23.58 69 21.82 67 19.65 65.53C17.11 63.81 14.1 62.88 11.03 62.88L9.36 62.88C9.06 62.88 8.78 63 8.57 63.2C8.37 63.41 8.25 63.69 8.25 63.99L8.25 65.66C8.25 69.74 9.88 73.66 12.76 76.54C15.65 79.43 19.56 81.05 23.64 81.06L24.21 81.06L24.21 88.41C18.8 88.61 13.54 90.25 8.99 93.17C8.74 93.33 8.57 93.58 8.51 93.87C8.44 94.16 8.5 94.46 8.66 94.7C8.81 94.95 9.06 95.12 9.35 95.19C9.64 95.25 9.94 95.19 10.19 95.04C14.7 92.14 19.95 90.61 25.32 90.61C30.68 90.61 35.93 92.14 40.45 95.04C42.55 96.39 45 97.1 47.5 97.1C50.01 97.1 52.45 96.39 54.56 95.04C59.08 92.14 64.33 90.61 69.69 90.61C75.06 90.61 80.31 92.14 84.82 95.04C84.95 95.12 85.08 95.17 85.23 95.2C85.37 95.23 85.52 95.22 85.66 95.19C85.8 95.16 85.94 95.1 86.06 95.02C86.18 94.94 86.28 94.83 86.36 94.71C86.44 94.59 86.5 94.45 86.52 94.3C86.55 94.16 86.54 94.01 86.51 93.87C86.48 93.73 86.42 93.59 86.34 93.47C86.25 93.35 86.14 93.25 86.02 93.17C81.47 90.25 76.21 88.61 70.8 88.41L70.8 81.06L71.37 81.06ZM82.65 70.33Q81.76 72.49 79.97 74.27Q78.19 76.05 76.04 76.94Q74.08 77.76 71.81 77.83Q71.88 75.57 72.69 73.6Q73.59 71.45 75.37 69.67Q77.15 67.88 79.31 66.99Q81.27 66.18 83.54 66.1Q83.46 68.37 82.65 70.33ZM83.55 65.1C80.21 65.22 77.03 66.59 74.66 68.96C72.3 71.33 70.92 74.5 70.81 77.84C70.8 77.98 70.8 78.13 70.8 78.27L70.8 78.84L71.37 78.84C71.51 78.84 71.66 78.84 71.8 78.83C75.14 78.72 78.31 77.34 80.68 74.98C83.05 72.61 84.42 69.43 84.54 66.09C84.54 65.95 84.55 65.81 84.55 65.66L84.55 65.09L83.98 65.09C83.83 65.1 83.69 65.1 83.55 65.1ZM10.47 66.09C10.58 69.43 11.96 72.61 14.33 74.98C16.7 77.34 19.87 78.72 23.21 78.83C23.35 78.84 23.5 78.84 23.64 78.84L24.21 78.84L24.21 78.27C24.21 78.13 24.21 77.98 24.2 77.84C24.09 74.5 22.71 71.33 20.34 68.96C17.98 66.59 14.8 65.22 11.46 65.1C11.32 65.1 11.17 65.1 11.03 65.09L10.46 65.09L10.46 65.66C10.46 65.81 10.47 65.95 10.47 66.09ZM23.2 77.83Q23.13 75.56 22.31 73.6Q21.42 71.45 19.64 69.67Q17.85 67.88 15.7 66.99Q13.74 66.18 11.47 66.1Q11.55 68.37 12.36 70.33Q13.25 72.49 15.04 74.27Q16.82 76.05 18.97 76.95Q20.93 77.76 23.2 77.83ZM39.17 65.1C35.83 65.22 32.66 66.59 30.29 68.96C27.92 71.33 26.54 74.5 26.43 77.84C26.43 77.98 26.42 78.13 26.42 78.27L26.42 78.84L26.99 78.84C27.14 78.84 27.28 78.84 27.42 78.83C30.76 78.72 33.94 77.34 36.31 74.98C38.67 72.61 40.05 69.43 40.16 66.09C40.17 65.95 40.17 65.81 40.17 65.66L40.17 65.09L39.6 65.09C39.46 65.1 39.31 65.1 39.17 65.1ZM39.16 66.1Q36.89 66.18 34.93 66.99Q32.78 67.88 31 69.67Q29.21 71.45 28.32 73.6Q27.51 75.57 27.43 77.83Q29.7 77.76 31.66 76.94Q33.82 76.05 35.6 74.27Q37.38 72.48 38.28 70.33Q39.09 68.37 39.16 66.1ZM54.85 66.09C54.96 69.43 56.34 72.61 58.7 74.98C61.07 77.34 64.25 78.72 67.58 78.83C67.73 78.84 67.87 78.84 68.02 78.84L68.58 78.84L68.58 78.27C68.58 78.13 68.58 77.98 68.58 77.84C68.46 74.5 67.09 71.33 64.72 68.96C62.35 66.59 59.18 65.22 55.84 65.1C55.69 65.1 55.55 65.1 55.41 65.09L54.84 65.09L54.84 65.66C54.84 65.81 54.84 65.95 54.85 66.09ZM55.85 66.1Q55.92 68.37 56.73 70.33Q57.63 72.49 59.41 74.27Q61.19 76.05 63.35 76.95Q65.31 77.76 67.58 77.83Q67.5 75.56 66.69 73.6Q65.8 71.45 64.01 69.67Q62.23 67.88 60.07 66.99Q58.11 66.18 55.85 66.1Z" fill="#285A43" fill-opacity="1.000000" fill-rule="evenodd"/>
	<path id="Vector" d="M19.31 47.06C19.74 47.48 20.25 47.82 20.81 48.06C21.36 48.29 21.96 48.41 22.57 48.41C22.73 48.41 22.9 48.4 23.06 48.38C23.75 48.31 24.4 48.08 24.99 47.72C25.58 47.36 26.07 46.88 26.45 46.3L30.83 39.5L48.05 37.36L51.81 39.73C51.98 39.84 52.17 39.9 52.37 39.9C52.57 39.91 52.77 39.86 52.94 39.76C53.11 39.67 53.26 39.53 53.36 39.36C53.46 39.19 53.51 38.99 53.51 38.79L53.51 28.84C53.51 28.65 53.46 28.45 53.36 28.28C53.26 28.11 53.11 27.97 52.94 27.87C52.77 27.78 52.57 27.73 52.37 27.74C52.17 27.74 51.98 27.8 51.81 27.91L48.05 30.28L37.63 28.98L40.93 23.87C41.07 23.66 41.13 23.41 41.11 23.15C41.08 22.9 40.97 22.67 40.79 22.49L26.91 8.61L26.91 8.61L21.68 3.38C20.92 2.62 20.03 2.02 19.04 1.61C18.05 1.21 16.99 1 15.93 1C14.86 1 13.8 1.21 12.81 1.61C11.83 2.02 10.93 2.62 10.17 3.38L7.94 5.61C6.42 7.14 5.56 9.2 5.56 11.36C5.56 13.52 6.42 15.59 7.94 17.11L9.59 18.76L3.1 22.96C2.53 23.33 2.04 23.83 1.68 24.41C1.32 25 1.09 25.66 1.02 26.34C0.95 27.02 1.03 27.72 1.26 28.36C1.49 29.01 1.86 29.6 2.35 30.09L19.31 47.06L19.31 47.06ZM48.17 32.53C48.43 32.56 48.69 32.5 48.9 32.36L51.3 30.85L51.3 36.79L48.9 35.28C48.69 35.14 48.43 35.08 48.17 35.11L32.4 37.08L36.3 31.05L48.17 32.53ZM9.51 15.55C8.4 14.44 7.78 12.93 7.78 11.36C7.78 9.79 8.4 8.29 9.51 7.18L11.74 4.94C12.85 3.83 14.36 3.21 15.93 3.21C17.5 3.21 19 3.83 20.11 4.94L24.38 9.21L11.5 17.53L9.51 15.55ZM3.22 26.57C3.26 26.22 3.38 25.88 3.57 25.57C3.75 25.27 4.01 25.01 4.31 24.82L25.98 10.81L38.59 23.42L24.59 45.1C24.39 45.4 24.13 45.65 23.83 45.84C23.52 46.02 23.18 46.14 22.83 46.18C22.47 46.22 22.11 46.17 21.78 46.05C21.44 45.93 21.13 45.74 20.88 45.49L20.88 45.49L3.91 28.52C3.66 28.27 3.47 27.96 3.35 27.63C3.23 27.29 3.19 26.93 3.22 26.57Z" fill="#285A43" fill-opacity="1.000000" fill-rule="nonzero"/>
	<path id="Vector" d="M19.45 48.46Q19.91 48.77 20.42 48.98Q20.94 49.19 21.47 49.3Q22.01 49.41 22.57 49.41Q22.7 49.41 22.84 49.4Q23 49.39 23.17 49.37Q23.79 49.31 24.36 49.12Q24.96 48.92 25.51 48.58Q26.06 48.24 26.5 47.81Q26.94 47.37 27.29 46.84L31.42 40.44L47.82 38.4L51.28 40.58Q51.52 40.73 51.79 40.81Q52.05 40.89 52.34 40.9Q52.63 40.91 52.9 40.84Q53.17 40.78 53.42 40.64Q53.67 40.5 53.87 40.31Q54.07 40.11 54.22 39.87Q54.36 39.62 54.44 39.35Q54.51 39.08 54.51 38.79L54.51 28.84Q54.51 28.56 54.44 28.29Q54.36 28.02 54.22 27.77Q54.07 27.52 53.87 27.33Q53.67 27.14 53.42 27Q53.17 26.86 52.9 26.79Q52.63 26.73 52.34 26.74Q52.05 26.75 51.79 26.83Q51.52 26.91 51.28 27.06L47.82 29.24L39.34 28.19L41.77 24.41Q41.98 24.1 42.06 23.76Q42.14 23.42 42.1 23.05Q42.06 22.68 41.91 22.36Q41.76 22.04 41.49 21.78L27.59 7.88L27.59 7.88L22.38 2.67Q21.74 2.03 21 1.53Q20.26 1.04 19.42 0.69Q18.58 0.34 17.71 0.17Q16.83 0 15.93 0Q15.02 0 14.14 0.17Q13.27 0.34 12.43 0.69Q11.59 1.04 10.85 1.53Q10.11 2.03 9.47 2.67L7.23 4.9Q5.9 6.24 5.23 7.86Q4.56 9.47 4.56 11.36Q4.56 13.25 5.23 14.87Q5.9 16.48 7.23 17.82L8.01 18.59L2.56 22.12Q2.03 22.46 1.59 22.9Q1.16 23.35 0.83 23.89Q0.49 24.43 0.29 25.02Q0.09 25.6 0.03 26.23Q-0.04 26.87 0.03 27.48Q0.1 28.1 0.32 28.7Q0.53 29.3 0.86 29.82Q1.19 30.35 1.64 30.8L18.57 47.72L18.6 47.76Q19 48.16 19.45 48.46ZM19.31 47.06L19.31 47.06C19.74 47.48 20.25 47.82 20.81 48.06C21.36 48.29 21.96 48.41 22.57 48.41C22.73 48.41 22.9 48.4 23.06 48.38C23.75 48.31 24.4 48.08 24.99 47.72C25.58 47.36 26.07 46.88 26.45 46.3L30.83 39.5L48.05 37.36L51.81 39.73C51.98 39.84 52.17 39.9 52.37 39.9C52.57 39.91 52.77 39.86 52.94 39.76C53.11 39.67 53.26 39.53 53.36 39.36C53.46 39.19 53.51 38.99 53.51 38.79L53.51 28.84C53.51 28.65 53.46 28.45 53.36 28.28C53.26 28.11 53.11 27.97 52.94 27.87C52.77 27.78 52.57 27.73 52.37 27.74C52.17 27.74 51.98 27.8 51.81 27.91L48.05 30.28L38.74 29.12L37.63 28.98L38.24 28.05L40.93 23.87C41.07 23.66 41.13 23.41 41.11 23.15C41.08 22.9 40.97 22.67 40.79 22.49L26.91 8.61L26.91 8.61L21.68 3.38C20.92 2.62 20.03 2.02 19.04 1.61C18.05 1.21 16.99 1 15.93 1C14.86 1 13.8 1.21 12.81 1.61C11.83 2.02 10.93 2.62 10.17 3.38L7.94 5.61C6.42 7.14 5.56 9.2 5.56 11.36C5.56 13.52 6.42 15.59 7.94 17.11L8.87 18.04L9.59 18.76L8.73 19.32L3.1 22.96C2.53 23.33 2.04 23.83 1.68 24.41C1.32 25 1.09 25.66 1.02 26.34C0.95 27.02 1.03 27.72 1.26 28.36C1.49 29.01 1.86 29.6 2.35 30.09L19.31 47.06ZM9.51 15.55C8.4 14.44 7.78 12.93 7.78 11.36C7.78 9.79 8.4 8.29 9.51 7.18L11.74 4.94C12.85 3.83 14.36 3.21 15.93 3.21C17.5 3.21 19 3.83 20.11 4.94L23.65 8.49L24.38 9.21L23.52 9.77L11.5 17.53L9.51 15.55ZM11.63 16.26L10.22 14.84Q9.5 14.12 9.14 13.25Q8.78 12.38 8.78 11.36Q8.78 10.34 9.14 9.47Q9.5 8.6 10.22 7.88L12.45 5.65Q13.17 4.93 14.04 4.57Q14.91 4.21 15.93 4.21Q16.94 4.21 17.81 4.57Q18.68 4.93 19.4 5.65L22.8 9.04L11.63 16.26ZM20.98 45.58C21.21 45.79 21.48 45.95 21.78 46.05C22.11 46.17 22.47 46.22 22.83 46.18C23.18 46.14 23.52 46.02 23.83 45.84C24.13 45.65 24.39 45.4 24.59 45.1L38.59 23.42L25.98 10.81L4.31 24.82C4.01 25.01 3.75 25.27 3.57 25.57C3.38 25.88 3.26 26.22 3.22 26.57C3.19 26.93 3.23 27.29 3.35 27.63C3.47 27.96 3.66 28.27 3.91 28.52L20.78 45.39L20.88 45.49L20.88 45.49L20.88 45.49L20.88 45.49C20.91 45.52 20.94 45.55 20.98 45.58ZM21.59 44.78L4.62 27.81Q4.5 27.7 4.41 27.56Q4.34 27.43 4.29 27.29Q4.24 27.14 4.22 26.99Q4.2 26.84 4.22 26.68Q4.24 26.5 4.3 26.34Q4.35 26.21 4.42 26.1Q4.5 25.96 4.61 25.85Q4.71 25.74 4.85 25.66L25.84 12.09L37.31 23.56L23.75 44.55Q23.66 44.69 23.55 44.79Q23.44 44.9 23.3 44.98Q23.17 45.07 23.02 45.12Q22.88 45.17 22.72 45.18Q22.56 45.2 22.41 45.18Q22.26 45.16 22.11 45.11Q21.96 45.06 21.83 44.98Q21.7 44.89 21.59 44.78L21.59 44.78ZM48.78 33.49Q49.12 33.41 49.43 33.21L49.44 33.21L50.3 32.67L50.3 34.97L49.44 34.43Q49.11 34.23 48.77 34.15Q48.42 34.07 48.05 34.12L34.41 35.82L36.8 32.12L48.05 33.52Q48.43 33.56 48.78 33.49ZM36.3 31.05L48.17 32.53C48.43 32.56 48.69 32.5 48.9 32.36L50.3 31.48L51.3 30.85L51.3 36.79L50.3 36.16L48.9 35.28C48.69 35.14 48.43 35.08 48.17 35.11L33.7 36.92L32.4 37.08L33.11 35.98L36.3 31.05Z" fill="#285A43" fill-opacity="1.000000" fill-rule="evenodd"/>
	<path id="Vector" d="M70.87 47.33C71.04 47.58 71.3 47.74 71.59 47.79C71.88 47.84 72.17 47.77 72.41 47.6C72.65 47.43 72.82 47.18 72.87 46.89C72.92 46.6 72.85 46.3 72.68 46.06C71.62 44.57 70.37 43.23 68.95 42.08C68.84 41.99 68.71 41.92 68.57 41.88C68.43 41.84 68.29 41.82 68.14 41.84C68 41.85 67.86 41.89 67.73 41.96C67.6 42.03 67.49 42.12 67.4 42.24C67.21 42.46 67.12 42.76 67.15 43.05C67.18 43.34 67.32 43.61 67.55 43.8C68.81 44.82 69.93 46.01 70.87 47.33Z" fill="#285A43" fill-opacity="1.000000" fill-rule="nonzero"/>
	<path id="Vector" d="M71.02 48.66Q71.21 48.74 71.42 48.77Q71.62 48.81 71.83 48.8Q72.03 48.8 72.24 48.75Q72.44 48.71 72.63 48.62Q72.82 48.54 72.99 48.42Q73.16 48.3 73.3 48.15Q73.45 48 73.56 47.82Q73.67 47.65 73.74 47.46Q73.82 47.26 73.85 47.06Q73.89 46.85 73.88 46.65Q73.88 46.44 73.83 46.24Q73.79 46.03 73.7 45.84Q73.62 45.65 73.5 45.48Q72.63 44.26 71.61 43.18Q70.66 42.18 69.59 41.31Q69.44 41.19 69.29 41.1Q69.09 40.99 68.86 40.92Q68.66 40.86 68.46 40.84Q68.25 40.82 68.04 40.84Q67.84 40.86 67.64 40.92Q67.44 40.98 67.26 41.08Q67.07 41.18 66.91 41.31Q66.76 41.44 66.62 41.6Q66.49 41.77 66.39 41.95Q66.3 42.13 66.24 42.33Q66.17 42.53 66.15 42.73Q66.13 42.94 66.16 43.15Q66.18 43.36 66.24 43.55Q66.3 43.75 66.4 43.93Q66.49 44.12 66.62 44.28Q66.76 44.44 66.92 44.57Q67.86 45.34 68.68 46.22Q69.42 47.02 70.06 47.91Q70.16 48.06 70.28 48.18Q70.45 48.35 70.65 48.48Q70.83 48.59 71.02 48.66ZM70.87 47.33C71.04 47.58 71.3 47.74 71.59 47.79C71.88 47.84 72.17 47.77 72.41 47.6C72.65 47.43 72.82 47.18 72.87 46.89C72.92 46.6 72.85 46.3 72.68 46.06C71.62 44.57 70.37 43.23 68.95 42.08C68.84 41.99 68.71 41.92 68.57 41.88C68.43 41.84 68.29 41.82 68.14 41.84C68 41.85 67.86 41.89 67.73 41.96C67.6 42.03 67.49 42.12 67.4 42.24C67.21 42.46 67.12 42.76 67.15 43.05C67.18 43.34 67.32 43.61 67.55 43.8C68.81 44.82 69.93 46.01 70.87 47.33Z" fill="#285A43" fill-opacity="1.000000" fill-rule="evenodd"/>
	<path id="Vector" d="M73.74 50.24C73.6 50.29 73.47 50.36 73.36 50.45C73.25 50.55 73.16 50.66 73.1 50.79C73.03 50.92 72.99 51.07 72.98 51.21C72.97 51.36 72.99 51.5 73.03 51.64C73.53 53.18 73.82 54.79 73.89 56.41C73.9 56.7 74.02 56.96 74.23 57.16C74.44 57.35 74.71 57.46 74.99 57.46C75.01 57.46 75.03 57.46 75.05 57.46C75.34 57.45 75.62 57.32 75.81 57.1C76.01 56.88 76.11 56.6 76.1 56.3C76.02 54.48 75.69 52.68 75.14 50.95C75.09 50.81 75.02 50.68 74.92 50.57C74.83 50.46 74.71 50.37 74.58 50.31C74.45 50.24 74.31 50.2 74.17 50.19C74.02 50.18 73.88 50.2 73.74 50.24Z" fill="#285A43" fill-opacity="1.000000" fill-rule="nonzero"/>
	<path id="Vector" d="M73.05 49.46Q72.87 49.56 72.71 49.7Q72.55 49.83 72.43 49.99Q72.3 50.16 72.2 50.34Q72.11 50.53 72.05 50.73Q72 50.92 71.98 51.13Q71.97 51.34 71.99 51.55Q72.02 51.75 72.08 51.95Q72.41 52.98 72.61 54.03Q72.83 55.23 72.89 56.46Q72.9 56.69 72.96 56.92Q73.01 57.08 73.08 57.23Q73.16 57.42 73.28 57.58Q73.39 57.74 73.54 57.88Q73.69 58.02 73.85 58.13Q74.02 58.24 74.21 58.31Q74.4 58.39 74.59 58.43Q74.79 58.46 74.99 58.46Q75.04 58.46 75.09 58.46Q75.37 58.45 75.62 58.37Q75.76 58.33 75.89 58.26Q76.08 58.17 76.25 58.05Q76.41 57.93 76.55 57.77Q76.7 57.62 76.8 57.44Q76.91 57.27 76.98 57.07Q77.05 56.87 77.08 56.67Q77.11 56.46 77.1 56.26Q77.04 54.87 76.8 53.52Q76.55 52.06 76.09 50.64Q76.01 50.42 75.89 50.22Q75.8 50.06 75.68 49.92Q75.55 49.76 75.38 49.64Q75.22 49.51 75.04 49.41Q74.85 49.32 74.65 49.27Q74.45 49.21 74.24 49.19Q74.04 49.18 73.83 49.2Q73.63 49.23 73.43 49.29Q73.23 49.36 73.05 49.46ZM73.74 50.24C73.6 50.29 73.47 50.36 73.36 50.45C73.25 50.55 73.16 50.66 73.1 50.79C73.03 50.92 72.99 51.07 72.98 51.21C72.97 51.36 72.99 51.5 73.03 51.64C73.53 53.18 73.82 54.79 73.89 56.41C73.9 56.7 74.02 56.96 74.23 57.16C74.44 57.35 74.71 57.46 74.99 57.46C75.01 57.46 75.03 57.46 75.05 57.46C75.34 57.45 75.62 57.32 75.81 57.1C76.01 56.88 76.11 56.6 76.1 56.3C76.02 54.48 75.69 52.68 75.14 50.95C75.09 50.81 75.02 50.68 74.92 50.57C74.83 50.46 74.71 50.37 74.58 50.31C74.45 50.24 74.31 50.2 74.17 50.19C74.02 50.18 73.88 50.2 73.74 50.24Z" fill="#285A43" fill-opacity="1.000000" fill-rule="evenodd"/>
	<path id="Vector" d="M58.83 39.41C60.42 39.81 61.95 40.39 63.41 41.14C63.54 41.2 63.69 41.24 63.83 41.25C63.98 41.26 64.12 41.24 64.26 41.2C64.4 41.15 64.53 41.08 64.64 40.98C64.75 40.89 64.84 40.77 64.9 40.64C64.97 40.51 65 40.37 65.02 40.23C65.03 40.08 65.01 39.93 64.96 39.8C64.92 39.66 64.84 39.53 64.75 39.42C64.65 39.31 64.54 39.22 64.41 39.16C62.78 38.33 61.07 37.68 59.3 37.24C59.02 37.18 58.72 37.24 58.47 37.39C58.23 37.55 58.05 37.8 57.99 38.09C57.93 38.37 57.98 38.67 58.14 38.92C58.29 39.17 58.54 39.34 58.83 39.41Z" fill="#285A43" fill-opacity="1.000000" fill-rule="nonzero"/>
	<path id="Vector" d="M60.82 41.08Q61.91 41.49 62.96 42.03L62.97 42.03Q63.15 42.12 63.35 42.18Q63.55 42.23 63.76 42.25Q63.97 42.26 64.17 42.24Q64.38 42.21 64.58 42.15Q64.77 42.08 64.95 41.98Q65.13 41.88 65.29 41.74Q65.45 41.6 65.57 41.44Q65.7 41.28 65.79 41.09Q65.89 40.9 65.94 40.7Q66 40.51 66.01 40.3Q66.03 40.09 66 39.88Q65.98 39.68 65.91 39.48Q65.84 39.28 65.74 39.1Q65.64 38.92 65.5 38.77Q65.37 38.61 65.2 38.48Q65.04 38.36 64.85 38.26Q63.73 37.69 62.56 37.23Q61.09 36.66 59.54 36.27L59.53 36.27L59.51 36.26Q59.3 36.22 59.1 36.22Q58.9 36.21 58.69 36.25Q58.48 36.29 58.29 36.37Q58.1 36.44 57.93 36.55Q57.75 36.67 57.61 36.81Q57.46 36.95 57.34 37.12Q57.22 37.3 57.14 37.48Q57.06 37.67 57.01 37.87Q56.97 38.08 56.96 38.28Q56.96 38.49 57 38.69Q57.03 38.9 57.11 39.09Q57.18 39.28 57.29 39.46Q57.41 39.63 57.55 39.78Q57.69 39.93 57.86 40.05Q58.03 40.17 58.22 40.25Q58.4 40.33 58.59 40.38Q59.73 40.67 60.82 41.08ZM58.83 39.41C60.42 39.81 61.95 40.39 63.41 41.14C63.54 41.2 63.69 41.24 63.83 41.25C63.98 41.26 64.12 41.24 64.26 41.2C64.4 41.15 64.53 41.08 64.64 40.98C64.75 40.89 64.84 40.77 64.9 40.64C64.97 40.51 65 40.37 65.02 40.23C65.03 40.08 65.01 39.93 64.96 39.8C64.92 39.66 64.84 39.53 64.75 39.42C64.65 39.31 64.54 39.22 64.41 39.16C62.78 38.33 61.07 37.68 59.3 37.24C59.02 37.18 58.72 37.24 58.47 37.39C58.23 37.55 58.05 37.8 57.99 38.09C57.93 38.37 57.98 38.67 58.14 38.92C58.29 39.17 58.54 39.34 58.83 39.41Z" fill="#285A43" fill-opacity="1.000000" fill-rule="evenodd"/>
	<path id="Vector" d="M79.12 37.51C80.45 38.48 81.67 39.58 82.75 40.81C82.95 41.03 83.22 41.17 83.51 41.19C83.81 41.21 84.09 41.11 84.31 40.91C84.53 40.72 84.67 40.45 84.69 40.15C84.71 39.86 84.61 39.57 84.41 39.35C83.22 38 81.88 36.78 80.42 35.72C80.18 35.55 79.89 35.48 79.6 35.53C79.31 35.58 79.05 35.74 78.88 35.97C78.71 36.21 78.64 36.5 78.69 36.79C78.73 37.08 78.88 37.34 79.12 37.51Z" fill="#285A43" fill-opacity="1.000000" fill-rule="nonzero"/>
	<path id="Vector" d="M82 41.48L82 41.48Q82.14 41.63 82.3 41.76Q82.47 41.88 82.65 41.97Q82.84 42.07 83.04 42.12Q83.24 42.17 83.45 42.19Q83.66 42.2 83.86 42.17Q84.07 42.14 84.26 42.08Q84.46 42.01 84.64 41.91Q84.82 41.8 84.97 41.66Q85.13 41.53 85.26 41.36Q85.38 41.2 85.47 41.01Q85.57 40.82 85.62 40.62Q85.67 40.43 85.69 40.22Q85.7 40.01 85.67 39.8Q85.64 39.6 85.58 39.4Q85.51 39.2 85.41 39.03Q85.3 38.85 85.16 38.69Q84.22 37.62 83.17 36.67Q82.14 35.73 81.01 34.91Q80.76 34.74 80.49 34.64Q80.37 34.6 80.25 34.57Q80.05 34.52 79.84 34.52Q79.64 34.51 79.43 34.55Q79.23 34.58 79.04 34.65Q78.85 34.72 78.67 34.83Q78.49 34.94 78.35 35.08Q78.2 35.22 78.07 35.39Q77.95 35.56 77.87 35.74Q77.78 35.93 77.73 36.13Q77.68 36.33 77.67 36.53Q77.67 36.74 77.7 36.94Q77.73 37.15 77.8 37.34Q77.87 37.53 77.97 37.71Q78.08 37.89 78.22 38.04Q78.35 38.19 78.52 38.31Q79.7 39.17 80.75 40.17Q81.4 40.79 82 41.48ZM79.12 37.51C80.45 38.48 81.67 39.58 82.75 40.81C82.95 41.03 83.22 41.17 83.51 41.19C83.81 41.21 84.09 41.11 84.31 40.91C84.53 40.72 84.67 40.45 84.69 40.15C84.71 39.86 84.61 39.57 84.41 39.35C83.22 38 81.88 36.78 80.42 35.72C80.18 35.55 79.89 35.48 79.6 35.53C79.31 35.58 79.05 35.74 78.88 35.97C78.71 36.21 78.64 36.5 78.69 36.79C78.73 37.08 78.88 37.34 79.12 37.51Z" fill="#285A43" fill-opacity="1.000000" fill-rule="evenodd"/>
	<path id="Vector" d="M70.15 33.43C71.76 33.83 73.33 34.37 74.84 35.05C74.98 35.11 75.12 35.14 75.27 35.15C75.41 35.15 75.56 35.13 75.69 35.08C75.83 35.03 75.95 34.95 76.06 34.85C76.17 34.75 76.25 34.63 76.31 34.5C76.37 34.36 76.4 34.22 76.41 34.07C76.41 33.93 76.39 33.78 76.34 33.65C76.28 33.51 76.21 33.39 76.11 33.28C76.01 33.17 75.89 33.09 75.75 33.03C74.12 32.3 72.42 31.72 70.69 31.29C70.4 31.22 70.1 31.26 69.85 31.41C69.6 31.56 69.42 31.81 69.35 32.09C69.28 32.38 69.32 32.68 69.47 32.93C69.62 33.18 69.86 33.36 70.15 33.43Z" fill="#285A43" fill-opacity="1.000000" fill-rule="nonzero"/>
	<path id="Vector" d="M72.63 35.24Q73.55 35.57 74.44 35.96Q74.63 36.05 74.82 36.09Q75.02 36.14 75.23 36.15Q75.44 36.15 75.65 36.12Q75.85 36.09 76.05 36.01Q76.24 35.94 76.42 35.83Q76.59 35.72 76.75 35.58Q76.9 35.43 77.02 35.26Q77.14 35.1 77.22 34.91Q77.31 34.71 77.36 34.51Q77.4 34.31 77.41 34.1Q77.41 33.89 77.38 33.69Q77.35 33.49 77.27 33.29Q77.2 33.09 77.09 32.92Q76.98 32.75 76.83 32.59Q76.69 32.44 76.52 32.32Q76.35 32.2 76.16 32.12Q74.9 31.55 73.6 31.11Q72.28 30.65 70.93 30.32Q70.7 30.26 70.48 30.25Q70.29 30.25 70.1 30.28Q69.9 30.31 69.71 30.38Q69.51 30.45 69.33 30.56Q69.15 30.66 69 30.8Q68.85 30.94 68.73 31.11Q68.6 31.28 68.52 31.46Q68.43 31.65 68.38 31.85Q68.33 32.05 68.32 32.26Q68.31 32.46 68.34 32.67Q68.37 32.87 68.44 33.07Q68.5 33.26 68.61 33.44Q68.72 33.62 68.86 33.77Q68.99 33.92 69.16 34.05Q69.33 34.17 69.51 34.26Q69.7 34.35 69.9 34.4Q71.29 34.75 72.63 35.24ZM70.15 33.43C71.76 33.83 73.33 34.37 74.84 35.05C74.98 35.11 75.12 35.14 75.27 35.15C75.41 35.15 75.56 35.13 75.69 35.08C75.83 35.03 75.95 34.95 76.06 34.85C76.17 34.75 76.25 34.63 76.31 34.5C76.37 34.36 76.4 34.22 76.41 34.07C76.41 33.93 76.39 33.78 76.34 33.65C76.28 33.51 76.21 33.39 76.11 33.28C76.01 33.17 75.89 33.09 75.75 33.03C74.12 32.3 72.42 31.72 70.69 31.29C70.4 31.22 70.1 31.26 69.85 31.41C69.6 31.56 69.42 31.81 69.35 32.09C69.28 32.38 69.32 32.68 69.47 32.93C69.62 33.18 69.86 33.36 70.15 33.43Z" fill="#285A43" fill-opacity="1.000000" fill-rule="evenodd"/>
	<path id="Vector" d="M89.66 48.67C89.1 46.97 88.38 45.32 87.52 43.76C87.44 43.63 87.35 43.52 87.24 43.43C87.12 43.34 86.99 43.27 86.85 43.23C86.71 43.19 86.56 43.18 86.42 43.2C86.28 43.21 86.14 43.26 86.01 43.33C85.88 43.4 85.77 43.5 85.68 43.61C85.59 43.72 85.52 43.85 85.48 43.99C85.44 44.13 85.43 44.28 85.45 44.42C85.46 44.57 85.51 44.71 85.58 44.84C86.38 46.28 87.04 47.8 87.56 49.37C87.66 49.65 87.86 49.88 88.12 50.01C88.38 50.14 88.69 50.16 88.97 50.07C89.24 49.98 89.47 49.78 89.61 49.51C89.74 49.25 89.76 48.95 89.66 48.67Z" fill="#285A43" fill-opacity="1.000000" fill-rule="nonzero"/>
	<path id="Vector" d="M89.68 45.89Q89.1 44.56 88.39 43.27L88.39 43.27Q88.29 43.09 88.15 42.93Q88.02 42.78 87.86 42.64Q87.69 42.51 87.51 42.42Q87.33 42.33 87.12 42.27Q86.92 42.21 86.72 42.2Q86.51 42.18 86.3 42.2Q86.1 42.23 85.9 42.29Q85.71 42.35 85.52 42.46Q85.34 42.56 85.18 42.69Q85.03 42.82 84.9 42.99Q84.77 43.15 84.67 43.34Q84.58 43.52 84.52 43.72Q84.46 43.92 84.45 44.13Q84.43 44.33 84.45 44.54Q84.48 44.75 84.54 44.94Q84.6 45.14 84.71 45.32Q85.24 46.28 85.68 47.28Q86.21 48.46 86.61 49.68Q86.69 49.9 86.8 50.09Q86.9 50.26 87.02 50.4Q87.16 50.56 87.32 50.69Q87.49 50.81 87.67 50.9Q87.86 51 88.06 51.05Q88.26 51.11 88.47 51.12Q88.68 51.14 88.88 51.11Q89.08 51.08 89.28 51.02Q89.48 50.95 89.66 50.85Q89.84 50.75 90 50.61Q90.16 50.47 90.28 50.31Q90.41 50.15 90.5 49.96Q90.59 49.77 90.65 49.57Q90.7 49.37 90.72 49.17Q90.73 48.96 90.71 48.75Q90.68 48.55 90.61 48.35Q90.2 47.1 89.68 45.89ZM89.66 48.67C89.1 46.97 88.38 45.32 87.52 43.76C87.44 43.63 87.35 43.52 87.24 43.43C87.12 43.34 86.99 43.27 86.85 43.23C86.71 43.19 86.56 43.18 86.42 43.2C86.28 43.21 86.14 43.26 86.01 43.33C85.88 43.4 85.77 43.5 85.68 43.61C85.59 43.72 85.52 43.85 85.48 43.99C85.44 44.13 85.43 44.28 85.45 44.42C85.46 44.57 85.51 44.71 85.58 44.84C86.38 46.28 87.04 47.8 87.56 49.37C87.66 49.65 87.86 49.88 88.12 50.01C88.38 50.14 88.69 50.16 88.97 50.07C89.24 49.98 89.47 49.78 89.61 49.51C89.74 49.25 89.76 48.95 89.66 48.67Z" fill="#285A43" fill-opacity="1.000000" fill-rule="evenodd"/>
	<path id="Vector" d="M60.27 32.54C60.28 32.54 61.02 32.47 62.25 32.47C63.22 32.47 64.22 32.51 65.22 32.6C65.25 32.61 65.29 32.61 65.32 32.61C65.61 32.61 65.88 32.5 66.09 32.3C66.29 32.1 66.41 31.84 66.43 31.55C66.44 31.27 66.34 30.99 66.15 30.77C65.97 30.56 65.7 30.42 65.42 30.4C64.35 30.3 63.29 30.25 62.25 30.25C60.89 30.25 60.07 30.34 60.04 30.34C59.75 30.37 59.48 30.52 59.3 30.75C59.12 30.98 59.03 31.27 59.06 31.56C59.09 31.85 59.24 32.11 59.46 32.3C59.69 32.48 59.98 32.57 60.27 32.54Z" fill="#285A43" fill-opacity="1.000000" fill-rule="nonzero"/>
	<path id="Vector" d="M60.87 33.5Q61.52 33.47 62.25 33.47Q63.67 33.47 65.13 33.6Q65.22 33.61 65.32 33.61Q65.53 33.61 65.73 33.57Q65.92 33.53 66.11 33.46Q66.29 33.38 66.46 33.27Q66.63 33.16 66.78 33.02Q66.92 32.88 67.04 32.72Q67.16 32.56 67.24 32.37Q67.32 32.19 67.37 31.99Q67.42 31.8 67.43 31.6Q67.43 31.39 67.41 31.2Q67.38 31 67.31 30.81Q67.24 30.61 67.14 30.44Q67.04 30.27 66.91 30.12Q66.77 29.96 66.62 29.84Q66.46 29.72 66.28 29.62Q66.1 29.53 65.91 29.48Q65.71 29.42 65.51 29.4Q63.86 29.25 62.25 29.25Q61.37 29.25 60.59 29.3Q60.18 29.32 59.93 29.35Q59.65 29.38 59.4 29.48Q59.27 29.53 59.14 29.6Q58.96 29.7 58.8 29.83Q58.65 29.96 58.52 30.12Q58.39 30.29 58.29 30.47Q58.2 30.65 58.14 30.85Q58.08 31.05 58.06 31.25Q58.05 31.46 58.07 31.66Q58.09 31.87 58.15 32.07Q58.21 32.26 58.31 32.44Q58.41 32.63 58.54 32.78Q58.67 32.94 58.83 33.07Q58.99 33.21 59.17 33.3Q59.35 33.4 59.55 33.46Q59.75 33.52 59.96 33.54Q60.16 33.56 60.37 33.54L60.37 33.54Q60.56 33.52 60.87 33.5ZM60.27 32.54C60.28 32.54 61.02 32.47 62.25 32.47C63.22 32.47 64.22 32.51 65.22 32.6C65.25 32.61 65.29 32.61 65.32 32.61C65.61 32.61 65.88 32.5 66.09 32.3C66.29 32.1 66.41 31.84 66.43 31.55C66.44 31.27 66.34 30.99 66.15 30.77C65.97 30.56 65.7 30.42 65.42 30.4C64.35 30.3 63.29 30.25 62.25 30.25C60.89 30.25 60.07 30.34 60.04 30.34C59.75 30.37 59.48 30.52 59.3 30.75C59.12 30.98 59.03 31.27 59.06 31.56C59.09 31.85 59.24 32.11 59.46 32.3C59.69 32.48 59.98 32.57 60.27 32.54Z" fill="#285A43" fill-opacity="1.000000" fill-rule="evenodd"/>
</svg>
