<svg width="126.000000" height="126.000000" viewBox="0 0 126 126" fill="none" xmlns="http://www.w3.org/2000/svg" xmlns:xlink="http://www.w3.org/1999/xlink">
	<desc>
			Created with Pixso.
	</desc>
	<defs>
		<clipPath id="clip301_1624">
			<rect id="Indoor_Plant" rx="-0.500000" width="125.000000" height="125.000000" transform="translate(0.500000 0.500000)" fill="white" fill-opacity="0"/>
		</clipPath>
	</defs>
	<rect id="Indoor_Plant" rx="-0.500000" width="125.000000" height="125.000000" transform="translate(0.500000 0.500000)" fill="#FFFFFF" fill-opacity="0"/>
	<g clip-path="url(#clip301_1624)">
		<path id="Vector" d="M45.6 28.5C45.7 28.6 45.82 28.68 45.96 28.74C46.09 28.79 46.23 28.82 46.38 28.82C46.52 28.82 46.67 28.79 46.8 28.74C46.94 28.68 47.06 28.6 47.16 28.5C47.27 28.39 47.35 28.27 47.4 28.14C47.46 28 47.49 27.86 47.49 27.71C47.49 27.57 47.46 27.42 47.4 27.29C47.35 27.15 47.27 27.03 47.16 26.93L44.65 24.42C44.44 24.21 44.16 24.09 43.87 24.09C43.57 24.09 43.29 24.21 43.08 24.42C42.87 24.62 42.76 24.9 42.76 25.2C42.76 25.49 42.87 25.77 43.08 25.98L45.6 28.5Z" fill="#285A43" fill-opacity="1.000000" fill-rule="nonzero"/>
		<path id="Vector" d="M45.21 29.46Q45.38 29.58 45.57 29.66Q45.77 29.74 45.97 29.78Q46.17 29.82 46.38 29.82Q46.59 29.82 46.79 29.78Q46.99 29.74 47.19 29.66Q47.38 29.58 47.55 29.47Q47.72 29.35 47.87 29.2Q48.02 29.05 48.13 28.88Q48.25 28.71 48.33 28.52Q48.41 28.33 48.45 28.12Q48.49 27.92 48.49 27.71Q48.49 27.5 48.45 27.3Q48.41 27.1 48.33 26.91Q48.25 26.71 48.13 26.54Q48.02 26.37 47.87 26.22L45.36 23.71Q45.21 23.56 45.04 23.45Q44.87 23.33 44.67 23.25Q44.48 23.17 44.28 23.13Q44.07 23.09 43.87 23.09Q43.66 23.09 43.45 23.13Q43.25 23.17 43.06 23.25Q42.87 23.33 42.69 23.45Q42.52 23.56 42.38 23.71Q42.23 23.86 42.11 24.03Q42 24.2 41.92 24.39Q41.84 24.59 41.8 24.79Q41.76 24.99 41.76 25.2Q41.76 25.41 41.8 25.61Q41.84 25.81 41.92 26Q42 26.2 42.11 26.37Q42.23 26.54 42.38 26.69L44.89 29.2Q45.04 29.35 45.21 29.46ZM45.6 28.5C45.7 28.6 45.82 28.68 45.96 28.74C46.09 28.79 46.23 28.82 46.38 28.82C46.52 28.82 46.67 28.79 46.8 28.74C46.94 28.68 47.06 28.6 47.16 28.5C47.27 28.39 47.35 28.27 47.4 28.14C47.46 28 47.49 27.86 47.49 27.71C47.49 27.57 47.46 27.42 47.4 27.29C47.35 27.15 47.27 27.03 47.16 26.93L44.65 24.42C44.44 24.21 44.16 24.09 43.87 24.09C43.57 24.09 43.29 24.21 43.08 24.42C42.87 24.62 42.76 24.9 42.76 25.2C42.76 25.49 42.87 25.77 43.08 25.98L45.6 28.5Z" fill="#285A43" fill-opacity="1.000000" fill-rule="evenodd"/>
		<path id="Vector" d="M75.07 28.82C75.21 28.82 75.36 28.79 75.49 28.74C75.62 28.68 75.75 28.6 75.85 28.5L78.36 25.98C78.47 25.88 78.55 25.76 78.61 25.62C78.66 25.49 78.69 25.34 78.69 25.2C78.69 25.05 78.67 24.91 78.61 24.77C78.55 24.64 78.47 24.51 78.37 24.41C78.27 24.31 78.14 24.22 78.01 24.17C77.87 24.11 77.73 24.08 77.58 24.08C77.44 24.09 77.29 24.11 77.16 24.17C77.02 24.23 76.9 24.31 76.8 24.42L74.28 26.93C74.13 27.08 74.02 27.28 73.98 27.5C73.94 27.71 73.96 27.93 74.04 28.14C74.13 28.34 74.27 28.51 74.45 28.63C74.63 28.75 74.85 28.82 75.07 28.82Z" fill="#285A43" fill-opacity="1.000000" fill-rule="nonzero"/>
		<path id="Vector" d="M75.46 29.78Q75.67 29.74 75.87 29.66Q76.07 29.58 76.24 29.46Q76.41 29.35 76.56 29.2L79.07 26.69Q79.18 26.58 79.27 26.46Q79.43 26.25 79.53 26.01Q79.61 25.82 79.65 25.61Q79.69 25.41 79.69 25.2Q79.69 24.99 79.66 24.79Q79.62 24.58 79.54 24.39Q79.45 24.19 79.34 24.02Q79.23 23.85 79.08 23.7Q78.93 23.55 78.76 23.44Q78.58 23.32 78.39 23.24Q78.19 23.16 77.99 23.12Q77.79 23.08 77.58 23.08Q77.37 23.09 77.16 23.13Q76.96 23.17 76.77 23.25Q76.57 23.33 76.4 23.45Q76.23 23.56 76.08 23.71L73.58 26.22Q73.35 26.45 73.21 26.72Q73.06 26.99 73 27.3Q72.94 27.61 72.97 27.92Q73 28.22 73.12 28.52Q73.24 28.81 73.44 29.05Q73.63 29.29 73.9 29.46Q74.16 29.64 74.45 29.73Q74.75 29.82 75.07 29.82Q75.27 29.82 75.46 29.78ZM75.07 28.82C75.21 28.82 75.36 28.79 75.49 28.74C75.62 28.68 75.75 28.6 75.85 28.5L78.36 25.98C78.47 25.88 78.55 25.76 78.61 25.62C78.66 25.49 78.69 25.34 78.69 25.2C78.69 25.05 78.67 24.91 78.61 24.77C78.55 24.64 78.47 24.51 78.37 24.41C78.27 24.31 78.14 24.22 78.01 24.17C77.87 24.11 77.73 24.08 77.58 24.08C77.44 24.09 77.29 24.11 77.16 24.17C77.02 24.23 76.9 24.31 76.8 24.42L74.28 26.93C74.13 27.08 74.02 27.28 73.98 27.5C73.94 27.71 73.96 27.93 74.04 28.14C74.13 28.34 74.27 28.51 74.45 28.63C74.63 28.75 74.85 28.82 75.07 28.82Z" fill="#285A43" fill-opacity="1.000000" fill-rule="evenodd"/>
		<path id="Vector" d="M81.01 43.16L86.32 43.16C86.61 43.16 86.89 43.05 87.1 42.84C87.31 42.63 87.43 42.35 87.43 42.06C87.43 41.76 87.31 41.48 87.1 41.27C86.89 41.07 86.61 40.95 86.32 40.95L81.01 40.95C80.71 40.95 80.43 41.07 80.22 41.27C80.02 41.48 79.9 41.76 79.9 42.06C79.9 42.35 80.02 42.63 80.22 42.84C80.43 43.05 80.71 43.16 81.01 43.16Z" fill="#285A43" fill-opacity="1.000000" fill-rule="nonzero"/>
		<path id="Vector" d="M81.01 44.16L86.32 44.16Q86.53 44.16 86.73 44.12Q86.93 44.08 87.12 44Q87.32 43.92 87.49 43.81Q87.66 43.69 87.81 43.55Q87.96 43.4 88.07 43.23Q88.18 43.06 88.27 42.86Q88.35 42.67 88.39 42.47Q88.43 42.27 88.43 42.06Q88.43 41.85 88.39 41.64Q88.35 41.44 88.27 41.25Q88.18 41.06 88.07 40.88Q87.96 40.71 87.81 40.57Q87.66 40.42 87.49 40.3Q87.32 40.19 87.12 40.11Q86.93 40.03 86.73 39.99Q86.53 39.95 86.32 39.95L81.01 39.95Q80.8 39.95 80.6 39.99Q80.4 40.03 80.2 40.11Q80.01 40.19 79.84 40.3Q79.67 40.42 79.52 40.57Q79.37 40.71 79.26 40.88Q79.14 41.06 79.06 41.25Q78.98 41.44 78.94 41.64Q78.9 41.85 78.9 42.06Q78.9 42.27 78.94 42.47Q78.98 42.67 79.06 42.86Q79.14 43.06 79.26 43.23Q79.37 43.4 79.52 43.55Q79.67 43.69 79.84 43.81Q80.01 43.92 80.2 44Q80.39 44.08 80.6 44.12Q80.8 44.16 81.01 44.16ZM81.01 43.16L86.32 43.16C86.61 43.16 86.89 43.05 87.1 42.84C87.31 42.63 87.43 42.35 87.43 42.06C87.43 41.76 87.31 41.48 87.1 41.27C86.89 41.07 86.61 40.95 86.32 40.95L81.01 40.95C80.71 40.95 80.43 41.07 80.22 41.27C80.02 41.48 79.9 41.76 79.9 42.06C79.9 42.35 80.02 42.63 80.22 42.84C80.43 43.05 80.71 43.16 81.01 43.16Z" fill="#285A43" fill-opacity="1.000000" fill-rule="evenodd"/>
		<path id="Vector" d="M35.13 43.16L40.44 43.16C40.73 43.16 41.01 43.05 41.22 42.84C41.43 42.63 41.55 42.35 41.55 42.06C41.55 41.76 41.43 41.48 41.22 41.27C41.01 41.07 40.73 40.95 40.44 40.95L35.13 40.95C34.83 40.95 34.55 41.07 34.34 41.27C34.14 41.48 34.02 41.76 34.02 42.06C34.02 42.35 34.14 42.63 34.34 42.84C34.55 43.05 34.83 43.16 35.13 43.16Z" fill="#285A43" fill-opacity="1.000000" fill-rule="nonzero"/>
		<path id="Vector" d="M35.13 44.16L40.44 44.16Q40.65 44.16 40.85 44.12Q41.05 44.08 41.24 44Q41.44 43.92 41.61 43.81Q41.78 43.69 41.93 43.55Q42.08 43.4 42.19 43.23Q42.3 43.06 42.39 42.86Q42.47 42.67 42.51 42.47Q42.55 42.27 42.55 42.06Q42.55 41.85 42.51 41.64Q42.47 41.44 42.39 41.25Q42.3 41.06 42.19 40.88Q42.08 40.71 41.93 40.57Q41.78 40.42 41.61 40.3Q41.44 40.19 41.24 40.11Q41.05 40.03 40.85 39.99Q40.65 39.95 40.44 39.95L35.13 39.95Q34.92 39.95 34.72 39.99Q34.51 40.03 34.32 40.11Q34.13 40.19 33.96 40.3Q33.79 40.42 33.64 40.57Q33.49 40.71 33.38 40.88Q33.26 41.06 33.18 41.25Q33.1 41.44 33.06 41.64Q33.02 41.85 33.02 42.06Q33.02 42.27 33.06 42.47Q33.1 42.67 33.18 42.86Q33.26 43.06 33.38 43.23Q33.49 43.4 33.64 43.55Q33.79 43.69 33.96 43.81Q34.13 43.92 34.32 44Q34.51 44.08 34.72 44.12Q34.92 44.16 35.13 44.16ZM35.13 43.16L40.44 43.16C40.73 43.16 41.01 43.05 41.22 42.84C41.43 42.63 41.55 42.35 41.55 42.06C41.55 41.76 41.43 41.48 41.22 41.27C41.01 41.07 40.73 40.95 40.44 40.95L35.13 40.95C34.83 40.95 34.55 41.07 34.34 41.27C34.14 41.48 34.02 41.76 34.02 42.06C34.02 42.35 34.14 42.63 34.34 42.84C34.55 43.05 34.83 43.16 35.13 43.16Z" fill="#285A43" fill-opacity="1.000000" fill-rule="evenodd"/>
		<path id="Vector" d="M60.72 22.88C61.02 22.88 61.3 22.76 61.51 22.55C61.71 22.35 61.83 22.06 61.83 21.77L61.83 16.46C61.83 16.17 61.71 15.89 61.51 15.68C61.3 15.47 61.02 15.35 60.72 15.35C60.43 15.35 60.15 15.47 59.94 15.68C59.73 15.89 59.62 16.17 59.62 16.46L59.62 21.77C59.62 22.06 59.73 22.35 59.94 22.55C60.15 22.76 60.43 22.88 60.72 22.88Z" fill="#285A43" fill-opacity="1.000000" fill-rule="nonzero"/>
		<path id="Vector" d="M61.89 23.52Q62.06 23.41 62.21 23.26Q62.36 23.11 62.48 22.94Q62.59 22.77 62.67 22.58Q62.75 22.38 62.79 22.18Q62.83 21.98 62.83 21.77L62.83 16.46Q62.83 16.25 62.79 16.05Q62.75 15.85 62.67 15.65Q62.59 15.46 62.48 15.29Q62.36 15.12 62.21 14.97Q62.06 14.82 61.89 14.71Q61.72 14.59 61.53 14.51Q61.34 14.43 61.13 14.39Q60.93 14.35 60.72 14.35Q60.51 14.35 60.31 14.39Q60.11 14.43 59.92 14.51Q59.72 14.59 59.55 14.71Q59.38 14.82 59.23 14.97Q59.08 15.12 58.97 15.29Q58.86 15.46 58.78 15.65Q58.7 15.85 58.66 16.05Q58.62 16.25 58.62 16.46L58.62 21.77Q58.62 21.98 58.66 22.18Q58.7 22.38 58.78 22.58Q58.86 22.77 58.97 22.94Q59.08 23.11 59.23 23.26Q59.38 23.41 59.55 23.52Q59.72 23.64 59.92 23.72Q60.11 23.8 60.31 23.84Q60.51 23.88 60.72 23.88Q60.93 23.88 61.13 23.84Q61.34 23.8 61.53 23.72Q61.72 23.64 61.89 23.52ZM60.72 22.88C61.02 22.88 61.3 22.76 61.51 22.55C61.71 22.35 61.83 22.06 61.83 21.77L61.83 16.46C61.83 16.17 61.71 15.89 61.51 15.68C61.3 15.47 61.02 15.35 60.72 15.35C60.43 15.35 60.15 15.47 59.94 15.68C59.73 15.89 59.62 16.17 59.62 16.46L59.62 21.77C59.62 22.06 59.73 22.35 59.94 22.55C60.15 22.76 60.43 22.88 60.72 22.88Z" fill="#285A43" fill-opacity="1.000000" fill-rule="evenodd"/>
		<path id="Vector" d="M91 63.2L74.38 50.84C75.96 48.38 76.85 45.55 76.96 42.63C77.06 39.72 76.38 36.82 74.98 34.26C73.59 31.7 71.52 29.56 69.01 28.07C66.51 26.58 63.64 25.8 60.72 25.8C57.8 25.8 54.94 26.58 52.43 28.07C49.92 29.56 47.86 31.7 46.46 34.26C45.06 36.82 44.38 39.72 44.49 42.63C44.59 45.55 45.48 48.38 47.06 50.84L30.44 63.2C30.3 63.3 30.19 63.44 30.11 63.59C30.04 63.74 30 63.91 30 64.09L30 109.53C30 109.82 30.11 110.11 30.32 110.31C30.53 110.52 30.81 110.64 31.1 110.64L90.34 110.64C90.64 110.64 90.92 110.52 91.13 110.31C91.33 110.11 91.45 109.82 91.45 109.53L91.45 64.09C91.45 63.91 91.41 63.74 91.33 63.59C91.26 63.44 91.14 63.3 91 63.2ZM46.69 42.06C46.69 39.88 47.2 37.74 48.17 35.79C49.14 33.84 50.54 32.15 52.28 30.84C54.02 29.53 56.04 28.65 58.17 28.25C60.31 27.86 62.51 27.96 64.6 28.56C66.69 29.17 68.61 30.24 70.22 31.72C71.82 33.19 73.05 35.01 73.83 37.04C74.61 39.07 74.9 41.26 74.69 43.42C74.47 45.59 73.76 47.67 72.6 49.51L61.38 41.17C61.19 41.03 60.96 40.95 60.72 40.95C60.48 40.95 60.25 41.03 60.06 41.17L48.84 49.51C47.44 47.28 46.69 44.69 46.69 42.06ZM89.24 108.42L32.21 108.42L32.21 64.64L60.72 43.44L89.24 64.64L89.24 108.42Z" fill="#285A43" fill-opacity="1.000000" fill-rule="nonzero"/>
		<path id="Vector" d="M74.38 50.84C75.96 48.38 76.85 45.55 76.96 42.63C77.06 39.72 76.38 36.82 74.98 34.26C73.59 31.7 71.52 29.56 69.01 28.07C66.51 26.58 63.64 25.8 60.72 25.8C57.8 25.8 54.94 26.58 52.43 28.07C49.92 29.56 47.86 31.7 46.46 34.26C45.06 36.82 44.38 39.72 44.49 42.63C44.59 45.55 45.48 48.38 47.06 50.84L30.44 63.2C30.3 63.3 30.19 63.44 30.11 63.59C30.04 63.74 30 63.91 30 64.09L30 109.53C30 109.82 30.11 110.11 30.32 110.31C30.53 110.52 30.81 110.64 31.1 110.64L90.34 110.64C90.64 110.64 90.92 110.52 91.13 110.31C91.33 110.11 91.45 109.82 91.45 109.53L91.45 64.09C91.45 63.91 91.41 63.74 91.33 63.59C91.26 63.44 91.14 63.3 91 63.2L74.38 50.84ZM45.74 50.58Q44.81 48.95 44.26 47.21Q43.57 45.03 43.49 42.67Q43.4 40.3 43.93 38.08Q44.45 35.86 45.58 33.78Q46.72 31.71 48.3 30.06Q49.89 28.42 51.92 27.21Q53.96 26.01 56.16 25.4Q58.36 24.8 60.72 24.8Q63.09 24.8 65.29 25.4Q67.49 26.01 69.53 27.21Q71.56 28.42 73.14 30.06Q74.73 31.71 75.86 33.78Q76.99 35.86 77.52 38.08Q78.04 40.3 77.96 42.67Q77.87 45.03 77.19 47.21Q76.64 48.95 75.71 50.58L91.6 62.4Q91.8 62.55 91.96 62.73Q92.11 62.92 92.23 63.14Q92.34 63.36 92.39 63.6Q92.45 63.84 92.45 64.09L92.45 109.53Q92.45 109.97 92.3 110.34Q92.14 110.71 91.83 111.02Q91.52 111.33 91.15 111.48Q90.78 111.64 90.34 111.64L31.1 111.64Q30.67 111.64 30.29 111.48Q29.92 111.33 29.61 111.02Q29.3 110.71 29.15 110.34Q29 109.97 29 109.53L29 64.09Q29 63.84 29.05 63.6Q29.11 63.36 29.22 63.14Q29.33 62.92 29.49 62.73Q29.64 62.55 29.84 62.4L45.74 50.58ZM46.69 42.06C46.69 39.88 47.2 37.74 48.17 35.79C49.14 33.84 50.54 32.15 52.28 30.84C54.02 29.53 56.04 28.65 58.17 28.25C60.31 27.86 62.51 27.96 64.6 28.56C66.69 29.17 68.61 30.24 70.22 31.72C71.82 33.19 73.05 35.01 73.83 37.04C74.61 39.07 74.9 41.26 74.69 43.42C74.51 45.25 73.97 47.02 73.11 48.64C72.95 48.94 72.78 49.23 72.6 49.51L71.8 48.91L61.38 41.17C61.19 41.03 60.96 40.95 60.72 40.95C60.48 40.95 60.25 41.03 60.06 41.17L49.65 48.91L48.84 49.51C48.66 49.23 48.49 48.94 48.34 48.64C47.26 46.62 46.69 44.36 46.69 42.06ZM49.15 48.04L59.47 40.36Q59.75 40.16 60.06 40.05Q60.37 39.95 60.72 39.95Q61.07 39.95 61.39 40.05Q61.7 40.16 61.98 40.36L72.3 48.04Q72.75 47.18 73.06 46.27Q73.54 44.85 73.69 43.32Q73.84 41.8 73.64 40.31Q73.44 38.83 72.9 37.4Q72.35 35.96 71.51 34.73Q70.67 33.49 69.54 32.45Q68.41 31.41 67.11 30.68Q65.8 29.95 64.33 29.53Q62.85 29.1 61.36 29.03Q59.87 28.96 58.36 29.23Q56.85 29.51 55.48 30.11Q54.11 30.72 52.88 31.64Q51.66 32.56 50.7 33.71Q49.75 34.86 49.06 36.24Q48.38 37.6 48.04 39.05Q47.69 40.51 47.69 42.06Q47.69 43.93 48.19 45.66Q48.54 46.89 49.15 48.04ZM32.21 107.42L32.21 64.64L60.72 43.44L89.24 64.64L89.24 107.42L89.24 108.42L32.21 108.42L32.21 107.42ZM33.21 107.42L88.24 107.42L88.24 65.15L60.72 44.68L33.21 65.15L33.21 107.42Z" fill="#285A43" fill-opacity="1.000000" fill-rule="evenodd"/>
		<path id="Vector" d="M47.73 71.71L46.74 71.71C46.44 71.71 46.16 71.83 45.95 72.04C45.74 72.25 45.63 72.53 45.63 72.82L45.63 73.81C45.63 77.53 47.1 81.1 49.72 83.74C52.34 86.38 55.9 87.88 59.62 87.91L59.62 96.02C54.9 96.21 50.31 97.65 46.34 100.2C46.09 100.36 45.92 100.61 45.86 100.9C45.79 101.18 45.85 101.48 46.01 101.73C46.17 101.98 46.42 102.15 46.7 102.21C46.99 102.28 47.29 102.22 47.54 102.06C51.47 99.54 56.05 98.2 60.72 98.2C65.4 98.2 69.97 99.54 73.91 102.06C74.03 102.14 74.17 102.2 74.31 102.23C74.46 102.25 74.6 102.25 74.75 102.22C74.89 102.19 75.03 102.13 75.15 102.05C75.27 101.97 75.37 101.86 75.45 101.74C75.53 101.61 75.58 101.48 75.61 101.33C75.63 101.19 75.63 101.04 75.6 100.9C75.57 100.75 75.51 100.62 75.42 100.5C75.34 100.38 75.23 100.28 75.11 100.2C71.13 97.65 66.55 96.21 61.83 96.02L61.83 87.91C65.55 87.88 69.1 86.38 71.72 83.74C74.34 81.1 75.81 77.53 75.82 73.81L75.82 72.82C75.82 72.53 75.7 72.25 75.49 72.04C75.29 71.83 75 71.71 74.71 71.71L73.72 71.71C70.94 71.72 68.23 72.54 65.92 74.07C63.61 75.6 61.8 77.78 60.72 80.34C59.64 77.78 57.83 75.6 55.52 74.07C53.21 72.54 50.5 71.72 47.73 71.71ZM47.84 73.93C50.96 73.96 53.93 75.21 56.13 77.41C58.33 79.61 59.58 82.59 59.61 85.7C56.5 85.67 53.53 84.42 51.33 82.22C49.13 80.01 47.88 77.04 47.84 73.93ZM73.6 73.93C73.57 77.04 72.32 80.01 70.12 82.22C67.92 84.42 64.94 85.67 61.83 85.7C61.86 82.59 63.12 79.61 65.32 77.41C67.52 75.21 70.49 73.96 73.6 73.93Z" fill="#285A43" fill-opacity="1.000000" fill-rule="nonzero"/>
		<path id="Vector" d="M47.73 70.71L46.74 70.71Q46.3 70.71 45.93 70.87Q45.55 71.02 45.25 71.33Q44.94 71.64 44.78 72.01Q44.63 72.38 44.63 72.82L44.63 73.81Q44.63 76.92 45.73 79.58Q46.83 82.24 49.01 84.44Q51.2 86.65 53.85 87.77Q56.07 88.7 58.62 88.87L58.62 95.07Q55.39 95.31 52.39 96.25Q48.95 97.34 45.8 99.36Q45.43 99.6 45.2 99.93Q44.97 100.26 44.88 100.68Q44.79 101.11 44.86 101.51Q44.93 101.9 45.16 102.27Q45.4 102.64 45.73 102.87Q46.06 103.1 46.49 103.19Q46.92 103.28 47.31 103.21Q47.71 103.14 48.08 102.91Q50.96 101.06 54.12 100.13Q57.29 99.2 60.72 99.2Q64.16 99.2 67.32 100.13Q70.48 101.06 73.37 102.91Q73.48 102.98 73.59 103.03Q73.84 103.16 74.13 103.21Q74.33 103.25 74.54 103.25Q74.75 103.24 74.96 103.2Q75.16 103.16 75.35 103.07Q75.54 102.99 75.72 102.87Q75.89 102.75 76.03 102.6Q76.18 102.45 76.29 102.28Q76.4 102.1 76.48 101.91Q76.56 101.71 76.59 101.51Q76.63 101.3 76.62 101.09Q76.62 100.89 76.57 100.68Q76.53 100.47 76.44 100.28Q76.36 100.09 76.24 99.92Q76.12 99.75 75.97 99.61Q75.82 99.47 75.64 99.35Q72.52 97.35 69.12 96.27Q66.09 95.31 62.83 95.07L62.83 88.87Q65.37 88.7 67.6 87.77Q70.24 86.65 72.43 84.44Q74.62 82.24 75.72 79.58Q76.81 76.92 76.82 73.81L76.82 72.82Q76.82 72.38 76.66 72.01Q76.51 71.64 76.2 71.33Q75.89 71.02 75.52 70.87Q75.15 70.71 74.71 70.71L73.72 70.71Q71.44 70.72 69.35 71.35Q67.26 71.98 65.37 73.24Q63.47 74.5 62.08 76.17Q61.33 77.08 60.72 78.11Q60.12 77.08 59.37 76.17Q57.97 74.5 56.08 73.24Q54.18 71.98 52.09 71.35Q50.01 70.72 47.73 70.71ZM61.29 79.16C61.08 79.54 60.89 79.94 60.72 80.34C60.55 79.94 60.36 79.54 60.16 79.16C59.06 77.11 57.47 75.36 55.52 74.07C53.21 72.54 50.5 71.72 47.73 71.71L46.74 71.71C46.44 71.71 46.16 71.83 45.95 72.04C45.74 72.25 45.63 72.53 45.63 72.82L45.63 73.81C45.63 77.53 47.1 81.1 49.72 83.74C52.34 86.38 55.9 87.88 59.62 87.91L59.62 96.02C54.9 96.21 50.31 97.65 46.34 100.2C46.09 100.36 45.92 100.61 45.86 100.9C45.79 101.18 45.85 101.48 46.01 101.73C46.17 101.98 46.42 102.15 46.7 102.21C46.99 102.28 47.29 102.22 47.54 102.06C51.47 99.54 56.05 98.2 60.72 98.2C65.4 98.2 69.97 99.54 73.91 102.06C74.03 102.14 74.17 102.2 74.31 102.23C74.46 102.25 74.6 102.25 74.75 102.22C74.89 102.19 75.03 102.13 75.15 102.05C75.27 101.97 75.37 101.86 75.45 101.74C75.53 101.61 75.58 101.48 75.61 101.33C75.63 101.19 75.63 101.04 75.6 100.9C75.57 100.75 75.51 100.62 75.42 100.5C75.34 100.38 75.23 100.28 75.11 100.2C71.13 97.65 66.55 96.21 61.83 96.02L61.83 87.91C65.55 87.88 69.1 86.38 71.72 83.74C74.34 81.1 75.81 77.53 75.82 73.81L75.82 72.82C75.82 72.53 75.7 72.25 75.49 72.04C75.29 71.83 75 71.71 74.71 71.71L73.72 71.71C70.94 71.72 68.23 72.54 65.92 74.07C63.97 75.36 62.38 77.11 61.29 79.16ZM71.78 78.04Q70.98 79.94 69.41 81.51Q67.84 83.08 65.94 83.88Q64.51 84.48 62.89 84.64Q63.05 83.02 63.65 81.59Q64.45 79.69 66.02 78.12Q67.59 76.55 69.49 75.75Q70.93 75.15 72.54 74.99Q72.38 76.61 71.78 78.04ZM72.6 73.98C69.86 74.24 67.28 75.45 65.32 77.41C63.35 79.38 62.15 81.96 61.88 84.7C61.85 85.03 61.83 85.36 61.83 85.7L61.83 85.7C62.17 85.7 62.5 85.68 62.83 85.65C65.57 85.39 68.15 84.18 70.12 82.22C72.08 80.25 73.29 77.67 73.55 74.93C73.58 74.6 73.6 74.26 73.6 73.93C73.27 73.93 72.93 73.95 72.6 73.98ZM51.95 75.75Q53.85 76.55 55.42 78.12Q56.99 79.69 57.79 81.59Q58.4 83.02 58.56 84.64Q56.94 84.48 55.51 83.88Q53.61 83.08 52.04 81.51Q50.46 79.94 49.67 78.04Q49.06 76.61 48.9 74.99Q50.52 75.15 51.95 75.75ZM47.9 74.93C48.16 77.67 49.37 80.25 51.33 82.22C53.29 84.18 55.87 85.39 58.61 85.65C58.95 85.68 59.28 85.7 59.61 85.7C59.61 85.36 59.59 85.03 59.56 84.7C59.3 81.96 58.09 79.38 56.13 77.41C54.17 75.45 51.59 74.24 48.84 73.98C48.51 73.95 48.18 73.93 47.84 73.93C47.85 74.26 47.86 74.6 47.9 74.93Z" fill="#285A43" fill-opacity="1.000000" fill-rule="evenodd"/>
	</g>
</svg>
