<svg width="32.000000" height="32.000000" viewBox="0 0 32 32" fill="none" xmlns="http://www.w3.org/2000/svg" xmlns:xlink="http://www.w3.org/1999/xlink">
	<desc>
			Created with Pixso.
	</desc>
	<defs>
		<clipPath id="clip301_1903">
			<rect id="mdi:instagram" rx="0.000000" width="31.000000" height="31.000000" transform="translate(0.500000 0.500000)" fill="white" fill-opacity="0"/>
		</clipPath>
	</defs>
	<rect id="mdi:instagram" rx="0.000000" width="31.000000" height="31.000000" transform="translate(0.500000 0.500000)" fill="#FFFFFF" fill-opacity="0"/>
	<g clip-path="url(#clip301_1903)">
		<path id="Vector" d="M10.4 2.66L21.6 2.66C25.86 2.66 29.33 6.13 29.33 10.39L29.33 21.59C29.33 23.65 28.51 25.61 27.06 27.06C25.61 28.51 23.65 29.33 21.6 29.33L10.4 29.33C6.13 29.33 2.66 25.86 2.66 21.59L2.66 10.39C2.66 8.34 3.48 6.38 4.93 4.93C6.38 3.48 8.34 2.66 10.4 2.66ZM10.13 5.33C8.86 5.33 7.63 5.83 6.73 6.73C5.83 7.63 5.33 8.86 5.33 10.13L5.33 21.86C5.33 24.52 7.48 26.66 10.13 26.66L21.86 26.66C23.13 26.66 24.36 26.16 25.26 25.26C26.16 24.36 26.66 23.13 26.66 21.86L26.66 10.13C26.66 7.47 24.52 5.33 21.86 5.33L10.13 5.33ZM23 7.33C23.44 7.33 23.86 7.5 24.17 7.82C24.49 8.13 24.66 8.55 24.66 9C24.66 9.44 24.49 9.86 24.17 10.17C23.86 10.49 23.44 10.66 23 10.66C22.55 10.66 22.13 10.49 21.82 10.17C21.5 9.86 21.33 9.44 21.33 9C21.33 8.55 21.5 8.13 21.82 7.82C22.13 7.5 22.55 7.33 23 7.33ZM16 9.33C17.76 9.33 19.46 10.03 20.71 11.28C21.96 12.53 22.66 14.23 22.66 16C22.66 17.76 21.96 19.46 20.71 20.71C19.46 21.96 17.76 22.66 16 22.66C14.23 22.66 12.53 21.96 11.28 20.71C10.03 19.46 9.33 17.76 9.33 16C9.33 14.23 10.03 12.53 11.28 11.28C12.53 10.03 14.23 9.33 16 9.33ZM16 12C14.93 12 13.92 12.42 13.17 13.17C12.42 13.92 12 14.93 12 16C12 17.06 12.42 18.07 13.17 18.82C13.92 19.57 14.93 20 16 20C17.06 20 18.07 19.57 18.82 18.82C19.57 18.07 20 17.06 20 16C20 14.93 19.57 13.92 18.82 13.17C18.07 12.42 17.06 12 16 12Z" fill="#FFFFFF" fill-opacity="1.000000" fill-rule="nonzero"/>
	</g>
</svg>
