<svg width="126.000000" height="126.000000" viewBox="0 0 126 126" fill="none" xmlns="http://www.w3.org/2000/svg" xmlns:xlink="http://www.w3.org/1999/xlink">
	<desc>
			Created with Pixso.
	</desc>
	<defs>
		<clipPath id="clip301_1633">
			<rect id="Outdoor_Plant" rx="-0.500000" width="125.000000" height="125.000000" transform="translate(0.500000 0.500000)" fill="white" fill-opacity="0"/>
		</clipPath>
	</defs>
	<rect id="Outdoor_Plant" rx="-0.500000" width="125.000000" height="125.000000" transform="translate(0.500000 0.500000)" fill="#FFFFFF" fill-opacity="0"/>
	<g clip-path="url(#clip301_1633)">
		<path id="Vector" d="M78.93 80.63C78.93 80.34 78.82 80.06 78.61 79.85C78.4 79.64 78.12 79.52 77.83 79.52C74.62 79.53 71.5 80.49 68.85 82.3C66.21 84.1 64.17 86.66 63 89.64C61.82 86.66 59.78 84.1 57.14 82.3C54.49 80.49 51.37 79.53 48.16 79.52C47.87 79.52 47.59 79.64 47.38 79.85C47.17 80.06 47.06 80.34 47.06 80.63C47.06 84.66 48.6 88.55 51.35 91.5C54.1 94.44 57.86 96.24 61.89 96.53L61.89 105.29C56.87 105.48 52 107.01 47.78 109.72C47.53 109.88 47.36 110.13 47.3 110.41C47.23 110.7 47.29 111 47.45 111.25C47.61 111.49 47.86 111.67 48.14 111.73C48.43 111.79 48.73 111.74 48.98 111.58C53.16 108.9 58.03 107.48 63 107.48C67.96 107.48 72.83 108.9 77.01 111.58C77.13 111.66 77.27 111.71 77.41 111.74C77.56 111.76 77.7 111.76 77.85 111.73C77.99 111.7 78.12 111.64 78.24 111.56C78.36 111.48 78.46 111.37 78.54 111.25C78.62 111.13 78.67 110.99 78.7 110.85C78.73 110.7 78.72 110.56 78.69 110.41C78.66 110.27 78.6 110.14 78.52 110.02C78.44 109.9 78.33 109.8 78.21 109.72C73.99 107.01 69.12 105.48 64.1 105.29L64.1 96.53C68.13 96.24 71.89 94.44 74.64 91.5C77.39 88.55 78.93 84.66 78.93 80.63ZM76.67 81.79C76.39 85.01 74.98 88.04 72.69 90.33C70.4 92.62 67.38 94.03 64.15 94.31C64.43 91.08 65.84 88.05 68.13 85.76C70.42 83.47 73.44 82.06 76.67 81.79ZM49.32 81.79C52.55 82.06 55.57 83.47 57.86 85.76C60.15 88.05 61.56 91.08 61.84 94.31C58.61 94.03 55.59 92.62 53.3 90.33C51.01 88.04 49.6 85.01 49.32 81.79Z" fill="#FFFFFF" fill-opacity="1.000000" fill-rule="nonzero"/>
		<path id="Vector" d="M79.78 79.82Q79.62 79.45 79.32 79.14Q79.01 78.83 78.63 78.68Q78.26 78.52 77.83 78.52Q75.21 78.53 72.82 79.27Q70.44 80 68.29 81.47Q66.13 82.94 64.58 84.89Q63.69 86 63 87.27Q62.3 86 61.41 84.89Q59.86 82.94 57.7 81.47Q55.54 80 53.16 79.26Q50.78 78.53 48.17 78.52Q47.73 78.52 47.35 78.68Q46.98 78.83 46.67 79.14Q46.37 79.45 46.21 79.82Q46.06 80.19 46.06 80.63Q46.06 83.97 47.2 86.86Q48.34 89.74 50.62 92.18Q52.89 94.62 55.69 95.95Q58.1 97.1 60.89 97.44L60.89 104.34Q57.44 104.58 54.23 105.59Q50.58 106.73 47.24 108.88Q46.87 109.11 46.64 109.44Q46.41 109.78 46.32 110.2Q46.23 110.63 46.3 111.02Q46.37 111.42 46.61 111.79Q46.84 112.16 47.17 112.39Q47.5 112.62 47.93 112.71Q48.36 112.8 48.75 112.73Q49.15 112.66 49.52 112.42Q52.59 110.45 55.96 109.47Q59.33 108.48 63 108.48Q66.65 108.48 70.02 109.46Q73.39 110.45 76.47 112.42Q76.64 112.53 76.82 112.6Q77.02 112.68 77.24 112.72Q77.44 112.76 77.65 112.76Q77.85 112.75 78.06 112.71Q78.26 112.66 78.45 112.58Q78.64 112.5 78.81 112.38Q78.99 112.26 79.13 112.11Q79.27 111.96 79.38 111.79Q79.5 111.61 79.57 111.42Q79.65 111.23 79.68 111.02Q79.72 110.82 79.72 110.61Q79.71 110.41 79.67 110.2Q79.63 110 79.54 109.81Q79.46 109.62 79.34 109.45Q79.22 109.27 79.07 109.13Q78.93 108.99 78.75 108.88Q75.41 106.73 71.75 105.59Q68.55 104.58 65.1 104.34L65.1 97.44Q67.89 97.1 70.3 95.95Q73.1 94.62 75.37 92.18Q77.65 89.74 78.79 86.85Q79.93 83.97 79.93 80.63Q79.93 80.19 79.78 79.82ZM64.1 96.53C68.13 96.24 71.89 94.44 74.64 91.5C77.39 88.55 78.93 84.66 78.93 80.63C78.93 80.34 78.82 80.06 78.61 79.85C78.4 79.64 78.12 79.52 77.83 79.52C74.62 79.53 71.5 80.49 68.85 82.3C66.59 83.84 64.76 85.94 63.55 88.39C63.35 88.79 63.16 89.21 63 89.64C62.83 89.21 62.64 88.79 62.44 88.39C61.23 85.94 59.4 83.84 57.14 82.3C54.49 80.49 51.37 79.53 48.16 79.52C47.87 79.52 47.59 79.64 47.38 79.85C47.17 80.06 47.06 80.34 47.06 80.63C47.06 84.66 48.6 88.55 51.35 91.5C54.1 94.44 57.86 96.24 61.89 96.53L61.89 105.29C56.87 105.48 52 107.01 47.78 109.72C47.53 109.88 47.36 110.13 47.3 110.41C47.23 110.7 47.29 111 47.45 111.25C47.61 111.49 47.86 111.67 48.14 111.73C48.43 111.79 48.73 111.74 48.98 111.58C53.16 108.9 58.03 107.48 63 107.48C67.96 107.48 72.83 108.9 77.01 111.58C77.13 111.66 77.27 111.71 77.41 111.74C77.56 111.76 77.7 111.76 77.85 111.73C77.99 111.7 78.12 111.64 78.24 111.56C78.36 111.48 78.46 111.37 78.54 111.25C78.62 111.13 78.67 110.99 78.7 110.85C78.73 110.7 78.72 110.56 78.69 110.41C78.66 110.27 78.6 110.14 78.52 110.02C78.44 109.9 78.33 109.8 78.21 109.72C73.99 107.01 69.12 105.48 64.1 105.29L64.1 96.53ZM53.53 83.9Q55.51 84.83 57.16 86.47Q58.8 88.11 59.72 90.09Q60.39 91.53 60.68 93.15Q59.07 92.86 57.63 92.19Q55.65 91.27 54 89.62Q52.36 87.98 51.44 86Q50.77 84.56 50.48 82.95Q52.09 83.24 53.53 83.9ZM49.45 82.8C49.91 85.65 51.25 88.28 53.3 90.33C55.34 92.38 57.98 93.72 60.82 94.18C61.16 94.23 61.5 94.28 61.84 94.31C61.81 93.96 61.77 93.63 61.71 93.29C61.25 90.45 59.91 87.81 57.86 85.76C55.82 83.71 53.18 82.37 50.34 81.91C50 81.86 49.66 81.82 49.32 81.79C49.35 82.13 49.39 82.47 49.45 82.8ZM74.55 86Q73.63 87.98 71.99 89.62Q70.34 91.27 68.36 92.19Q66.92 92.86 65.31 93.15Q65.6 91.53 66.27 90.09Q67.19 88.11 68.83 86.47Q70.48 84.83 72.46 83.9Q73.9 83.24 75.51 82.95Q75.22 84.56 74.55 86ZM75.65 81.91C72.81 82.37 70.17 83.71 68.13 85.76C66.08 87.81 64.74 90.45 64.28 93.29C64.22 93.63 64.18 93.96 64.15 94.31C64.49 94.28 64.83 94.23 65.17 94.18C68.01 93.72 70.65 92.38 72.69 90.33C74.74 88.28 76.08 85.65 76.54 82.8C76.6 82.47 76.64 82.13 76.67 81.79C76.33 81.82 75.99 81.86 75.65 81.91Z" fill="#FFFFFF" fill-opacity="1.000000" fill-rule="evenodd"/>
		<path id="Vector" d="M63 58.69C66.23 58.69 69.39 57.74 72.08 55.94C74.77 54.14 76.86 51.59 78.1 48.6C79.34 45.61 79.66 42.33 79.03 39.15C78.4 35.98 76.84 33.07 74.56 30.78C72.27 28.5 69.36 26.94 66.18 26.31C63.01 25.68 59.73 26 56.74 27.24C53.75 28.48 51.2 30.57 49.4 33.26C47.6 35.95 46.64 39.11 46.64 42.34C46.65 46.68 48.37 50.84 51.44 53.9C54.5 56.97 58.66 58.69 63 58.69ZM63 28.21C65.79 28.21 68.52 29.04 70.85 30.59C73.17 32.15 74.98 34.35 76.05 36.94C77.12 39.52 77.4 42.36 76.86 45.1C76.31 47.84 74.97 50.36 72.99 52.34C71.01 54.32 68.49 55.66 65.75 56.21C63.01 56.75 60.17 56.47 57.59 55.4C55 54.33 52.8 52.52 51.24 50.2C49.69 47.87 48.86 45.14 48.86 42.34C48.86 38.6 50.35 35 53 32.35C55.65 29.7 59.25 28.21 63 28.21Z" fill="#FFFFFF" fill-opacity="1.000000" fill-rule="nonzero"/>
		<path id="Vector" d="M68.04 58.96Q70.45 58.23 72.63 56.77Q74.82 55.31 76.42 53.36Q78.02 51.42 79.02 48.98Q80.03 46.55 80.28 44.05Q80.52 41.54 80.01 38.96Q79.5 36.38 78.31 34.16Q77.12 31.94 75.26 30.08Q73.4 28.22 71.18 27.03Q68.96 25.84 66.38 25.33Q63.8 24.81 61.29 25.06Q58.79 25.31 56.36 26.32Q53.92 27.32 51.98 28.92Q50.03 30.52 48.57 32.71Q47.11 34.89 46.38 37.3Q45.64 39.71 45.64 42.34Q45.65 45.94 46.92 49.01Q48.19 52.07 50.73 54.61Q53.27 57.15 56.34 58.42Q59.4 59.69 62.99 59.69Q65.63 59.69 68.04 58.96ZM63 58.69C66.23 58.69 69.39 57.74 72.08 55.94C74.77 54.14 76.86 51.59 78.1 48.6C79.34 45.61 79.66 42.33 79.03 39.15C78.4 35.98 76.84 33.07 74.56 30.78C72.27 28.5 69.36 26.94 66.18 26.31C63.01 25.68 59.73 26 56.74 27.24C53.75 28.48 51.2 30.57 49.4 33.26C47.6 35.95 46.64 39.11 46.64 42.34C46.65 46.68 48.37 50.84 51.44 53.9C54.5 56.97 58.66 58.69 63 58.69ZM63 28.21C65.79 28.21 68.52 29.04 70.85 30.59C73.17 32.15 74.98 34.35 76.05 36.94C77.12 39.52 77.4 42.36 76.86 45.1C76.31 47.84 74.97 50.36 72.99 52.34C71.01 54.32 68.49 55.66 65.75 56.21C63.01 56.75 60.17 56.47 57.59 55.4C55 54.33 52.8 52.52 51.24 50.2C49.69 47.87 48.86 45.14 48.86 42.34C48.86 38.6 50.35 35 53 32.35C55.65 29.7 59.25 28.21 63 28.21ZM66.81 29.76Q68.63 30.31 70.29 31.42Q71.95 32.53 73.16 34Q74.37 35.48 75.13 37.32Q75.89 39.16 76.08 41.06Q76.27 42.95 75.88 44.91Q75.49 46.86 74.59 48.54Q73.69 50.22 72.28 51.63Q70.87 53.04 69.19 53.94Q67.51 54.84 65.56 55.23Q63.6 55.62 61.71 55.43Q59.81 55.24 57.97 54.48Q56.13 53.72 54.65 52.51Q53.18 51.3 52.07 49.64Q50.97 47.99 50.41 46.16Q49.86 44.34 49.86 42.34Q49.86 39.63 50.82 37.31Q51.79 34.99 53.71 33.06Q55.63 31.14 57.96 30.18Q60.28 29.21 63 29.21Q64.98 29.21 66.81 29.76Z" fill="#FFFFFF" fill-opacity="1.000000" fill-rule="evenodd"/>
		<path id="Vector" d="M78.22 56C78.12 55.9 78 55.82 77.86 55.76C77.73 55.71 77.58 55.68 77.44 55.68C77.29 55.68 77.15 55.71 77.01 55.76C76.88 55.82 76.76 55.9 76.65 56C76.55 56.11 76.47 56.23 76.41 56.36C76.36 56.5 76.33 56.64 76.33 56.79C76.33 56.93 76.36 57.08 76.41 57.21C76.47 57.35 76.55 57.47 76.65 57.57L79.19 60.1C79.29 60.21 79.41 60.29 79.55 60.34C79.68 60.4 79.82 60.43 79.97 60.43C80.11 60.43 80.26 60.4 80.39 60.34C80.53 60.29 80.65 60.21 80.75 60.1C80.86 60 80.94 59.88 80.99 59.74C81.05 59.61 81.08 59.46 81.08 59.32C81.08 59.17 81.05 59.03 80.99 58.9C80.94 58.76 80.86 58.64 80.75 58.54L78.22 56Z" fill="#FFFFFF" fill-opacity="1.000000" fill-rule="nonzero"/>
		<path id="Vector" d="M78.61 55.04Q78.44 54.92 78.24 54.84Q78.05 54.76 77.85 54.72Q77.65 54.68 77.44 54.68Q77.23 54.68 77.03 54.72Q76.83 54.76 76.63 54.84Q76.44 54.92 76.27 55.04Q76.1 55.15 75.95 55.3Q75.8 55.45 75.69 55.62Q75.57 55.79 75.49 55.98Q75.41 56.17 75.37 56.38Q75.33 56.58 75.33 56.79Q75.33 57 75.37 57.2Q75.41 57.4 75.49 57.59Q75.57 57.79 75.69 57.96Q75.8 58.13 75.95 58.28L78.48 60.81Q78.63 60.96 78.8 61.07Q78.97 61.19 79.16 61.27Q79.36 61.35 79.56 61.39Q79.76 61.43 79.97 61.43Q80.18 61.43 80.38 61.39Q80.58 61.35 80.78 61.27Q80.97 61.19 81.14 61.07Q81.31 60.96 81.46 60.81Q81.61 60.66 81.72 60.49Q81.84 60.32 81.92 60.13Q82 59.93 82.04 59.73Q82.08 59.53 82.08 59.32Q82.08 59.11 82.04 58.91Q82 58.71 81.92 58.51Q81.84 58.32 81.72 58.15Q81.61 57.98 81.46 57.83L78.93 55.3Q78.78 55.15 78.61 55.04ZM78.22 56C78.12 55.9 78 55.82 77.86 55.76C77.73 55.71 77.58 55.68 77.44 55.68C77.29 55.68 77.15 55.71 77.01 55.76C76.88 55.82 76.76 55.9 76.65 56C76.55 56.11 76.47 56.23 76.41 56.36C76.36 56.5 76.33 56.64 76.33 56.79C76.33 56.93 76.36 57.08 76.41 57.21C76.47 57.35 76.55 57.47 76.65 57.57L79.19 60.1C79.29 60.21 79.41 60.29 79.55 60.34C79.68 60.4 79.82 60.43 79.97 60.43C80.11 60.43 80.26 60.4 80.39 60.34C80.53 60.29 80.65 60.21 80.75 60.1C80.86 60 80.94 59.88 80.99 59.74C81.05 59.61 81.08 59.46 81.08 59.32C81.08 59.17 81.05 59.03 80.99 58.9C80.94 58.76 80.86 58.64 80.75 58.54L78.22 56Z" fill="#FFFFFF" fill-opacity="1.000000" fill-rule="evenodd"/>
		<path id="Vector" d="M47.77 28.68C47.87 28.79 47.99 28.87 48.13 28.92C48.26 28.98 48.41 29.01 48.55 29.01C48.7 29.01 48.84 28.98 48.98 28.92C49.11 28.87 49.23 28.79 49.34 28.68C49.44 28.58 49.52 28.46 49.58 28.33C49.63 28.19 49.66 28.05 49.66 27.9C49.66 27.76 49.63 27.61 49.58 27.48C49.52 27.34 49.44 27.22 49.34 27.12L46.8 24.59C46.6 24.38 46.31 24.26 46.02 24.26C45.73 24.26 45.45 24.38 45.24 24.59C45.03 24.79 44.91 25.08 44.91 25.37C44.91 25.66 45.03 25.95 45.24 26.15L47.77 28.68Z" fill="#FFFFFF" fill-opacity="1.000000" fill-rule="nonzero"/>
		<path id="Vector" d="M47.38 29.65Q47.55 29.77 47.75 29.85Q47.94 29.93 48.14 29.97Q48.34 30.01 48.55 30.01Q48.76 30.01 48.96 29.97Q49.16 29.93 49.36 29.85Q49.55 29.77 49.72 29.65Q49.89 29.54 50.04 29.39Q50.19 29.24 50.3 29.07Q50.42 28.9 50.5 28.71Q50.58 28.51 50.62 28.31Q50.66 28.11 50.66 27.9Q50.66 27.69 50.62 27.49Q50.58 27.29 50.5 27.1Q50.42 26.9 50.3 26.73Q50.19 26.56 50.04 26.41L47.51 23.88Q47.36 23.73 47.19 23.62Q47.02 23.5 46.83 23.42Q46.63 23.34 46.43 23.3Q46.23 23.26 46.02 23.26Q45.81 23.26 45.61 23.3Q45.41 23.34 45.21 23.42Q45.02 23.5 44.85 23.62Q44.68 23.73 44.53 23.88Q44.38 24.03 44.27 24.2Q44.15 24.37 44.07 24.56Q43.99 24.76 43.95 24.96Q43.91 25.16 43.91 25.37Q43.91 25.58 43.95 25.78Q43.99 25.98 44.07 26.18Q44.15 26.37 44.27 26.54Q44.38 26.71 44.53 26.86L47.06 29.39Q47.21 29.54 47.38 29.65ZM47.77 28.68C47.87 28.79 47.99 28.87 48.13 28.92C48.26 28.98 48.41 29.01 48.55 29.01C48.7 29.01 48.84 28.98 48.98 28.92C49.11 28.87 49.23 28.79 49.34 28.68C49.44 28.58 49.52 28.46 49.58 28.33C49.63 28.19 49.66 28.05 49.66 27.9C49.66 27.76 49.63 27.61 49.58 27.48C49.52 27.34 49.44 27.22 49.34 27.12L46.8 24.59C46.6 24.38 46.31 24.26 46.02 24.26C45.73 24.26 45.45 24.38 45.24 24.59C45.03 24.79 44.91 25.08 44.91 25.37C44.91 25.66 45.03 25.95 45.24 26.15L47.77 28.68Z" fill="#FFFFFF" fill-opacity="1.000000" fill-rule="evenodd"/>
		<path id="Vector" d="M79.19 24.59L76.65 27.12C76.45 27.33 76.33 27.61 76.33 27.9C76.33 28.2 76.45 28.48 76.65 28.68C76.86 28.89 77.14 29.01 77.44 29.01C77.73 29.01 78.01 28.89 78.22 28.68L80.75 26.15C80.96 25.95 81.08 25.66 81.08 25.37C81.08 25.08 80.96 24.79 80.75 24.59C80.54 24.38 80.26 24.26 79.97 24.26C79.68 24.26 79.39 24.38 79.19 24.59Z" fill="#FFFFFF" fill-opacity="1.000000" fill-rule="nonzero"/>
		<path id="Vector" d="M78.48 23.88L75.95 26.41L75.95 26.41Q75.8 26.56 75.69 26.73Q75.57 26.9 75.49 27.1Q75.41 27.29 75.37 27.49Q75.33 27.69 75.33 27.9Q75.33 28.11 75.37 28.31Q75.41 28.51 75.49 28.71Q75.57 28.9 75.69 29.07Q75.8 29.24 75.95 29.39Q76.1 29.54 76.27 29.65Q76.44 29.77 76.63 29.85Q76.83 29.93 77.03 29.97Q77.23 30.01 77.44 30.01Q77.65 30.01 77.85 29.97Q78.05 29.93 78.24 29.85Q78.44 29.77 78.61 29.65Q78.78 29.54 78.93 29.39L81.46 26.86Q81.61 26.71 81.72 26.54Q81.84 26.37 81.92 26.18Q82 25.98 82.04 25.78Q82.08 25.58 82.08 25.37Q82.08 25.16 82.04 24.96Q82 24.76 81.92 24.56Q81.84 24.37 81.72 24.2Q81.61 24.03 81.46 23.88Q81.31 23.73 81.14 23.62Q80.97 23.5 80.78 23.42Q80.58 23.34 80.38 23.3Q80.18 23.26 79.97 23.26Q79.76 23.26 79.56 23.3Q79.36 23.34 79.16 23.42Q78.97 23.5 78.8 23.62Q78.63 23.73 78.48 23.88ZM79.19 24.59L76.65 27.12C76.45 27.33 76.33 27.61 76.33 27.9C76.33 28.2 76.45 28.48 76.65 28.68C76.86 28.89 77.14 29.01 77.44 29.01C77.73 29.01 78.01 28.89 78.22 28.68L80.75 26.15C80.96 25.95 81.08 25.66 81.08 25.37C81.08 25.08 80.96 24.79 80.75 24.59C80.54 24.38 80.26 24.26 79.97 24.26C79.68 24.26 79.39 24.38 79.19 24.59Z" fill="#FFFFFF" fill-opacity="1.000000" fill-rule="evenodd"/>
		<path id="Vector" d="M49.34 56C49.13 55.8 48.85 55.68 48.55 55.68C48.26 55.68 47.98 55.8 47.77 56L45.24 58.54C45.03 58.74 44.91 59.03 44.91 59.32C44.91 59.61 45.03 59.89 45.24 60.1C45.45 60.31 45.73 60.43 46.02 60.43C46.31 60.43 46.6 60.31 46.8 60.1L49.34 57.57C49.44 57.47 49.52 57.35 49.58 57.21C49.63 57.08 49.66 56.93 49.66 56.79C49.66 56.64 49.63 56.5 49.58 56.36C49.52 56.23 49.44 56.11 49.34 56Z" fill="#FFFFFF" fill-opacity="1.000000" fill-rule="nonzero"/>
		<path id="Vector" d="M48.96 54.72Q48.76 54.68 48.55 54.68Q48.34 54.68 48.14 54.72Q47.94 54.76 47.75 54.84Q47.55 54.92 47.38 55.04Q47.21 55.15 47.06 55.3L44.53 57.83Q44.38 57.98 44.27 58.15Q44.15 58.32 44.07 58.51Q43.99 58.71 43.95 58.91Q43.91 59.11 43.91 59.32Q43.91 59.53 43.95 59.73Q43.99 59.93 44.07 60.13Q44.15 60.32 44.27 60.49Q44.38 60.66 44.53 60.81Q44.68 60.96 44.85 61.07Q45.02 61.19 45.21 61.27Q45.41 61.35 45.61 61.39Q45.81 61.43 46.02 61.43Q46.23 61.43 46.43 61.39Q46.63 61.35 46.83 61.27Q47.02 61.19 47.19 61.07Q47.36 60.96 47.51 60.81L50.04 58.28Q50.19 58.13 50.3 57.96Q50.42 57.79 50.5 57.59Q50.58 57.4 50.62 57.2Q50.66 57 50.66 56.79Q50.66 56.58 50.62 56.38Q50.58 56.17 50.5 55.98Q50.42 55.79 50.3 55.62Q50.19 55.45 50.04 55.3Q49.89 55.15 49.72 55.03Q49.55 54.92 49.36 54.84Q49.16 54.76 48.96 54.72ZM49.34 56C49.13 55.8 48.85 55.68 48.55 55.68C48.26 55.68 47.98 55.8 47.77 56L45.24 58.54C45.03 58.74 44.91 59.03 44.91 59.32C44.91 59.61 45.03 59.89 45.24 60.1C45.45 60.31 45.73 60.43 46.02 60.43C46.31 60.43 46.6 60.31 46.8 60.1L49.34 57.57C49.44 57.47 49.52 57.35 49.58 57.21C49.63 57.08 49.66 56.93 49.66 56.79C49.66 56.64 49.63 56.5 49.58 56.36C49.52 56.23 49.44 56.11 49.34 56Z" fill="#FFFFFF" fill-opacity="1.000000" fill-rule="evenodd"/>
		<path id="Vector" d="M90 41.24L83.42 41.24C83.13 41.24 82.85 41.35 82.64 41.56C82.43 41.77 82.31 42.05 82.31 42.34C82.31 42.64 82.43 42.92 82.64 43.13C82.85 43.34 83.13 43.45 83.42 43.45L90 43.45C90.29 43.45 90.57 43.34 90.78 43.13C90.99 42.92 91.11 42.64 91.11 42.34C91.11 42.05 90.99 41.77 90.78 41.56C90.57 41.35 90.29 41.24 90 41.24Z" fill="#FFFFFF" fill-opacity="1.000000" fill-rule="nonzero"/>
		<path id="Vector" d="M90 40.24L83.42 40.24Q83.21 40.24 83.01 40.28Q82.81 40.32 82.61 40.4Q82.42 40.48 82.25 40.59Q82.08 40.71 81.93 40.85Q81.78 41 81.67 41.17Q81.55 41.34 81.47 41.54Q81.39 41.73 81.35 41.93Q81.31 42.14 81.31 42.34Q81.31 42.55 81.35 42.76Q81.39 42.96 81.47 43.15Q81.55 43.34 81.67 43.52Q81.78 43.69 81.93 43.83Q82.08 43.98 82.25 44.1Q82.42 44.21 82.61 44.29Q82.81 44.37 83.01 44.41Q83.21 44.45 83.42 44.45L90 44.45Q90.21 44.45 90.41 44.41Q90.61 44.37 90.8 44.29Q91 44.21 91.17 44.1Q91.34 43.98 91.49 43.83Q91.64 43.69 91.75 43.52Q91.86 43.34 91.95 43.15Q92.03 42.96 92.07 42.76Q92.11 42.55 92.11 42.34Q92.11 42.14 92.07 41.93Q92.03 41.73 91.95 41.54Q91.87 41.34 91.75 41.17Q91.64 41 91.49 40.85Q91.34 40.71 91.17 40.59Q91 40.48 90.8 40.4Q90.61 40.32 90.41 40.28Q90.21 40.24 90 40.24ZM90 41.24L83.42 41.24C83.13 41.24 82.85 41.35 82.64 41.56C82.43 41.77 82.31 42.05 82.31 42.34C82.31 42.64 82.43 42.92 82.64 43.13C82.85 43.34 83.13 43.45 83.42 43.45L90 43.45C90.29 43.45 90.57 43.34 90.78 43.13C90.99 42.92 91.11 42.64 91.11 42.34C91.11 42.05 90.99 41.77 90.78 41.56C90.57 41.35 90.29 41.24 90 41.24Z" fill="#FFFFFF" fill-opacity="1.000000" fill-rule="evenodd"/>
		<path id="Vector" d="M42.57 41.24L35.99 41.24C35.7 41.24 35.42 41.35 35.21 41.56C35 41.77 34.88 42.05 34.88 42.34C34.88 42.64 35 42.92 35.21 43.13C35.42 43.34 35.7 43.45 35.99 43.45L42.57 43.45C42.86 43.45 43.14 43.34 43.35 43.13C43.56 42.92 43.68 42.64 43.68 42.34C43.68 42.05 43.56 41.77 43.35 41.56C43.14 41.35 42.86 41.24 42.57 41.24Z" fill="#FFFFFF" fill-opacity="1.000000" fill-rule="nonzero"/>
		<path id="Vector" d="M42.57 40.24L35.99 40.24Q35.78 40.24 35.58 40.28Q35.38 40.32 35.19 40.4Q34.99 40.48 34.82 40.59Q34.65 40.71 34.5 40.85Q34.35 41 34.24 41.17Q34.13 41.34 34.04 41.54Q33.96 41.73 33.92 41.93Q33.88 42.14 33.88 42.34Q33.88 42.55 33.92 42.76Q33.96 42.96 34.04 43.15Q34.13 43.34 34.24 43.52Q34.35 43.69 34.5 43.83Q34.65 43.98 34.82 44.1Q34.99 44.21 35.19 44.29Q35.38 44.37 35.58 44.41Q35.78 44.45 35.99 44.45L42.57 44.45Q42.78 44.45 42.98 44.41Q43.18 44.37 43.38 44.29Q43.57 44.21 43.74 44.1Q43.91 43.98 44.06 43.83Q44.21 43.69 44.32 43.52Q44.44 43.34 44.52 43.15Q44.6 42.96 44.64 42.76Q44.68 42.55 44.68 42.34Q44.68 42.14 44.64 41.93Q44.6 41.73 44.52 41.54Q44.44 41.34 44.32 41.17Q44.21 41 44.06 40.85Q43.91 40.71 43.74 40.59Q43.57 40.48 43.38 40.4Q43.18 40.32 42.98 40.28Q42.78 40.24 42.57 40.24ZM42.57 41.24L35.99 41.24C35.7 41.24 35.42 41.35 35.21 41.56C35 41.77 34.88 42.05 34.88 42.34C34.88 42.64 35 42.92 35.21 43.13C35.42 43.34 35.7 43.45 35.99 43.45L42.57 43.45C42.86 43.45 43.14 43.34 43.35 43.13C43.56 42.92 43.68 42.64 43.68 42.34C43.68 42.05 43.56 41.77 43.35 41.56C43.14 41.35 42.86 41.24 42.57 41.24Z" fill="#FFFFFF" fill-opacity="1.000000" fill-rule="evenodd"/>
		<path id="Vector" d="M61.89 62.77L61.89 69.35C61.89 69.64 62 69.92 62.21 70.13C62.42 70.34 62.7 70.46 63 70.46C63.29 70.46 63.57 70.34 63.78 70.13C63.99 69.92 64.1 69.64 64.1 69.35L64.1 62.77C64.1 62.48 63.99 62.19 63.78 61.99C63.57 61.78 63.29 61.66 63 61.66C62.7 61.66 62.42 61.78 62.21 61.99C62 62.19 61.89 62.48 61.89 62.77Z" fill="#FFFFFF" fill-opacity="1.000000" fill-rule="nonzero"/>
		<path id="Vector" d="M60.89 62.77L60.89 69.35Q60.89 69.56 60.93 69.76Q60.97 69.96 61.05 70.15Q61.13 70.35 61.24 70.52Q61.36 70.69 61.5 70.84Q61.65 70.99 61.82 71.1Q61.99 71.21 62.19 71.29Q62.38 71.37 62.58 71.42Q62.79 71.46 63 71.46Q63.2 71.46 63.41 71.42Q63.61 71.37 63.8 71.29Q64 71.21 64.17 71.1Q64.34 70.99 64.49 70.84Q64.63 70.69 64.75 70.52Q64.86 70.35 64.94 70.15Q65.02 69.96 65.06 69.76Q65.1 69.56 65.1 69.35L65.1 62.77Q65.1 62.56 65.06 62.36Q65.02 62.16 64.94 61.96Q64.86 61.77 64.75 61.6Q64.63 61.43 64.49 61.28Q64.34 61.13 64.17 61.02Q64 60.9 63.8 60.82Q63.61 60.74 63.41 60.7Q63.2 60.66 63 60.66Q62.79 60.66 62.58 60.7Q62.38 60.74 62.19 60.82Q61.99 60.9 61.82 61.02Q61.65 61.13 61.5 61.28Q61.36 61.43 61.24 61.6Q61.13 61.77 61.05 61.96Q60.97 62.16 60.93 62.36Q60.89 62.56 60.89 62.77ZM61.89 69.35L61.89 62.77C61.89 62.48 62 62.19 62.21 61.99C62.42 61.78 62.7 61.66 63 61.66C63.29 61.66 63.57 61.78 63.78 61.99C63.99 62.19 64.1 62.48 64.1 62.77L64.1 69.35C64.1 69.64 63.99 69.92 63.78 70.13C63.57 70.34 63.29 70.46 63 70.46C62.7 70.46 62.42 70.34 62.21 70.13C62 69.92 61.89 69.64 61.89 69.35Z" fill="#FFFFFF" fill-opacity="1.000000" fill-rule="evenodd"/>
		<path id="Vector" d="M63 23.03C63.29 23.03 63.57 22.91 63.78 22.7C63.99 22.49 64.1 22.21 64.1 21.92L64.1 15.34C64.1 15.05 63.99 14.77 63.78 14.56C63.57 14.35 63.29 14.23 63 14.23C62.7 14.23 62.42 14.35 62.21 14.56C62 14.77 61.89 15.05 61.89 15.34L61.89 21.92C61.89 22.06 61.92 22.21 61.97 22.34C62.03 22.48 62.11 22.6 62.21 22.7C62.31 22.81 62.44 22.89 62.57 22.94C62.71 23 62.85 23.03 63 23.03Z" fill="#FFFFFF" fill-opacity="1.000000" fill-rule="nonzero"/>
		<path id="Vector" d="M64.17 23.67Q64.34 23.56 64.49 23.41Q64.63 23.26 64.75 23.09Q64.86 22.92 64.94 22.73Q65.02 22.53 65.06 22.33Q65.1 22.13 65.1 21.92L65.1 15.34Q65.1 15.13 65.06 14.93Q65.02 14.73 64.94 14.54Q64.86 14.34 64.75 14.17Q64.63 14 64.49 13.85Q64.34 13.7 64.17 13.59Q64 13.47 63.8 13.39Q63.61 13.31 63.41 13.27Q63.2 13.23 63 13.23Q62.79 13.23 62.58 13.27Q62.38 13.31 62.19 13.39Q61.99 13.47 61.82 13.59Q61.65 13.7 61.5 13.85Q61.36 14 61.24 14.17Q61.13 14.34 61.05 14.54Q60.97 14.73 60.93 14.93Q60.89 15.13 60.89 15.34L60.89 21.92Q60.89 22.13 60.93 22.33Q60.97 22.53 61.05 22.73Q61.13 22.92 61.24 23.09Q61.36 23.26 61.5 23.41Q61.65 23.56 61.82 23.67Q61.99 23.79 62.19 23.87Q62.38 23.95 62.58 23.99Q62.79 24.03 63 24.03Q63.2 24.03 63.41 23.99Q63.61 23.95 63.8 23.87Q64 23.79 64.17 23.67ZM63 23.03C63.29 23.03 63.57 22.91 63.78 22.7C63.99 22.49 64.1 22.21 64.1 21.92L64.1 15.34C64.1 15.05 63.99 14.77 63.78 14.56C63.57 14.35 63.29 14.23 63 14.23C62.7 14.23 62.42 14.35 62.21 14.56C62 14.77 61.89 15.05 61.89 15.34L61.89 21.92C61.89 22.06 61.92 22.21 61.97 22.34C62.03 22.48 62.11 22.6 62.21 22.7C62.31 22.81 62.44 22.89 62.57 22.94C62.71 23 62.85 23.03 63 23.03Z" fill="#FFFFFF" fill-opacity="1.000000" fill-rule="evenodd"/>
	</g>
</svg>
