<svg width="126.000000" height="126.000000" viewBox="0 0 126 126" fill="none" xmlns="http://www.w3.org/2000/svg" xmlns:xlink="http://www.w3.org/1999/xlink">
	<desc>
			Created with Pixso.
	</desc>
	<defs>
		<clipPath id="clip301_1804">
			<rect id="Pruning 1" rx="0.000000" width="125.000000" height="125.000000" transform="translate(0.500000 0.500000)" fill="white" fill-opacity="0"/>
		</clipPath>
	</defs>
	<rect id="Pruning 1" rx="0.000000" width="125.000000" height="125.000000" transform="translate(0.500000 0.500000)" fill="#FFFFFF" fill-opacity="0"/>
	<g clip-path="url(#clip301_1804)">
		<path id="Vector" d="M91.19 75.21L71.52 55.54L65.87 49.89L65.87 29.94C65.87 27.24 64.79 24.65 62.88 22.74C60.97 20.83 58.38 19.75 55.68 19.75L53.48 19.75C53.19 19.75 52.91 19.87 52.7 20.08C52.49 20.28 52.38 20.56 52.38 20.86L52.38 46.13L35.95 29.7C35.84 29.6 35.72 29.51 35.59 29.46C35.45 29.4 35.31 29.37 35.16 29.37C35.02 29.37 34.87 29.4 34.74 29.46C34.6 29.51 34.48 29.6 34.38 29.7L32.82 31.25C30.92 33.17 29.85 35.76 29.85 38.46C29.85 41.16 30.92 43.75 32.82 45.66L50.69 63.53C51.27 64.11 51.92 64.62 52.62 65.04L52.62 92.11C52.61 94.66 53.18 97.17 54.29 99.47C55.4 101.76 57.01 103.77 59.01 105.35C59.62 105.83 60.34 106.13 61.1 106.21C61.86 106.29 62.64 106.16 63.33 105.83C64.02 105.49 64.6 104.97 65.01 104.32C65.42 103.67 65.63 102.92 65.63 102.15L65.63 68.06L89.09 91.52C89.47 91.9 89.92 92.2 90.41 92.41C90.9 92.61 91.43 92.72 91.96 92.72C92.43 92.72 92.88 92.64 93.32 92.49C94.05 92.24 94.69 91.79 95.17 91.19C95.65 90.59 95.95 89.87 96.03 89.1C96.33 86.57 96.05 84.01 95.21 81.6C94.37 79.19 93 77.01 91.19 75.21ZM55.68 21.97C57.8 21.97 59.82 22.81 61.32 24.3C62.81 25.8 63.65 27.83 63.66 29.94L63.66 47.68L62.77 46.8C61.72 45.74 60.35 45.06 58.88 44.85C57.4 44.64 55.9 44.91 54.59 45.62L54.59 21.97L55.68 21.97ZM34.39 44.09C32.9 42.6 32.06 40.57 32.06 38.46C32.06 36.34 32.9 34.32 34.39 32.82L35.16 32.05L52.25 49.13C52.46 49.34 52.74 49.46 53.03 49.46C53.33 49.46 53.61 49.34 53.81 49.13L54.59 48.36L54.59 48.36C55.46 47.49 56.66 46.99 57.9 46.99C59.14 46.99 60.33 47.49 61.21 48.36L69.17 56.33L63.53 61.96C62.04 63.46 60.01 64.3 57.9 64.3C55.78 64.3 53.76 63.46 52.26 61.96L34.39 44.09ZM63.42 102.15C63.42 102.5 63.32 102.85 63.13 103.15C62.94 103.44 62.68 103.68 62.36 103.83C62.05 103.99 61.69 104.05 61.35 104.01C61 103.97 60.67 103.83 60.39 103.62C58.65 102.24 57.25 100.5 56.29 98.5C55.32 96.51 54.83 94.32 54.83 92.11L54.83 66.04C57.39 66.85 60.15 66.61 62.54 65.4L62.97 65.4L63.42 65.85L63.42 102.15ZM93.83 88.85C93.79 89.2 93.65 89.53 93.43 89.8C93.21 90.07 92.92 90.28 92.59 90.4C92.26 90.51 91.9 90.53 91.56 90.45C91.22 90.38 90.91 90.2 90.66 89.95L64.67 63.96L70.74 57.89L89.63 76.78C91.2 78.34 92.39 80.24 93.12 82.33C93.85 84.42 94.09 86.65 93.83 88.85Z" fill="#285A43" fill-opacity="1.000000" fill-rule="nonzero"/>
		<path id="Vector" d="M94.42 77.64Q93.35 75.95 91.9 74.51L72.23 54.84L66.87 49.48L66.87 29.94Q66.87 27.62 66.05 25.64Q65.23 23.67 63.59 22.03Q61.95 20.39 59.98 19.57Q58 18.75 55.68 18.75L53.48 18.75Q53.05 18.75 52.68 18.91Q52.3 19.06 51.99 19.37Q51.69 19.68 51.53 20.05Q51.38 20.42 51.38 20.86L51.38 43.72L36.65 28.99Q36.51 28.84 36.34 28.73Q36.16 28.62 35.97 28.53Q35.78 28.45 35.57 28.41Q35.37 28.37 35.16 28.37Q34.95 28.37 34.75 28.41Q34.55 28.45 34.36 28.53Q34.16 28.62 33.99 28.73Q33.82 28.84 33.67 28.99L32.12 30.55Q30.48 32.19 29.66 34.17Q28.85 36.14 28.85 38.46Q28.85 40.77 29.66 42.75Q30.48 44.73 32.12 46.37L49.99 64.24Q50.46 64.71 50.98 65.12Q51.29 65.37 51.62 65.59L51.62 92.11Q51.61 94.15 52.05 96.08Q52.49 98.04 53.39 99.9Q54.28 101.75 55.53 103.31Q56.79 104.87 58.4 106.14Q58.96 106.58 59.6 106.85Q60.26 107.12 60.99 107.2Q61.72 107.28 62.41 107.16Q63.1 107.05 63.76 106.73Q64.42 106.41 64.94 105.94Q65.47 105.47 65.85 104.85Q66.24 104.23 66.44 103.56Q66.63 102.88 66.63 102.15L66.63 70.47L88.38 92.23Q88.72 92.56 89.1 92.83Q89.53 93.12 90.02 93.33Q90.49 93.52 90.97 93.62Q91.46 93.72 91.96 93.72Q92.42 93.72 92.86 93.64Q93.26 93.57 93.65 93.43Q94.32 93.2 94.88 92.81Q95.48 92.4 95.95 91.81Q96.41 91.24 96.68 90.59Q96.94 89.94 97.03 89.21Q97.26 87.22 97.06 85.27Q96.84 83.24 96.16 81.27Q95.48 79.34 94.42 77.64ZM65.63 69.47L65.63 102.15C65.63 102.92 65.42 103.67 65.01 104.32C64.6 104.97 64.02 105.49 63.33 105.83C62.64 106.16 61.86 106.29 61.1 106.21C60.34 106.13 59.62 105.83 59.01 105.35C57.01 103.77 55.4 101.76 54.29 99.47C53.18 97.17 52.61 94.66 52.62 92.11L52.62 65.04C51.92 64.62 51.27 64.11 50.69 63.53L32.82 45.66C30.92 43.75 29.85 41.16 29.85 38.46C29.85 35.76 30.92 33.17 32.82 31.25L34.38 29.7C34.48 29.6 34.6 29.51 34.74 29.46C34.87 29.4 35.02 29.37 35.16 29.37C35.31 29.37 35.45 29.4 35.59 29.46C35.72 29.51 35.84 29.6 35.95 29.7L51.38 45.13L52.38 46.13L52.38 20.86C52.38 20.56 52.49 20.28 52.7 20.08C52.91 19.87 53.19 19.75 53.48 19.75L55.68 19.75C58.38 19.75 60.97 20.83 62.88 22.74C64.79 24.65 65.87 27.24 65.87 29.94L65.87 49.89L71.52 55.54L91.19 75.21C93 77.01 94.37 79.19 95.21 81.6C96.05 84.01 96.33 86.57 96.03 89.1C95.95 89.87 95.65 90.59 95.17 91.19C94.69 91.79 94.05 92.24 93.32 92.49C92.88 92.64 92.43 92.72 91.96 92.72C91.43 92.72 90.9 92.61 90.41 92.41C89.92 92.2 89.47 91.9 89.09 91.52L65.63 68.06L65.63 69.47ZM54.59 48.36L53.81 49.13C53.61 49.34 53.33 49.46 53.03 49.46C52.74 49.46 52.46 49.34 52.25 49.13L35.16 32.05L34.39 32.82C32.9 34.32 32.06 36.34 32.06 38.46C32.06 40.57 32.9 42.6 34.39 44.09L52.26 61.96C53.76 63.46 55.78 64.3 57.9 64.3C60.01 64.3 62.04 63.46 63.53 61.96L68.47 57.03L69.17 56.33L68.47 55.62L61.21 48.36C60.33 47.49 59.14 46.99 57.9 46.99C56.66 46.99 55.46 47.49 54.59 48.36L54.59 48.36ZM55.32 49.05L54.52 49.84Q54.21 50.15 53.84 50.3Q53.47 50.46 53.03 50.46Q52.59 50.46 52.22 50.3Q51.85 50.15 51.54 49.84L35.16 33.46L35.1 33.53Q34.08 34.55 33.57 35.78Q33.06 37.01 33.06 38.46Q33.06 39.9 33.57 41.14Q34.08 42.37 35.1 43.39L52.97 61.26Q53.99 62.28 55.22 62.79Q56.45 63.3 57.9 63.3Q59.34 63.3 60.57 62.79Q61.81 62.28 62.83 61.26L67.76 56.33L60.5 49.07Q59.96 48.53 59.31 48.26Q58.66 47.99 57.9 47.99Q57.13 47.99 56.48 48.26Q55.85 48.53 55.32 49.05ZM58.35 23.48Q59.59 23.99 60.61 25.01Q61.63 26.03 62.14 27.26Q62.65 28.5 62.66 29.94L62.66 45.37Q62.07 44.92 61.43 44.6Q60.32 44.05 59.02 43.86Q57.72 43.67 56.49 43.89Q56.04 43.98 55.59 44.11L55.59 22.97L55.68 22.97Q57.12 22.97 58.35 23.48ZM54.59 22.97L54.59 21.97L55.68 21.97C57.8 21.97 59.82 22.81 61.32 24.3C62.81 25.8 63.65 27.83 63.66 29.94L63.66 47.68L62.77 46.8C62.74 46.76 62.7 46.72 62.66 46.68C61.62 45.69 60.3 45.05 58.88 44.85C57.77 44.69 56.64 44.8 55.59 45.18C55.25 45.3 54.91 45.45 54.59 45.62L54.59 22.97ZM93.83 88.85C93.79 89.2 93.65 89.53 93.43 89.8C93.21 90.07 92.92 90.28 92.59 90.4C92.26 90.51 91.9 90.53 91.56 90.45C91.22 90.38 90.91 90.2 90.66 89.95L65.37 64.67L64.67 63.96L65.37 63.26L70.74 57.89L71.45 58.6L89.63 76.78C91.2 78.34 92.39 80.24 93.12 82.33C93.85 84.42 94.09 86.65 93.83 88.85ZM70.74 59.31L88.92 77.49Q90.04 78.6 90.86 79.91Q91.66 81.19 92.17 82.66Q92.69 84.14 92.86 85.66Q93.02 87.17 92.84 88.73Q92.82 88.87 92.77 88.98Q92.73 89.09 92.65 89.18Q92.58 89.27 92.48 89.34Q92.38 89.41 92.26 89.45Q92.14 89.49 92.02 89.5Q91.91 89.51 91.78 89.48Q91.66 89.45 91.56 89.39Q91.45 89.33 91.36 89.25L66.08 63.96L70.74 59.31ZM62.38 102.39Q62.35 102.51 62.28 102.61Q62.22 102.72 62.13 102.8Q62.04 102.88 61.93 102.93Q61.82 102.99 61.7 103.01Q61.58 103.03 61.46 103.01Q61.33 103 61.22 102.95Q61.11 102.91 61.01 102.83Q59.77 101.85 58.81 100.65Q57.86 99.47 57.19 98.07Q56.5 96.66 56.17 95.17Q55.83 93.68 55.83 92.11L55.83 67.33Q57.35 67.63 58.84 67.51Q60.65 67.36 62.42 66.56L62.42 102.15Q62.42 102.28 62.38 102.39ZM63.42 65.85L63.42 102.15C63.42 102.5 63.32 102.85 63.13 103.15C62.94 103.44 62.68 103.68 62.36 103.83C62.05 103.99 61.69 104.05 61.35 104.01C61 103.97 60.67 103.83 60.39 103.62C58.65 102.24 57.25 100.5 56.29 98.5C55.32 96.51 54.83 94.32 54.83 92.11L54.83 66.04C55.16 66.15 55.49 66.23 55.83 66.3C58.1 66.77 60.46 66.46 62.54 65.4L62.97 65.4L63.42 65.85Z" fill="#285A43" fill-opacity="1.000000" fill-rule="evenodd"/>
		<path id="Vector" d="M62.08 56.33C62.08 55.36 61.74 54.42 61.13 53.67C60.52 52.93 59.66 52.41 58.71 52.23C57.76 52.04 56.78 52.18 55.93 52.64C55.07 53.09 54.4 53.83 54.03 54.73C53.66 55.62 53.62 56.61 53.9 57.54C54.18 58.47 54.77 59.27 55.57 59.8C56.38 60.34 57.34 60.58 58.31 60.49C59.27 60.39 60.17 59.97 60.85 59.28C61.24 58.9 61.55 58.43 61.76 57.93C61.97 57.42 62.08 56.88 62.08 56.33ZM59.29 57.72C58.97 58.04 58.54 58.24 58.09 58.28C57.64 58.33 57.18 58.21 56.8 57.96C56.43 57.71 56.15 57.33 56.02 56.9C55.88 56.46 55.91 55.99 56.08 55.57C56.25 55.15 56.57 54.81 56.97 54.59C57.37 54.38 57.83 54.31 58.28 54.4C58.73 54.49 59.13 54.73 59.42 55.08C59.71 55.43 59.86 55.87 59.86 56.33C59.86 56.58 59.81 56.84 59.72 57.08C59.62 57.32 59.47 57.53 59.29 57.72Z" fill="#285A43" fill-opacity="1.000000" fill-rule="nonzero"/>
		<path id="Vector" d="M62.41 53.77Q62.19 53.39 61.9 53.04Q61.62 52.69 61.28 52.4Q60.95 52.11 60.56 51.88Q60.18 51.65 59.76 51.49Q59.35 51.33 58.91 51.24Q58.47 51.16 58.02 51.15Q57.58 51.14 57.14 51.2Q56.69 51.27 56.27 51.41Q55.85 51.55 55.45 51.76Q55.06 51.97 54.71 52.24Q54.36 52.51 54.06 52.85Q53.76 53.18 53.52 53.55Q53.28 53.93 53.11 54.34Q52.94 54.76 52.84 55.19Q52.74 55.62 52.72 56.07Q52.7 56.52 52.75 56.96Q52.81 57.4 52.94 57.83Q53.07 58.26 53.27 58.66Q53.47 59.05 53.74 59.41Q54 59.77 54.32 60.08Q54.65 60.39 55.02 60.63Q55.39 60.88 55.8 61.06Q56.2 61.24 56.64 61.35Q57.07 61.46 57.52 61.49Q57.96 61.53 58.41 61.48Q58.85 61.44 59.28 61.32Q59.71 61.2 60.11 61.01Q60.52 60.82 60.88 60.56Q61.24 60.31 61.56 59.99Q61.91 59.64 62.19 59.24Q62.48 58.8 62.69 58.31Q62.88 57.83 62.98 57.34Q63.08 56.84 63.08 56.32Q63.08 55.9 63.01 55.49Q62.94 55.03 62.78 54.58Q62.62 54.16 62.41 53.77ZM62.08 56.33C62.08 55.36 61.74 54.42 61.13 53.67C60.52 52.93 59.66 52.41 58.71 52.23C57.76 52.04 56.78 52.18 55.93 52.64C55.07 53.09 54.4 53.83 54.03 54.73C53.66 55.62 53.62 56.61 53.9 57.54C54.18 58.47 54.77 59.27 55.57 59.8C56.38 60.34 57.34 60.58 58.31 60.49C59.27 60.39 60.17 59.97 60.85 59.28C61.24 58.9 61.55 58.43 61.76 57.93C61.97 57.42 62.08 56.88 62.08 56.33ZM59.29 57.72C58.97 58.04 58.54 58.24 58.09 58.28C57.64 58.33 57.18 58.21 56.8 57.96C56.43 57.71 56.15 57.33 56.02 56.9C55.88 56.46 55.91 55.99 56.08 55.57C56.25 55.15 56.57 54.81 56.97 54.59C57.37 54.38 57.83 54.31 58.28 54.4C58.73 54.49 59.13 54.73 59.42 55.08C59.71 55.43 59.86 55.87 59.86 56.33C59.86 56.58 59.81 56.84 59.72 57.08C59.62 57.32 59.47 57.53 59.29 57.72ZM58.3 57.21Q58.16 57.27 57.99 57.29Q57.82 57.31 57.66 57.27Q57.5 57.23 57.36 57.13Q57.22 57.03 57.12 56.9Q57.02 56.77 56.97 56.61Q56.92 56.44 56.93 56.28Q56.94 56.12 57 55.96Q57.07 55.8 57.18 55.68Q57.29 55.56 57.44 55.47Q57.59 55.39 57.76 55.37Q57.92 55.34 58.09 55.38Q58.26 55.41 58.4 55.5Q58.53 55.58 58.64 55.71Q58.75 55.85 58.81 56Q58.86 56.15 58.86 56.33Q58.86 56.44 58.84 56.55Q58.82 56.62 58.79 56.7Q58.76 56.78 58.7 56.86Q58.65 56.94 58.58 57.01Q58.46 57.14 58.3 57.21Z" fill="#285A43" fill-opacity="1.000000" fill-rule="evenodd"/>
	</g>
</svg>
