<svg width="126.000000" height="126.000000" viewBox="0 0 126 126" fill="none" xmlns="http://www.w3.org/2000/svg" xmlns:xlink="http://www.w3.org/1999/xlink">
	<desc>
			Created with Pixso.
	</desc>
	<defs>
		<clipPath id="clip301_1793">
			<rect id="Temperature 1" rx="0.000000" width="125.000000" height="125.000000" transform="translate(0.500000 0.500000)" fill="white" fill-opacity="0"/>
		</clipPath>
	</defs>
	<rect id="Temperature 1" rx="0.000000" width="125.000000" height="125.000000" transform="translate(0.500000 0.500000)" fill="#FFFFFF" fill-opacity="0"/>
	<g clip-path="url(#clip301_1793)">
		<path id="Vector" d="M69.19 72.53C68.11 69.98 66.3 67.8 63.99 66.26C61.68 64.73 58.97 63.91 56.19 63.91L55.2 63.91C54.91 63.91 54.63 64.02 54.42 64.23C54.21 64.44 54.09 64.72 54.09 65.01L54.09 66.01C54.1 69.73 55.57 73.29 58.19 75.93C60.81 78.57 64.36 80.07 68.08 80.11L68.08 88.21C63.36 88.4 58.78 89.84 54.81 92.39C54.68 92.47 54.57 92.57 54.49 92.69C54.4 92.81 54.34 92.95 54.31 93.09C54.28 93.23 54.28 93.38 54.3 93.53C54.33 93.67 54.38 93.81 54.46 93.93C54.54 94.05 54.64 94.16 54.76 94.24C54.88 94.33 55.02 94.38 55.16 94.42C55.31 94.45 55.45 94.45 55.6 94.42C55.74 94.39 55.88 94.34 56 94.26C59.94 91.74 64.51 90.4 69.19 90.4C73.86 90.4 78.44 91.74 82.37 94.26C82.5 94.34 82.63 94.39 82.78 94.42C82.92 94.45 83.07 94.45 83.21 94.42C83.36 94.38 83.49 94.33 83.61 94.24C83.73 94.16 83.84 94.05 83.91 93.93C83.99 93.81 84.05 93.67 84.07 93.53C84.1 93.38 84.1 93.23 84.06 93.09C84.03 92.95 83.97 92.81 83.89 92.69C83.8 92.57 83.7 92.47 83.57 92.39C79.6 89.84 75.01 88.4 70.3 88.21L70.3 80.11C74.01 80.07 77.57 78.57 80.19 75.93C82.81 73.29 84.28 69.73 84.28 66.01L84.28 65.01C84.28 64.72 84.17 64.44 83.96 64.23C83.75 64.02 83.47 63.91 83.18 63.91L82.18 63.91C79.41 63.91 76.7 64.73 74.39 66.26C72.08 67.8 70.27 69.98 69.19 72.53ZM56.31 66.12C59.42 66.16 62.4 67.41 64.6 69.61C66.8 71.81 68.05 74.78 68.08 77.89C64.97 77.86 61.99 76.61 59.79 74.41C57.59 72.21 56.34 69.23 56.31 66.12ZM82.07 66.12C82.03 69.23 80.78 72.21 78.58 74.41C76.38 76.61 73.41 77.86 70.3 77.89C70.33 74.78 71.58 71.81 73.78 69.61C75.98 67.41 78.96 66.16 82.07 66.12Z" fill="#285A43" fill-opacity="1.000000" fill-rule="nonzero"/>
		<path id="Vector" d="M67.83 68.37Q66.44 66.69 64.54 65.43Q62.65 64.17 60.56 63.54Q58.47 62.91 56.19 62.91L55.2 62.91Q54.76 62.91 54.39 63.06Q54.02 63.22 53.71 63.52Q53.4 63.83 53.25 64.21Q53.09 64.58 53.09 65.01L53.09 66.01Q53.1 69.12 54.2 71.78Q55.29 74.43 57.48 76.64Q59.67 78.84 62.32 79.96Q64.54 80.9 67.08 81.07L67.08 87.27Q63.86 87.5 60.86 88.45Q57.41 89.53 54.27 91.55Q54.14 91.63 54.03 91.72Q53.83 91.89 53.67 92.12Q53.55 92.29 53.47 92.48Q53.38 92.67 53.34 92.87Q53.29 93.08 53.29 93.29Q53.28 93.49 53.32 93.7Q53.36 93.91 53.43 94.1Q53.51 94.29 53.62 94.47Q53.73 94.65 53.88 94.8Q54.02 94.95 54.2 95.07Q54.37 95.19 54.56 95.27Q54.75 95.35 54.96 95.39Q55.16 95.44 55.37 95.44Q55.58 95.44 55.78 95.4Q55.99 95.36 56.18 95.29Q56.37 95.21 56.55 95.09Q59.41 93.27 62.53 92.34Q65.72 91.4 69.19 91.4Q72.62 91.4 75.78 92.32Q78.94 93.25 81.84 95.1Q81.94 95.17 82.06 95.23Q82.31 95.35 82.59 95.4Q82.8 95.44 83.01 95.44Q83.21 95.44 83.42 95.39Q83.63 95.35 83.82 95.27Q84.01 95.19 84.18 95.07Q84.35 94.95 84.5 94.8Q84.64 94.65 84.76 94.47Q84.87 94.29 84.95 94.1Q85.02 93.91 85.06 93.7Q85.09 93.49 85.09 93.29Q85.09 93.08 85.04 92.87Q84.99 92.67 84.91 92.48Q84.83 92.29 84.7 92.12Q84.58 91.94 84.43 91.8Q84.28 91.66 84.1 91.55Q80.99 89.55 77.58 88.47Q74.55 87.5 71.3 87.27L71.3 81.07Q73.84 80.9 76.06 79.96Q78.71 78.84 80.9 76.64Q83.09 74.43 84.18 71.77Q85.28 69.12 85.28 66.01L85.28 65.01Q85.28 64.58 85.13 64.21Q84.97 63.83 84.67 63.52Q84.36 63.22 83.98 63.06Q83.61 62.91 83.18 62.91L82.18 62.91Q79.9 62.91 77.81 63.54Q75.73 64.17 73.83 65.43Q71.94 66.69 70.55 68.37Q69.79 69.27 69.19 70.3Q68.58 69.27 67.83 68.37ZM69.75 71.36C69.55 71.74 69.36 72.13 69.19 72.53C69.02 72.13 68.83 71.74 68.63 71.36C67.53 69.31 65.94 67.56 63.99 66.26C61.68 64.73 58.97 63.91 56.19 63.91L55.2 63.91C54.91 63.91 54.63 64.02 54.42 64.23C54.21 64.44 54.09 64.72 54.09 65.01L54.09 66.01C54.1 69.73 55.57 73.29 58.19 75.93C60.81 78.57 64.36 80.07 68.08 80.11L68.08 88.21C63.36 88.4 58.78 89.84 54.81 92.39C54.68 92.47 54.57 92.57 54.49 92.69C54.4 92.81 54.34 92.95 54.31 93.09C54.28 93.23 54.28 93.38 54.3 93.53C54.33 93.67 54.38 93.81 54.46 93.93C54.54 94.05 54.64 94.16 54.76 94.24C54.88 94.33 55.02 94.38 55.16 94.42C55.31 94.45 55.45 94.45 55.6 94.42C55.74 94.39 55.88 94.34 56 94.26C59.94 91.74 64.51 90.4 69.19 90.4C73.86 90.4 78.44 91.74 82.37 94.26C82.5 94.34 82.63 94.39 82.78 94.42C82.92 94.45 83.07 94.45 83.21 94.42C83.36 94.38 83.49 94.33 83.61 94.24C83.73 94.16 83.84 94.05 83.91 93.93C83.99 93.81 84.05 93.67 84.07 93.53C84.1 93.38 84.1 93.23 84.06 93.09C84.03 92.95 83.97 92.81 83.89 92.69C83.8 92.57 83.7 92.47 83.57 92.39C79.6 89.84 75.01 88.4 70.3 88.21L70.3 80.11C74.01 80.07 77.57 78.57 80.19 75.93C82.81 73.29 84.28 69.73 84.28 66.01L84.28 65.01C84.28 64.72 84.17 64.44 83.96 64.23C83.75 64.02 83.47 63.91 83.18 63.91L82.18 63.91C79.41 63.91 76.7 64.73 74.39 66.26C72.44 67.56 70.85 69.31 69.75 71.36ZM80.25 70.23Q79.45 72.13 77.88 73.7Q76.3 75.27 74.41 76.07Q72.97 76.67 71.35 76.84Q71.52 75.22 72.12 73.78Q72.92 71.89 74.49 70.31Q76.06 68.74 77.96 67.94Q79.39 67.34 81.01 67.18Q80.85 68.8 80.25 70.23ZM81.07 66.18C78.32 66.44 75.74 67.64 73.78 69.61C71.82 71.57 70.61 74.15 70.35 76.89C70.32 77.23 70.3 77.56 70.3 77.89C70.63 77.89 70.97 77.87 71.3 77.84C74.04 77.58 76.62 76.37 78.58 74.41C80.55 72.45 81.75 69.87 82.01 67.12C82.05 66.79 82.06 66.46 82.07 66.12C81.73 66.13 81.4 66.14 81.07 66.18ZM60.42 67.94Q62.32 68.74 63.89 70.31Q65.46 71.89 66.26 73.78Q66.86 75.22 67.02 76.84Q65.4 76.67 63.97 76.07Q62.07 75.27 60.5 73.7Q58.93 72.13 58.13 70.23Q57.53 68.8 57.37 67.18Q58.99 67.34 60.42 67.94ZM56.36 67.12C56.62 69.87 57.83 72.45 59.79 74.41C61.76 76.37 64.34 77.58 67.08 77.84C67.41 77.87 67.74 77.89 68.08 77.89C68.08 77.56 68.06 77.23 68.03 76.89C67.77 74.15 66.56 71.57 64.6 69.61C62.63 67.64 60.05 66.44 57.31 66.18C56.98 66.14 56.64 66.13 56.31 66.12C56.31 66.46 56.33 66.79 56.36 67.12Z" fill="#285A43" fill-opacity="1.000000" fill-rule="evenodd"/>
		<path id="Vector" d="M99.47 55.39L69.85 33.36C69.66 33.22 69.43 33.14 69.19 33.14C68.95 33.14 68.72 33.22 68.53 33.36L42.69 52.58L42.69 28.94C42.69 27.41 42.08 25.94 41 24.85C39.91 23.77 38.44 23.16 36.91 23.16C35.37 23.16 33.9 23.77 32.82 24.85C31.73 25.94 31.12 27.41 31.12 28.94L31.12 63.49C29.49 64.51 28.16 65.95 27.28 67.66C26.39 69.37 25.98 71.29 26.09 73.21C26.24 75.92 27.4 78.48 29.34 80.38C31.28 82.28 33.86 83.38 36.57 83.48C36.68 83.48 36.8 83.48 36.91 83.48C37.43 83.48 37.95 83.44 38.46 83.37L38.46 101.72C38.46 102.02 38.58 102.3 38.78 102.51C38.99 102.71 39.27 102.83 39.57 102.83L98.81 102.83C99.1 102.83 99.38 102.71 99.59 102.51C99.8 102.3 99.92 102.02 99.92 101.72L99.92 56.28C99.92 56.11 99.88 55.94 99.8 55.78C99.72 55.63 99.61 55.5 99.47 55.39ZM36.64 81.26C34.75 81.2 32.93 80.52 31.47 79.33C30 78.14 28.97 76.49 28.53 74.66C28.09 72.82 28.26 70.88 29.03 69.16C29.79 67.43 31.11 66 32.76 65.09C32.94 64.99 33.08 64.85 33.18 64.68C33.29 64.51 33.34 64.32 33.34 64.12L33.34 28.94C33.34 28 33.71 27.09 34.38 26.42C35.05 25.75 35.96 25.37 36.91 25.37C37.85 25.37 38.76 25.75 39.43 26.42C40.1 27.09 40.48 28 40.48 28.94L40.48 64.12C40.48 64.32 40.53 64.51 40.63 64.68C40.73 64.85 40.88 64.99 41.05 65.09C42.75 66.02 44.08 67.5 44.84 69.28C45.6 71.06 45.73 73.05 45.22 74.92C44.71 76.78 43.59 78.43 42.03 79.58C40.47 80.73 38.57 81.32 36.64 81.26ZM97.7 100.62L40.68 100.62L40.68 82.81C42.57 82.11 44.23 80.89 45.47 79.29C46.71 77.69 47.47 75.78 47.68 73.77C47.89 71.76 47.54 69.74 46.65 67.92C45.77 66.1 44.4 64.57 42.69 63.49L42.69 55.34L69.19 35.63L97.7 56.84L97.7 100.62Z" fill="#285A43" fill-opacity="1.000000" fill-rule="nonzero"/>
		<path id="Vector" d="M100.07 54.59L70.45 32.56Q70.17 32.35 69.85 32.25Q69.54 32.14 69.19 32.14Q68.84 32.14 68.52 32.25Q68.21 32.35 67.93 32.56L43.69 50.59L43.69 28.94Q43.69 27.54 43.19 26.34Q42.7 25.14 41.7 24.15Q40.71 23.15 39.51 22.66Q38.31 22.16 36.91 22.16Q35.5 22.16 34.3 22.66Q33.1 23.15 32.11 24.15Q31.12 25.14 30.62 26.34Q30.12 27.54 30.12 28.94L30.12 62.95Q29.05 63.69 28.18 64.63Q27.13 65.77 26.39 67.2Q25.65 68.63 25.33 70.15Q25 71.66 25.09 73.27Q25.22 75.57 26.11 77.52Q26.99 79.48 28.64 81.09Q30.29 82.7 32.26 83.55Q34.23 84.4 36.54 84.48Q36.73 84.48 36.91 84.48Q37.19 84.48 37.46 84.47L37.46 101.72Q37.46 102.16 37.61 102.53Q37.77 102.9 38.08 103.21Q38.39 103.52 38.76 103.68Q39.13 103.83 39.57 103.83L98.81 103.83Q99.25 103.83 99.62 103.68Q99.99 103.52 100.3 103.21Q100.61 102.9 100.76 102.53Q100.92 102.16 100.92 101.72L100.92 56.28Q100.92 56.03 100.86 55.79Q100.8 55.56 100.69 55.34Q100.58 55.11 100.42 54.93Q100.27 54.74 100.07 54.59ZM37.46 83.47C37.79 83.45 38.13 83.42 38.46 83.37L38.46 101.72C38.46 102.02 38.58 102.3 38.78 102.51C38.99 102.71 39.27 102.83 39.57 102.83L98.81 102.83C99.1 102.83 99.38 102.71 99.59 102.51C99.8 102.3 99.92 102.02 99.92 101.72L99.92 56.28C99.92 56.11 99.88 55.94 99.8 55.78C99.72 55.63 99.61 55.5 99.47 55.39L69.85 33.36C69.66 33.22 69.43 33.14 69.19 33.14C68.95 33.14 68.72 33.22 68.53 33.36L43.69 51.83L42.69 52.58L42.69 28.94C42.69 27.41 42.08 25.94 41 24.85C39.91 23.77 38.44 23.16 36.91 23.16C35.37 23.16 33.9 23.77 32.82 24.85C31.73 25.94 31.12 27.41 31.12 28.94L31.12 63.49C29.49 64.51 28.16 65.95 27.28 67.66C26.39 69.37 25.98 71.29 26.09 73.21C26.24 75.92 27.4 78.48 29.34 80.38C31.28 82.28 33.86 83.38 36.57 83.48C36.68 83.48 36.8 83.48 36.91 83.48C37.09 83.48 37.28 83.48 37.46 83.47ZM36.64 81.26C34.75 81.2 32.93 80.52 31.47 79.33C30 78.14 28.97 76.49 28.53 74.66C28.09 72.82 28.26 70.88 29.03 69.16C29.79 67.43 31.11 66 32.76 65.09C32.94 64.99 33.08 64.85 33.18 64.68C33.29 64.51 33.34 64.32 33.34 64.12L33.34 28.94C33.34 28 33.71 27.09 34.38 26.42C35.05 25.75 35.96 25.37 36.91 25.37C37.85 25.37 38.76 25.75 39.43 26.42C40.1 27.09 40.48 28 40.48 28.94L40.48 64.12C40.48 64.32 40.53 64.51 40.63 64.68C40.73 64.85 40.88 64.99 41.05 65.09C42.75 66.02 44.08 67.5 44.84 69.28C45.6 71.06 45.73 73.05 45.22 74.92C44.71 76.78 43.59 78.43 42.03 79.58C40.47 80.73 38.57 81.32 36.64 81.26ZM34.24 79.8Q33.1 79.37 32.1 78.56Q31.1 77.74 30.45 76.71Q29.8 75.68 29.5 74.42Q29.2 73.17 29.31 71.95Q29.42 70.74 29.94 69.56Q30.46 68.38 31.29 67.48Q32.12 66.59 33.25 65.97Q33.5 65.83 33.7 65.63Q33.9 65.44 34.04 65.19Q34.19 64.94 34.27 64.68Q34.34 64.41 34.34 64.12L34.34 28.94Q34.34 28.41 34.53 27.96Q34.71 27.5 35.09 27.13Q35.47 26.75 35.92 26.56Q36.38 26.37 36.91 26.37Q37.44 26.37 37.89 26.56Q38.35 26.75 38.72 27.13Q39.1 27.5 39.29 27.96Q39.48 28.41 39.48 28.94L39.48 64.12Q39.48 64.41 39.55 64.68Q39.62 64.94 39.77 65.19Q39.92 65.44 40.12 65.63Q40.32 65.83 40.57 65.97Q41.73 66.6 42.57 67.53Q43.4 68.46 43.92 69.67Q44.44 70.89 44.52 72.13Q44.61 73.38 44.26 74.65Q43.91 75.93 43.2 76.96Q42.5 77.99 41.44 78.77Q40.37 79.56 39.18 79.93Q37.99 80.3 36.67 80.26Q35.38 80.22 34.24 79.8ZM40.68 99.62L40.68 82.81C42.57 82.11 44.23 80.89 45.47 79.29C46.71 77.69 47.47 75.78 47.68 73.77C47.89 71.76 47.54 69.74 46.65 67.92C45.77 66.1 44.4 64.57 42.69 63.49L42.69 55.34L69.19 35.63L97.7 56.84L97.7 99.62L97.7 100.62L96.7 100.62L40.68 100.62L40.68 99.62ZM41.68 99.62L96.7 99.62L96.7 57.34L69.19 36.88L43.69 55.84L43.69 62.95Q44.83 63.75 45.73 64.75Q46.82 65.96 47.55 67.48Q48.29 69 48.57 70.6Q48.85 72.2 48.68 73.88Q48.5 75.56 47.9 77.06Q47.29 78.57 46.26 79.9Q45.22 81.24 43.91 82.2Q42.88 82.96 41.68 83.48L41.68 99.62Z" fill="#285A43" fill-opacity="1.000000" fill-rule="evenodd"/>
		<path id="Vector" d="M38.01 67.65L38.01 31.44C38.01 31.15 37.9 30.87 37.69 30.66C37.48 30.45 37.2 30.34 36.91 30.34C36.61 30.34 36.33 30.45 36.12 30.66C35.92 30.87 35.8 31.15 35.8 31.44L35.8 67.65C34.55 67.92 33.44 68.65 32.69 69.69C31.94 70.73 31.6 72.01 31.73 73.29C31.87 74.57 32.48 75.75 33.43 76.6C34.39 77.46 35.62 77.94 36.91 77.94C38.19 77.94 39.43 77.46 40.38 76.6C41.34 75.75 41.94 74.57 42.08 73.29C42.22 72.01 41.88 70.73 41.13 69.69C40.38 68.65 39.27 67.92 38.01 67.65ZM36.91 75.72C36.32 75.72 35.74 75.54 35.25 75.22C34.76 74.89 34.37 74.42 34.15 73.87C33.92 73.33 33.86 72.73 33.98 72.15C34.09 71.57 34.38 71.04 34.79 70.62C35.21 70.2 35.74 69.92 36.32 69.8C36.9 69.69 37.5 69.74 38.05 69.97C38.6 70.2 39.06 70.58 39.39 71.07C39.72 71.56 39.9 72.14 39.9 72.73C39.89 73.52 39.58 74.28 39.02 74.84C38.46 75.4 37.7 75.72 36.91 75.72Z" fill="#285A43" fill-opacity="1.000000" fill-rule="nonzero"/>
		<path id="Vector" d="M39.01 66.9L39.01 31.44Q39.01 31.23 38.97 31.03Q38.93 30.83 38.85 30.64Q38.77 30.44 38.66 30.27Q38.55 30.1 38.4 29.95Q38.25 29.81 38.08 29.69Q37.91 29.58 37.71 29.5Q37.52 29.42 37.32 29.38Q37.12 29.34 36.91 29.34Q36.7 29.34 36.5 29.38Q36.29 29.42 36.1 29.5Q35.91 29.58 35.74 29.69Q35.57 29.81 35.42 29.95Q35.27 30.1 35.15 30.27Q35.04 30.44 34.96 30.64Q34.88 30.83 34.84 31.03Q34.8 31.23 34.8 31.44L34.8 66.9Q34.65 66.95 34.51 67.01Q33.99 67.23 33.51 67.55Q33.03 67.86 32.62 68.25Q32.21 68.64 31.87 69.11Q31.54 69.57 31.3 70.08Q31.06 70.59 30.91 71.15Q30.76 71.7 30.72 72.26Q30.68 72.83 30.74 73.4Q30.8 73.97 30.96 74.51Q31.12 75.05 31.39 75.56Q31.65 76.07 31.99 76.52Q32.34 76.97 32.76 77.35Q33.19 77.73 33.67 78.03Q34.15 78.32 34.69 78.53Q35.22 78.73 35.78 78.83Q36.33 78.94 36.91 78.94Q37.48 78.94 38.04 78.83Q38.59 78.73 39.13 78.53Q39.66 78.32 40.14 78.03Q40.63 77.73 41.05 77.35Q41.48 76.97 41.82 76.52Q42.17 76.07 42.43 75.56Q42.69 75.05 42.85 74.51Q43.01 73.97 43.07 73.4Q43.14 72.83 43.09 72.26Q43.05 71.7 42.9 71.15Q42.76 70.59 42.52 70.08Q42.28 69.57 41.94 69.11Q41.6 68.64 41.2 68.25Q40.79 67.86 40.31 67.55Q39.83 67.23 39.31 67.01Q39.16 66.95 39.01 66.9ZM38.01 67.65L38.01 31.44C38.01 31.15 37.9 30.87 37.69 30.66C37.48 30.45 37.2 30.34 36.91 30.34C36.61 30.34 36.33 30.45 36.12 30.66C35.92 30.87 35.8 31.15 35.8 31.44L35.8 67.65C34.55 67.92 33.44 68.65 32.69 69.69C31.94 70.73 31.6 72.01 31.73 73.29C31.87 74.57 32.48 75.75 33.43 76.6C34.39 77.46 35.62 77.94 36.91 77.94C38.19 77.94 39.43 77.46 40.38 76.6C41.34 75.75 41.94 74.57 42.08 73.29C42.22 72.01 41.88 70.73 41.13 69.69C40.38 68.65 39.27 67.92 38.01 67.65ZM36.91 75.72C36.32 75.72 35.74 75.54 35.25 75.22C34.76 74.89 34.37 74.42 34.15 73.87C33.92 73.33 33.86 72.73 33.98 72.15C34.09 71.57 34.38 71.04 34.79 70.62C35.21 70.2 35.74 69.92 36.32 69.8C36.9 69.69 37.5 69.74 38.05 69.97C38.6 70.2 39.06 70.58 39.39 71.07C39.72 71.56 39.9 72.14 39.9 72.73C39.89 73.52 39.58 74.28 39.02 74.84C38.46 75.4 37.7 75.72 36.91 75.72ZM36.34 74.64Q36.06 74.55 35.8 74.38Q35.55 74.22 35.37 73.99Q35.19 73.77 35.07 73.49Q34.95 73.21 34.93 72.93Q34.9 72.64 34.96 72.34Q35.02 72.05 35.15 71.79Q35.29 71.54 35.5 71.33Q35.71 71.11 35.97 70.98Q36.22 70.84 36.52 70.78Q36.82 70.72 37.1 70.75Q37.39 70.78 37.67 70.89Q37.95 71.01 38.17 71.19Q38.39 71.38 38.56 71.63Q38.73 71.88 38.81 72.15Q38.9 72.43 38.9 72.73Q38.9 72.92 38.86 73.1Q38.82 73.3 38.74 73.49Q38.67 73.67 38.56 73.84Q38.45 74 38.31 74.14Q38.17 74.28 38.01 74.38Q37.85 74.49 37.67 74.57Q37.48 74.64 37.29 74.68Q37.1 74.72 36.91 74.72Q36.61 74.72 36.34 74.64Z" fill="#285A43" fill-opacity="1.000000" fill-rule="evenodd"/>
		<path id="Vector" d="M64.1 59.38C64.1 59.67 64.22 59.96 64.42 60.16C64.63 60.37 64.91 60.49 65.21 60.49C65.5 60.49 65.78 60.37 65.99 60.16C66.2 59.96 66.31 59.67 66.31 59.38C66.31 59.09 66.41 58.81 66.61 58.59C67.06 58 67.3 57.28 67.3 56.54C67.3 55.8 67.06 55.08 66.61 54.49C66.42 54.27 66.31 53.99 66.31 53.7C66.31 53.41 66.42 53.13 66.61 52.91C67.06 52.33 67.31 51.6 67.3 50.86C67.3 50.57 67.18 50.29 66.97 50.08C66.77 49.87 66.48 49.75 66.19 49.75C65.9 49.75 65.61 49.87 65.41 50.08C65.2 50.29 65.08 50.57 65.08 50.86C65.09 51.15 64.98 51.43 64.79 51.65C64.34 52.24 64.1 52.96 64.1 53.7C64.1 54.44 64.34 55.16 64.79 55.75C64.98 55.97 65.08 56.25 65.08 56.54C65.08 56.83 64.98 57.11 64.79 57.33C64.33 57.92 64.09 58.64 64.1 59.38Z" fill="#285A43" fill-opacity="1.000000" fill-rule="nonzero"/>
		<path id="Vector" d="M63.45 60.55Q63.57 60.72 63.72 60.87Q63.86 61.02 64.03 61.13Q64.21 61.25 64.4 61.33Q64.59 61.41 64.79 61.45Q65 61.49 65.21 61.49Q65.42 61.49 65.62 61.45Q65.82 61.41 66.01 61.33Q66.21 61.25 66.38 61.13Q66.55 61.02 66.7 60.87Q66.84 60.72 66.96 60.55Q67.07 60.38 67.15 60.19Q67.23 59.99 67.27 59.79Q67.31 59.59 67.31 59.38L67.31 59.37L67.31 59.36Q67.31 59.33 67.32 59.31Q67.33 59.29 67.35 59.27L67.38 59.23L67.41 59.2Q67.62 58.91 67.79 58.6Q67.95 58.28 68.07 57.94Q68.18 57.6 68.24 57.25Q68.3 56.9 68.3 56.54Q68.3 56.18 68.24 55.83Q68.18 55.48 68.07 55.14Q67.95 54.8 67.79 54.49Q67.62 54.17 67.41 53.89L67.38 53.86L67.36 53.83Q67.34 53.81 67.33 53.77Q67.31 53.74 67.31 53.7Q67.31 53.66 67.33 53.63Q67.34 53.6 67.36 53.57L67.38 53.55L67.4 53.52Q67.62 53.24 67.79 52.92Q67.96 52.61 68.07 52.26Q68.19 51.92 68.25 51.57Q68.3 51.21 68.3 50.85Q68.3 50.71 68.28 50.58Q68.24 50.31 68.14 50.06Q68.06 49.86 67.94 49.69Q67.83 49.52 67.68 49.37Q67.53 49.22 67.36 49.11Q67.19 49 67 48.91Q66.8 48.83 66.6 48.79Q66.4 48.75 66.19 48.75Q65.98 48.75 65.78 48.79Q65.58 48.83 65.38 48.91Q65.19 49 65.02 49.11Q64.85 49.22 64.7 49.37Q64.55 49.52 64.44 49.69Q64.32 49.86 64.24 50.06Q64.16 50.25 64.12 50.45Q64.08 50.65 64.08 50.86L64.08 50.87L64.08 50.89Q64.08 50.91 64.08 50.93Q64.07 50.96 64.05 50.98L64.02 51.01L63.99 51.05Q63.77 51.33 63.61 51.65Q63.44 51.96 63.33 52.3Q63.21 52.64 63.16 52.99Q63.1 53.34 63.1 53.7Q63.1 54.06 63.16 54.41Q63.21 54.76 63.33 55.1Q63.44 55.44 63.61 55.76Q63.77 56.07 63.99 56.36L64.01 56.38L64.03 56.41Q64.06 56.44 64.07 56.47Q64.08 56.5 64.08 56.54Q64.08 56.58 64.07 56.61Q64.06 56.65 64.03 56.67L64.01 56.7L64 56.72Q63.78 57 63.61 57.32Q63.44 57.64 63.32 57.98Q63.21 58.32 63.15 58.68Q63.09 59.03 63.1 59.39Q63.1 59.53 63.12 59.66Q63.15 59.93 63.26 60.19Q63.34 60.38 63.45 60.55ZM64.1 59.38C64.1 59.67 64.22 59.96 64.42 60.16C64.63 60.37 64.91 60.49 65.21 60.49C65.5 60.49 65.78 60.37 65.99 60.16C66.2 59.96 66.31 59.67 66.31 59.38C66.31 59.09 66.41 58.81 66.61 58.59C67.06 58 67.3 57.28 67.3 56.54C67.3 55.8 67.06 55.08 66.61 54.49C66.42 54.27 66.31 53.99 66.31 53.7C66.31 53.41 66.42 53.13 66.61 52.91C67.06 52.33 67.31 51.6 67.3 50.86C67.3 50.57 67.18 50.29 66.97 50.08C66.77 49.87 66.48 49.75 66.19 49.75C65.9 49.75 65.61 49.87 65.41 50.08C65.2 50.29 65.08 50.57 65.08 50.86C65.09 51.15 64.98 51.43 64.79 51.65C64.34 52.24 64.1 52.96 64.1 53.7C64.1 54.44 64.34 55.16 64.79 55.75C64.98 55.97 65.08 56.25 65.08 56.54C65.08 56.83 64.98 57.11 64.79 57.33C64.33 57.92 64.09 58.64 64.1 59.38Z" fill="#285A43" fill-opacity="1.000000" fill-rule="evenodd"/>
		<path id="Vector" d="M71.08 59.38C71.08 59.67 71.2 59.96 71.4 60.16C71.61 60.37 71.89 60.49 72.19 60.49C72.48 60.49 72.76 60.37 72.97 60.16C73.18 59.96 73.29 59.67 73.29 59.38C73.29 59.09 73.39 58.81 73.59 58.59C74.04 58 74.28 57.28 74.28 56.54C74.28 55.8 74.04 55.08 73.59 54.49C73.4 54.27 73.29 53.99 73.29 53.7C73.29 53.41 73.4 53.13 73.59 52.91C74.04 52.33 74.29 51.6 74.28 50.86C74.28 50.57 74.16 50.29 73.95 50.08C73.75 49.87 73.46 49.75 73.17 49.75C72.88 49.75 72.6 49.87 72.39 50.08C72.18 50.29 72.06 50.57 72.06 50.86C72.07 51.15 71.96 51.43 71.77 51.65C71.32 52.24 71.08 52.96 71.08 53.7C71.08 54.44 71.32 55.16 71.77 55.75C71.96 55.97 72.06 56.25 72.06 56.54C72.06 56.83 71.96 57.11 71.77 57.33C71.31 57.92 71.07 58.64 71.08 59.38Z" fill="#285A43" fill-opacity="1.000000" fill-rule="nonzero"/>
		<path id="Vector" d="M70.43 60.55Q70.55 60.72 70.7 60.87Q70.84 61.02 71.02 61.13Q71.19 61.25 71.38 61.33Q71.57 61.41 71.78 61.45Q71.98 61.49 72.19 61.49Q72.4 61.49 72.6 61.45Q72.8 61.41 72.99 61.33Q73.19 61.25 73.36 61.13Q73.53 61.02 73.68 60.87Q73.82 60.72 73.94 60.55Q74.05 60.38 74.13 60.19Q74.21 59.99 74.25 59.79Q74.29 59.59 74.29 59.38L74.29 59.37L74.29 59.36Q74.29 59.33 74.3 59.31Q74.31 59.29 74.33 59.27L74.36 59.23L74.39 59.2Q74.6 58.91 74.77 58.6Q74.93 58.28 75.05 57.94Q75.16 57.6 75.22 57.25Q75.28 56.9 75.28 56.54Q75.28 56.18 75.22 55.83Q75.16 55.48 75.05 55.14Q74.93 54.8 74.77 54.49Q74.6 54.17 74.39 53.89L74.37 53.86L74.34 53.83Q74.32 53.81 74.31 53.77Q74.29 53.74 74.29 53.7Q74.29 53.66 74.31 53.63Q74.32 53.6 74.34 53.57L74.36 53.55L74.38 53.52Q74.6 53.24 74.77 52.92Q74.94 52.61 75.05 52.26Q75.17 51.92 75.23 51.57Q75.28 51.21 75.28 50.85Q75.28 50.71 75.26 50.58Q75.22 50.31 75.12 50.06Q75.04 49.86 74.92 49.69Q74.81 49.52 74.66 49.37Q74.51 49.22 74.34 49.11Q74.17 49 73.98 48.91Q73.78 48.83 73.58 48.79Q73.38 48.75 73.17 48.75Q72.96 48.75 72.76 48.79Q72.56 48.83 72.36 48.91Q72.17 49 72 49.11Q71.83 49.22 71.68 49.37Q71.53 49.52 71.42 49.69Q71.3 49.86 71.22 50.06Q71.14 50.25 71.1 50.45Q71.06 50.65 71.06 50.86L71.06 50.87L71.06 50.89Q71.06 50.91 71.06 50.93Q71.05 50.96 71.03 50.98L71 51.01L70.97 51.05Q70.75 51.33 70.59 51.65Q70.42 51.96 70.31 52.3Q70.19 52.64 70.14 52.99Q70.08 53.34 70.08 53.7Q70.08 54.06 70.14 54.41Q70.19 54.76 70.31 55.1Q70.42 55.44 70.59 55.76Q70.75 56.07 70.97 56.36L70.99 56.38L71.01 56.41Q71.04 56.44 71.05 56.47Q71.06 56.5 71.06 56.54Q71.06 56.58 71.05 56.61Q71.04 56.65 71.01 56.67L70.99 56.7L70.98 56.72Q70.76 57 70.59 57.32Q70.42 57.64 70.3 57.98Q70.19 58.32 70.13 58.68Q70.08 59.03 70.08 59.39Q70.08 59.53 70.1 59.66Q70.13 59.93 70.24 60.19Q70.32 60.38 70.43 60.55ZM71.08 59.38C71.08 59.67 71.2 59.96 71.4 60.16C71.61 60.37 71.89 60.49 72.19 60.49C72.48 60.49 72.76 60.37 72.97 60.16C73.18 59.96 73.29 59.67 73.29 59.38C73.29 59.09 73.39 58.81 73.59 58.59C74.04 58 74.28 57.28 74.28 56.54C74.28 55.8 74.04 55.08 73.59 54.49C73.4 54.27 73.29 53.99 73.29 53.7C73.29 53.41 73.4 53.13 73.59 52.91C74.04 52.33 74.29 51.6 74.28 50.86C74.28 50.57 74.16 50.29 73.95 50.08C73.75 49.87 73.46 49.75 73.17 49.75C72.88 49.75 72.6 49.87 72.39 50.08C72.18 50.29 72.06 50.57 72.06 50.86C72.07 51.15 71.96 51.43 71.77 51.65C71.32 52.24 71.08 52.96 71.08 53.7C71.08 54.44 71.32 55.16 71.77 55.75C71.96 55.97 72.06 56.25 72.06 56.54C72.06 56.83 71.96 57.11 71.77 57.33C71.31 57.92 71.07 58.64 71.08 59.38Z" fill="#285A43" fill-opacity="1.000000" fill-rule="evenodd"/>
	</g>
</svg>
