<svg width="134.000000" height="134.000000" viewBox="0 0 134 134" fill="none" xmlns="http://www.w3.org/2000/svg" xmlns:xlink="http://www.w3.org/1999/xlink">
	<desc>
			Created with Pixso.
	</desc>
	<defs>
		<filter id="filter_301_1800_dd" x="0.000000" y="0.000000" width="134.000000" height="134.000000" filterUnits="userSpaceOnUse" color-interpolation-filters="sRGB">
			<feFlood flood-opacity="0" result="BackgroundImageFix"/>
			<feColorMatrix in="SourceAlpha" type="matrix" values="0 0 0 0 0 0 0 0 0 0 0 0 0 0 0 0 0 0 127 0" result="hardAlpha"/>
			<feOffset dx="0" dy="4"/>
			<feGaussianBlur stdDeviation="1.33333"/>
			<feComposite in2="hardAlpha" operator="out" k2="-1" k3="1"/>
			<feColorMatrix type="matrix" values="0 0 0 0 0 0 0 0 0 0 0 0 0 0 0 0 0 0 0.25 0"/>
			<feBlend mode="normal" in2="BackgroundImageFix" result="effect_dropShadow_1"/>
			<feBlend mode="normal" in="SourceGraphic" in2="effect_dropShadow_1" result="shape"/>
		</filter>
		<clipPath id="clip301_1800">
			<rect id="Time-Cosuming 1" rx="0.000000" width="125.000000" height="125.000000" transform="translate(4.500000 0.500000)" fill="white" fill-opacity="0"/>
		</clipPath>
	</defs>
	<g filter="url(#filter_301_1800_dd)">
		<rect id="Time-Cosuming 1" rx="0.000000" width="125.000000" height="125.000000" transform="translate(4.500000 0.500000)" fill="#FFFFFF" fill-opacity="0"/>
		<g clip-path="url(#clip301_1800)">
			<path id="Vector" d="M105.4 23.77C105.4 23.47 105.29 23.19 105.08 22.98C104.87 22.78 104.59 22.66 104.3 22.66C86.21 22.66 71.23 36.21 68.98 53.7C67.14 49.13 63.98 45.22 59.9 42.47C55.82 39.72 51.02 38.24 46.1 38.24C45.8 38.24 45.52 38.35 45.31 38.56C45.11 38.77 44.99 39.05 44.99 39.34C45 45.71 47.47 51.84 51.88 56.43C56.3 61.02 62.32 63.73 68.69 63.99L68.69 76.18C66.91 76.23 65.14 76.39 63.38 76.67C61.23 72.45 57.53 69.23 53.05 67.69C48.57 66.15 43.67 66.41 39.39 68.43C35.1 70.44 31.77 74.04 30.09 78.47C28.41 82.89 28.52 87.8 30.4 92.15C32.28 96.49 35.77 99.94 40.14 101.76C44.52 103.57 49.42 103.61 53.83 101.88C58.23 100.14 61.78 96.75 63.74 92.44C65.69 88.12 65.88 83.22 64.28 78.77C66.1 78.51 67.94 78.38 69.77 78.38C69.78 78.38 69.79 78.38 69.79 78.38C69.8 78.38 69.81 78.38 69.81 78.38C77.39 78.37 84.8 80.55 91.18 84.63C91.3 84.71 91.44 84.77 91.58 84.8C91.72 84.82 91.87 84.82 92.02 84.79C92.16 84.76 92.29 84.7 92.41 84.62C92.53 84.54 92.64 84.43 92.72 84.31C92.8 84.18 92.85 84.05 92.88 83.9C92.9 83.76 92.9 83.61 92.87 83.47C92.83 83.32 92.77 83.19 92.69 83.07C92.61 82.95 92.5 82.85 92.37 82.77C85.95 78.65 78.53 76.37 70.9 76.18L70.9 59.36C90.03 58.77 105.4 43.03 105.4 23.77ZM103.17 24.89C102.61 41.86 89.33 55.65 72.58 57.04L87.83 41.8C87.93 41.7 88.02 41.57 88.08 41.44C88.13 41.3 88.16 41.16 88.16 41.01C88.16 40.87 88.14 40.72 88.08 40.58C88.03 40.45 87.94 40.33 87.84 40.22C87.74 40.12 87.61 40.04 87.48 39.98C87.34 39.92 87.2 39.9 87.05 39.9C86.9 39.9 86.76 39.93 86.62 39.99C86.49 40.04 86.36 40.13 86.26 40.23L71.02 55.48C72.41 38.73 86.21 25.46 103.17 24.89ZM47.23 40.48C52.78 40.77 58.03 43.1 61.96 47.03C65.9 50.96 68.23 56.21 68.52 61.77C62.97 61.48 57.72 59.14 53.79 55.21C49.86 51.28 47.52 46.03 47.23 40.48ZM46.97 101.12C43.77 101.12 40.65 100.17 37.99 98.39C35.33 96.61 33.26 94.09 32.03 91.13C30.81 88.18 30.49 84.93 31.11 81.79C31.74 78.66 33.28 75.77 35.54 73.51C37.8 71.25 40.68 69.71 43.82 69.09C46.95 68.46 50.21 68.78 53.16 70.01C56.11 71.23 58.64 73.3 60.42 75.96C62.19 78.62 63.14 81.75 63.14 84.95C63.14 89.23 61.43 93.34 58.4 96.38C55.37 99.41 51.26 101.11 46.97 101.12Z" fill="#285A43" fill-opacity="1.000000" fill-rule="nonzero"/>
			<path id="Vector" d="M106.25 22.96Q106.1 22.58 105.79 22.28Q105.48 21.97 105.11 21.81Q104.73 21.66 104.3 21.66Q97.41 21.66 91.37 23.93Q85.27 26.24 80.04 30.87Q74.74 35.57 71.71 41.43Q69.54 45.62 68.52 50.41Q67.45 48.46 66.08 46.76Q63.71 43.84 60.46 41.64Q57.21 39.44 53.62 38.34Q50.02 37.24 46.1 37.24Q45.66 37.24 45.28 37.39Q44.91 37.55 44.61 37.85Q44.3 38.16 44.14 38.53Q43.99 38.91 43.99 39.34Q44 44.51 45.79 48.96Q47.58 53.4 51.16 57.12Q54.74 60.85 59.11 62.81Q63.08 64.59 67.69 64.93L67.69 75.22Q66.81 75.26 65.93 75.34Q64.93 75.43 63.93 75.57Q62.25 72.52 59.78 70.37Q57.06 68.01 53.38 66.74Q49.69 65.48 46.09 65.67Q42.49 65.87 38.96 67.52Q35.44 69.18 32.99 71.82Q30.53 74.47 29.16 78.11Q27.78 81.75 27.86 85.36Q27.94 88.97 29.48 92.54Q31.03 96.12 33.59 98.65Q36.16 101.19 39.76 102.68Q43.36 104.17 46.96 104.2Q50.57 104.24 54.19 102.81Q57.81 101.38 60.43 98.89Q63.04 96.4 64.65 92.85Q66.25 89.3 66.4 85.7Q66.52 82.67 65.61 79.61Q66.35 79.53 67.08 79.47Q68.4 79.38 69.73 79.38Q69.76 79.38 69.79 79.38Q69.83 79.38 69.86 79.38Q75.43 79.38 80.57 80.87Q85.83 82.39 90.64 85.48Q90.75 85.55 90.87 85.61Q91.12 85.73 91.4 85.78Q91.6 85.82 91.81 85.82Q92.02 85.81 92.22 85.77Q92.43 85.73 92.62 85.64Q92.81 85.56 92.98 85.44Q93.16 85.32 93.3 85.17Q93.44 85.02 93.56 84.85Q93.67 84.67 93.75 84.48Q93.82 84.28 93.86 84.08Q93.9 83.87 93.89 83.66Q93.89 83.46 93.84 83.25Q93.8 83.04 93.71 82.85Q93.63 82.66 93.51 82.49Q93.38 82.32 93.23 82.18Q93.08 82.04 92.91 81.92Q87.91 78.72 82.45 77.04Q77.38 75.47 71.9 75.22L71.9 60.31Q78.63 59.95 84.41 57.43Q90.8 54.66 96.04 49.26Q101.27 43.88 103.86 37.45Q106.4 31.12 106.4 23.77Q106.4 23.33 106.25 22.96ZM70.9 59.36C90.03 58.77 105.4 43.03 105.4 23.77C105.4 23.47 105.29 23.19 105.08 22.98C104.87 22.78 104.59 22.66 104.3 22.66C86.85 22.66 72.29 35.27 69.27 51.86C69.15 52.46 69.06 53.08 68.98 53.7C68.75 53.12 68.49 52.56 68.22 52C66.33 48.17 63.46 44.88 59.9 42.47C55.82 39.72 51.02 38.24 46.1 38.24C45.8 38.24 45.52 38.35 45.31 38.56C45.11 38.77 44.99 39.05 44.99 39.34C45 45.71 47.47 51.84 51.88 56.43C56.3 61.02 62.32 63.73 68.69 63.99L68.69 76.18C66.91 76.23 65.14 76.39 63.38 76.67C61.23 72.45 57.53 69.23 53.05 67.69C48.57 66.15 43.67 66.41 39.39 68.43C35.1 70.44 31.77 74.04 30.09 78.47C28.41 82.89 28.52 87.8 30.4 92.15C32.28 96.49 35.77 99.94 40.14 101.76C44.52 103.57 49.42 103.61 53.83 101.88C58.23 100.14 61.78 96.75 63.74 92.44C65.55 88.43 65.85 83.92 64.6 79.73C64.51 79.41 64.4 79.09 64.28 78.77C64.62 78.72 64.96 78.67 65.3 78.64C66.78 78.47 68.28 78.38 69.77 78.38C69.78 78.38 69.79 78.38 69.79 78.38C69.8 78.38 69.81 78.38 69.81 78.38C77.39 78.37 84.8 80.55 91.18 84.63C91.3 84.71 91.44 84.77 91.58 84.8C91.72 84.82 91.87 84.82 92.02 84.79C92.16 84.76 92.29 84.7 92.41 84.62C92.53 84.54 92.64 84.43 92.72 84.31C92.8 84.18 92.85 84.05 92.88 83.9C92.9 83.76 92.9 83.61 92.87 83.47C92.83 83.32 92.77 83.19 92.69 83.07C92.61 82.95 92.5 82.85 92.37 82.77C85.95 78.65 78.53 76.37 70.9 76.18L70.9 59.36ZM74.17 56.87C89.83 54.82 102.11 41.86 103.12 25.89C103.14 25.56 103.16 25.23 103.17 24.89C102.83 24.9 102.5 24.92 102.17 24.94C86.2 25.95 73.24 38.23 71.19 53.89C71.12 54.42 71.06 54.95 71.02 55.48L72.13 54.36L86.26 40.23C86.36 40.13 86.49 40.04 86.62 39.99C86.76 39.93 86.9 39.9 87.05 39.9C87.2 39.9 87.34 39.92 87.48 39.98C87.61 40.04 87.74 40.12 87.84 40.22C87.94 40.33 88.03 40.45 88.08 40.58C88.14 40.72 88.16 40.87 88.16 41.01C88.16 41.16 88.13 41.3 88.08 41.44C88.02 41.57 87.93 41.7 87.83 41.8L73.7 55.93L72.58 57.04C73.11 57 73.64 56.94 74.17 56.87ZM75.35 55.7L88.54 42.51Q88.62 42.43 88.69 42.34Q88.87 42.11 88.99 41.83Q89.08 41.64 89.12 41.43Q89.16 41.23 89.16 41.02Q89.17 40.81 89.13 40.61Q89.09 40.4 89.01 40.21Q88.93 40.01 88.81 39.84Q88.7 39.66 88.55 39.51Q88.4 39.37 88.22 39.25Q88.05 39.14 87.86 39.06Q87.66 38.98 87.46 38.94Q87.25 38.9 87.04 38.9Q86.83 38.9 86.63 38.94Q86.42 38.98 86.23 39.07Q86.03 39.15 85.86 39.27Q85.69 39.38 85.55 39.54L72.37 52.72Q73.09 48.37 74.88 44.53Q77.38 39.2 81.94 34.84Q86.49 30.51 91.89 28.27Q96.67 26.29 102.12 25.94Q101.77 31.39 99.8 36.17Q97.56 41.58 93.22 46.12Q88.86 50.68 83.53 53.18Q79.69 54.98 75.35 55.7ZM54.82 43.26Q58.34 44.82 61.26 47.74Q64.18 50.66 65.74 54.18Q67.09 57.21 67.44 60.68Q63.96 60.34 60.93 58.99Q57.41 57.42 54.49 54.5Q51.58 51.59 50.01 48.07Q48.66 45.04 48.32 41.56Q51.79 41.91 54.82 43.26ZM47.31 41.48C47.81 46.66 50.09 51.52 53.79 55.21C57.48 58.9 62.34 61.19 67.51 61.69C67.85 61.72 68.18 61.75 68.52 61.77C68.5 61.43 68.48 61.09 68.45 60.76C67.94 55.58 65.66 50.73 61.96 47.03C58.27 43.34 53.42 41.06 48.24 40.55C47.9 40.52 47.57 40.5 47.23 40.48C47.25 40.81 47.27 41.15 47.31 41.48ZM46.97 101.12C43.77 101.12 40.65 100.17 37.99 98.39C35.33 96.61 33.26 94.09 32.03 91.13C30.81 88.18 30.49 84.93 31.11 81.79C31.74 78.66 33.28 75.77 35.54 73.51C37.8 71.25 40.68 69.71 43.82 69.09C46.95 68.46 50.21 68.78 53.16 70.01C56.11 71.23 58.64 73.3 60.42 75.96C62.19 78.62 63.14 81.75 63.14 84.95C63.14 89.23 61.43 93.34 58.4 96.38C55.37 99.41 51.26 101.11 46.97 101.12ZM42.57 99.48Q40.46 98.84 38.54 97.56Q36.63 96.28 35.23 94.58Q33.84 92.88 32.96 90.75Q32.08 88.63 31.86 86.43Q31.64 84.24 32.09 81.99Q32.54 79.73 33.58 77.79Q34.62 75.85 36.24 74.22Q37.87 72.59 39.81 71.55Q41.76 70.52 44.01 70.07Q46.27 69.62 48.46 69.83Q50.65 70.05 52.78 70.93Q54.9 71.81 56.61 73.21Q58.31 74.61 59.59 76.52Q60.86 78.43 61.5 80.54Q62.14 82.65 62.14 84.95Q62.14 88.08 61.03 90.76Q59.92 93.45 57.69 95.67Q55.47 97.89 52.79 99Q50.11 100.11 46.97 100.12Q44.67 100.12 42.57 99.48Z" fill="#285A43" fill-opacity="1.000000" fill-rule="evenodd"/>
			<path id="Vector" d="M54.95 85.13L48.08 85.13L48.08 77.07C48.08 76.78 47.96 76.5 47.76 76.29C47.55 76.08 47.27 75.96 46.97 75.96C46.68 75.96 46.4 76.08 46.19 76.29C45.98 76.5 45.86 76.78 45.86 77.07L45.86 86.24C45.86 86.53 45.98 86.81 46.19 87.02C46.4 87.23 46.68 87.34 46.97 87.34L54.95 87.34C55.24 87.34 55.53 87.23 55.73 87.02C55.94 86.81 56.06 86.53 56.06 86.24C56.06 85.94 55.94 85.66 55.73 85.45C55.53 85.25 55.24 85.13 54.95 85.13Z" fill="#285A43" fill-opacity="1.000000" fill-rule="nonzero"/>
			<path id="Vector" d="M48.08 84.13L48.08 77.07C48.08 76.78 47.96 76.5 47.76 76.29C47.55 76.08 47.27 75.96 46.97 75.96C46.68 75.96 46.4 76.08 46.19 76.29C45.98 76.5 45.86 76.78 45.86 77.07L45.86 86.24C45.86 86.53 45.98 86.81 46.19 87.02C46.4 87.23 46.68 87.34 46.97 87.34L54.95 87.34C55.24 87.34 55.53 87.23 55.73 87.02C55.94 86.81 56.06 86.53 56.06 86.24C56.06 85.94 55.94 85.66 55.73 85.45C55.53 85.25 55.24 85.13 54.95 85.13L48.08 85.13L48.08 84.13ZM49.08 84.13L54.95 84.13Q55.16 84.13 55.36 84.17Q55.56 84.21 55.76 84.29Q55.95 84.37 56.12 84.48Q56.29 84.6 56.44 84.75Q56.59 84.89 56.7 85.07Q56.82 85.24 56.9 85.43Q56.98 85.62 57.02 85.83Q57.06 86.03 57.06 86.24Q57.06 86.45 57.02 86.65Q56.98 86.85 56.9 87.04Q56.82 87.24 56.7 87.41Q56.59 87.58 56.44 87.73Q56.29 87.88 56.12 87.99Q55.95 88.1 55.76 88.18Q55.56 88.26 55.36 88.3Q55.16 88.34 54.95 88.34L46.97 88.34Q46.76 88.34 46.56 88.3Q46.36 88.26 46.17 88.18Q45.97 88.1 45.8 87.99Q45.63 87.88 45.48 87.73Q45.33 87.58 45.22 87.41Q45.11 87.24 45.03 87.04Q44.94 86.85 44.9 86.65Q44.86 86.45 44.86 86.24L44.86 77.07Q44.86 76.86 44.9 76.66Q44.94 76.46 45.03 76.27Q45.11 76.07 45.22 75.9Q45.33 75.73 45.48 75.58Q45.63 75.43 45.8 75.32Q45.97 75.21 46.17 75.12Q46.36 75.04 46.56 75Q46.76 74.96 46.97 74.96Q47.18 74.96 47.38 75Q47.58 75.04 47.78 75.12Q47.97 75.21 48.14 75.32Q48.31 75.43 48.46 75.58Q48.61 75.73 48.72 75.9Q48.84 76.07 48.92 76.27Q49 76.46 49.04 76.66Q49.08 76.86 49.08 77.07L49.08 84.13Z" fill="#285A43" fill-opacity="1.000000" fill-rule="evenodd"/>
		</g>
	</g>
</svg>
