<svg width="32.000000" height="32.000000" viewBox="0 0 32 32" fill="none" xmlns="http://www.w3.org/2000/svg" xmlns:xlink="http://www.w3.org/1999/xlink">
	<desc>
			Created with Pixso.
	</desc>
	<defs>
		<clipPath id="clip301_1911">
			<rect id="tabler:brand-twitter" rx="0.000000" width="31.000000" height="31.000000" transform="translate(0.500000 0.500000)" fill="white" fill-opacity="0"/>
		</clipPath>
	</defs>
	<rect id="tabler:brand-twitter" rx="0.000000" width="31.000000" height="31.000000" transform="translate(0.500000 0.500000)" fill="#FFFFFF" fill-opacity="0"/>
	<g clip-path="url(#clip301_1911)">
		<path id="Vector" d="M25.33 6.66C23.83 4.97 21.62 4.88 19.49 5.68C17.36 6.48 15.96 8.43 16 10.66L16 12C11.67 12.11 7.82 10.14 5.33 6.66C5.33 6.66 -0.25 16.57 10.66 21.33C8.17 22.99 5.68 24.11 2.66 24C7.07 26.4 11.88 27.23 16.04 26.02C20.81 24.63 24.74 21.05 26.24 15.7C26.69 14.07 26.91 12.38 26.9 10.69C26.9 10.36 28.92 7 29.33 5.34L29.33 5.34C28 6 26.69 6.26 25.33 6.66Z" stroke="#FFFFFF" stroke-opacity="1.000000" stroke-width="2.000000" stroke-linejoin="round"/>
	</g>
</svg>
